<mxfile host="app.diagrams.net" modified="2020-10-17T14:33:04.614Z" agent="5.0 (Macintosh; Intel Mac OS X 10_15_1) AppleWebKit/537.36 (KHTML, like Gecko) Chrome/86.0.4240.80 Safari/537.36" etag="DsZOypWG6mniG7V-_Dy2" version="13.8.0" type="github">
  <diagram id="K9VVRQyfBMGrdoFxeXwv" name="第 1 页">
    <mxGraphModel dx="925" dy="605" grid="1" gridSize="10" guides="1" tooltips="1" connect="1" arrows="1" fold="1" page="1" pageScale="1" pageWidth="827" pageHeight="1169" math="0" shadow="0">
      <root>
        <mxCell id="0" />
        <mxCell id="1" parent="0" />
        <mxCell id="YVKBZSu8YT04rlqDVJ53-1" value="&lt;h4 class=&quot;css-10c1h40-Title eugt34i1&quot; style=&quot;box-sizing: border-box ; margin: 0px ; color: rgb(38 , 38 , 38) ; font-weight: 500 ; padding: 0px ; line-height: 16px ; font-size: 14px&quot;&gt;&lt;/h4&gt;&lt;blockquote style=&quot;margin: 0 0 0 40px ; border: none ; padding: 0px&quot;&gt;&lt;h4&gt;&lt;br&gt;&lt;/h4&gt;&lt;/blockquote&gt;" style="rounded=1;whiteSpace=wrap;html=1;sketch=0;align=left;glass=0;shadow=0;" vertex="1" parent="1">
          <mxGeometry x="80" y="978" width="280" height="392" as="geometry" />
        </mxCell>
        <mxCell id="YVKBZSu8YT04rlqDVJ53-34" value="" style="shape=image;verticalLabelPosition=bottom;labelBackgroundColor=#ffffff;verticalAlign=top;aspect=fixed;imageAspect=0;image=https://ss1.bdstatic.com/70cFuXSh_Q1YnxGkpoWK1HF6hhy/it/u=1232653910,3822450667&amp;fm=26&amp;gp=0.jpg;" vertex="1" parent="1">
          <mxGeometry x="800" y="962" width="310" height="436" as="geometry" />
        </mxCell>
        <mxCell id="YVKBZSu8YT04rlqDVJ53-35" value="&lt;font data-font-src=&quot;https://fonts.googleapis.com/css?family=Zhi+Mang+Xing&quot; style=&quot;font-size: 34px&quot; face=&quot;Zhi Mang Xing&quot;&gt;树&lt;/font&gt;" style="rounded=0;whiteSpace=wrap;html=1;shadow=0;glass=0;sketch=0;align=left;fontStyle=1;spacing=1;fontSize=26;strokeColor=none;fillColor=none;" vertex="1" parent="1">
          <mxGeometry x="100" y="980" width="40" height="60" as="geometry" />
        </mxCell>
        <mxCell id="YVKBZSu8YT04rlqDVJ53-41" value="" style="rounded=0;whiteSpace=wrap;html=1;shadow=0;glass=0;sketch=0;fillColor=none;fontSize=26;align=left;" vertex="1" parent="1">
          <mxGeometry x="105" y="1030" width="230" height="310" as="geometry" />
        </mxCell>
        <mxCell id="YVKBZSu8YT04rlqDVJ53-42" value="&lt;blockquote style=&quot;margin: 0px 0px 0px 40px ; border: none ; padding: 0px&quot;&gt;&lt;h4&gt;&lt;font data-font-src=&quot;https://fonts.googleapis.com/css?family=Ma+Shan+Zheng&quot; face=&quot;Ma Shan Zheng&quot;&gt;&lt;font data-font-src=&quot;https://fonts.googleapis.com/css?family=Ma+Shan+Zheng&quot;&gt;&lt;a href=&quot;https://leetcode-cn.com/problems/construct-binary-tree-from-preorder-and-postorder-traversal/&quot; style=&quot;background-color: transparent ; box-sizing: border-box ; outline: none ; cursor: pointer ; transition: all 0.3s ease 0s ; overflow: hidden ; text-overflow: ellipsis&quot;&gt;889. 根据前序和后序遍历构造二叉树&lt;/a&gt;&lt;/font&gt;&lt;/font&gt;&lt;/h4&gt;&lt;font data-font-src=&quot;https://fonts.googleapis.com/css?family=Ma+Shan+Zheng&quot; face=&quot;Ma Shan Zheng&quot;&gt;&lt;font data-font-src=&quot;https://fonts.googleapis.com/css?family=Ma+Shan+Zheng&quot;&gt;&lt;span style=&quot;background-color: rgb(255 , 255 , 255)&quot;&gt;返回与给定的前序和后序遍历匹配的任何二叉树。&lt;br&gt;&lt;/span&gt;&lt;/font&gt;&lt;/font&gt;&lt;font data-font-src=&quot;https://fonts.googleapis.com/css?family=Ma+Shan+Zheng&quot; face=&quot;Ma Shan Zheng&quot;&gt;&lt;span style=&quot;background-color: rgb(255 , 255 , 153)&quot;&gt;&amp;nbsp;pre&amp;nbsp;&lt;/span&gt;&lt;span style=&quot;background-color: rgb(255 , 255 , 255)&quot;&gt;&lt;font data-font-src=&quot;https://fonts.googleapis.com/css?family=Ma+Shan+Zheng&quot;&gt;和&lt;/font&gt;&lt;/span&gt;&lt;span style=&quot;background-color: rgb(255 , 255 , 255)&quot;&gt;&amp;nbsp;&lt;span style=&quot;background-color: rgb(255 , 255 , 153)&quot;&gt;post&lt;/span&gt;&amp;nbsp;&lt;/span&gt;&lt;span style=&quot;background-color: rgb(255 , 255 , 255)&quot;&gt;&lt;font data-font-src=&quot;https://fonts.googleapis.com/css?family=Ma+Shan+Zheng&quot;&gt;遍历中的值是不同的正整数。&lt;/font&gt;&lt;br&gt;&lt;/span&gt;&lt;/font&gt;&lt;font data-font-src=&quot;https://fonts.googleapis.com/css?family=Ma+Shan+Zheng&quot; face=&quot;Ma Shan Zheng&quot;&gt;&lt;span style=&quot;background-color: rgb(255 , 255 , 255)&quot;&gt;&lt;font data-font-src=&quot;https://fonts.googleapis.com/css?family=Ma+Shan+Zheng&quot;&gt;示例：&lt;/font&gt;&lt;/span&gt;&lt;/font&gt;&lt;div&gt;&lt;font data-font-src=&quot;https://fonts.googleapis.com/css?family=Ma+Shan+Zheng&quot; face=&quot;Ma Shan Zheng&quot;&gt;&lt;span style=&quot;background-color: rgb(255 , 179 , 102)&quot;&gt;&lt;font data-font-src=&quot;https://fonts.googleapis.com/css?family=Ma+Shan+Zheng&quot;&gt;输入：&lt;/font&gt;pre = [1,2,4,5,3,6,7], post = [4,5,2,6,7,3,1]&lt;/span&gt;&lt;/font&gt;&lt;/div&gt;&lt;div&gt;&lt;font data-font-src=&quot;https://fonts.googleapis.com/css?family=Ma+Shan+Zheng&quot; face=&quot;Ma Shan Zheng&quot;&gt;&lt;span style=&quot;background-color: rgb(255 , 179 , 102)&quot;&gt;输出：[1,2,3,4,5,6,7]&lt;/span&gt;&lt;/font&gt;&lt;/div&gt;&lt;div&gt;&lt;font data-font-src=&quot;https://fonts.googleapis.com/css?family=Ma+Shan+Zheng&quot; face=&quot;Ma Shan Zheng&quot;&gt;提示：&lt;/font&gt;&lt;/div&gt;&lt;div&gt;&lt;font data-font-src=&quot;https://fonts.googleapis.com/css?family=Ma+Shan+Zheng&quot; face=&quot;Ma Shan Zheng&quot;&gt;&lt;font data-font-src=&quot;https://fonts.googleapis.com/css?family=%E9%87%91%E6%A2%85%E6%B5%AA%E6%BC%AB%E5%B0%8F%E5%8F%A0%E5%AD%97%E4%BD%93&quot;&gt;1 &amp;lt;= pre.length == post.length &amp;lt;= 30&lt;/font&gt;&lt;/font&gt;&lt;/div&gt;&lt;div&gt;&lt;font data-font-src=&quot;https://fonts.googleapis.com/css?family=Ma+Shan+Zheng&quot; face=&quot;Ma Shan Zheng&quot;&gt;&lt;font data-font-src=&quot;https://fonts.googleapis.com/css?family=%E9%87%91%E6%A2%85%E6%B5%AA%E6%BC%AB%E5%B0%8F%E5%8F%A0%E5%AD%97%E4%BD%93&quot;&gt;pre[] 和 post[] 都是 1, 2, ..., pre.length 的排 列&lt;/font&gt;&lt;/font&gt;&lt;/div&gt;&lt;div&gt;&lt;font data-font-src=&quot;https://fonts.googleapis.com/css?family=Ma+Shan+Zheng&quot; face=&quot;Ma Shan Zheng&quot;&gt;&lt;font data-font-src=&quot;https://fonts.googleapis.com/css?family=%E9%87%91%E6%A2%85%E6%B5%AA%E6%BC%AB%E5%B0%8F%E5%8F%A0%E5%AD%97%E4%BD%93&quot;&gt;&lt;font data-font-src=&quot;https://fonts.googleapis.com/css?family=%E9%87%91%E6%A2%85%E6%B5%AA%E6%BC%AB%E5%B0%8F%E5%8F%A0%E5%AD%97%E4%BD%93&quot;&gt;每个输入保证至少有一个答案。如果有多个答案，可以返回其中一个。&lt;/font&gt;&lt;/font&gt;&lt;/font&gt;&lt;/div&gt;&lt;/blockquote&gt;&lt;div&gt;&lt;br&gt;&lt;/div&gt;" style="text;html=1;strokeColor=none;fillColor=none;align=left;verticalAlign=middle;whiteSpace=wrap;rounded=0;shadow=0;glass=0;sketch=0;labelPosition=center;verticalLabelPosition=middle;" vertex="1" parent="1">
          <mxGeometry x="80" y="1030" width="250" height="220" as="geometry" />
        </mxCell>
        <mxCell id="YVKBZSu8YT04rlqDVJ53-49" value="" style="dashed=0;aspect=fixed;verticalLabelPosition=bottom;verticalAlign=top;align=center;shape=mxgraph.gmdl.heart;strokeColor=none;shadow=0;rounded=0;glass=0;dashPattern=1 1;sketch=0;fontSize=26;fillColor=#FF3333;" vertex="1" parent="1">
          <mxGeometry x="140" y="1001" width="20" height="18" as="geometry" />
        </mxCell>
        <mxCell id="YVKBZSu8YT04rlqDVJ53-50" value="" style="dashed=0;aspect=fixed;verticalLabelPosition=bottom;verticalAlign=top;align=center;shape=mxgraph.gmdl.heart;strokeColor=none;shadow=0;rounded=0;glass=0;dashPattern=1 1;sketch=0;fontSize=26;fillColor=#FF3333;" vertex="1" parent="1">
          <mxGeometry x="170" y="1001" width="20" height="18" as="geometry" />
        </mxCell>
        <mxCell id="YVKBZSu8YT04rlqDVJ53-54" value="&lt;div style=&quot;font-size: 9px ; text-align: left&quot;&gt;&lt;span style=&quot;color: rgb(0 , 128 , 0)&quot;&gt;&lt;font face=&quot;Ma Shan Zheng&quot; data-font-src=&quot;https://fonts.googleapis.com/css?family=Ma+Shan+Zheng&quot;&gt;&lt;span style=&quot;background-color: rgb(255 , 153 , 51)&quot;&gt;前序&lt;/span&gt;：[根节点,[左子树前序遍历],[右子树前序遍历]]&lt;/font&gt;&lt;/span&gt;&lt;/div&gt;&lt;div style=&quot;font-size: 9px ; text-align: left&quot;&gt;&lt;span style=&quot;color: rgb(0 , 128 , 0)&quot;&gt;&lt;font face=&quot;Ma Shan Zheng&quot; data-font-src=&quot;https://fonts.googleapis.com/css?family=Ma+Shan+Zheng&quot;&gt;&lt;span style=&quot;background-color: rgb(255 , 153 , 51)&quot;&gt;后序&lt;/span&gt;：[[左子树后序遍历],[右子树后续遍历],根节点]&lt;/font&gt;&lt;/span&gt;&lt;/div&gt;" style="text;html=1;strokeColor=none;fillColor=none;align=center;verticalAlign=middle;whiteSpace=wrap;rounded=0;shadow=0;glass=0;dashed=1;dashPattern=1 1;sketch=0;fontSize=26;" vertex="1" parent="1">
          <mxGeometry x="120" y="1250" width="210" height="60" as="geometry" />
        </mxCell>
        <mxCell id="YVKBZSu8YT04rlqDVJ53-55" value="&lt;h4 class=&quot;css-10c1h40-Title eugt34i1&quot; style=&quot;box-sizing: border-box ; margin: 0px ; color: rgb(38 , 38 , 38) ; font-weight: 500 ; padding: 0px ; line-height: 16px ; font-size: 14px&quot;&gt;&lt;/h4&gt;&lt;blockquote style=&quot;margin: 0 0 0 40px ; border: none ; padding: 0px&quot;&gt;&lt;h4&gt;&lt;br&gt;&lt;/h4&gt;&lt;/blockquote&gt;" style="rounded=1;whiteSpace=wrap;html=1;sketch=0;align=left;glass=0;" vertex="1" parent="1">
          <mxGeometry x="380" y="978" width="280" height="392" as="geometry" />
        </mxCell>
        <mxCell id="YVKBZSu8YT04rlqDVJ53-56" value="&lt;font data-font-src=&quot;https://fonts.googleapis.com/css?family=Zhi+Mang+Xing&quot; style=&quot;font-size: 34px&quot; face=&quot;Zhi Mang Xing&quot;&gt;树&lt;/font&gt;" style="rounded=0;whiteSpace=wrap;html=1;shadow=0;glass=0;sketch=0;align=left;fontStyle=1;spacing=1;fontSize=26;strokeColor=none;fillColor=none;" vertex="1" parent="1">
          <mxGeometry x="400" y="980" width="40" height="60" as="geometry" />
        </mxCell>
        <mxCell id="YVKBZSu8YT04rlqDVJ53-57" value="" style="rounded=0;whiteSpace=wrap;html=1;shadow=0;glass=0;sketch=0;fillColor=none;fontSize=26;align=left;" vertex="1" parent="1">
          <mxGeometry x="405" y="1030" width="230" height="310" as="geometry" />
        </mxCell>
        <mxCell id="YVKBZSu8YT04rlqDVJ53-58" value="&lt;blockquote style=&quot;margin: 0px 0px 0px 40px ; border: none ; padding: 0px&quot;&gt;&lt;h4&gt;&lt;font data-font-src=&quot;https://fonts.googleapis.com/css?family=Ma+Shan+Zheng&quot; face=&quot;Ma Shan Zheng&quot;&gt;&lt;font data-font-src=&quot;https://fonts.googleapis.com/css?family=Ma+Shan+Zheng&quot;&gt;&lt;a href=&quot;https://leetcode-cn.com/problems/construct-binary-tree-from-preorder-and-postorder-traversal/&quot; style=&quot;background-color: transparent ; box-sizing: border-box ; outline: none ; cursor: pointer ; transition: all 0.3s ease 0s ; overflow: hidden ; text-overflow: ellipsis&quot;&gt;889. 根据前序和后序遍历构造二叉树&lt;/a&gt;&lt;/font&gt;&lt;/font&gt;&lt;/h4&gt;&lt;br&gt;&lt;/blockquote&gt;&lt;blockquote style=&quot;margin: 0px 0px 0px 40px ; border: none ; padding: 0px&quot;&gt;&lt;br&gt;&lt;/blockquote&gt;&lt;blockquote style=&quot;margin: 0px 0px 0px 40px ; border: none ; padding: 0px&quot;&gt;&lt;br&gt;&lt;/blockquote&gt;&lt;blockquote style=&quot;margin: 0px 0px 0px 40px ; border: none ; padding: 0px&quot;&gt;&lt;br&gt;&lt;/blockquote&gt;&lt;blockquote style=&quot;margin: 0px 0px 0px 40px ; border: none ; padding: 0px&quot;&gt;&lt;br&gt;&lt;/blockquote&gt;&lt;blockquote style=&quot;margin: 0px 0px 0px 40px ; border: none ; padding: 0px&quot;&gt;&lt;br&gt;&lt;/blockquote&gt;&lt;blockquote style=&quot;margin: 0px 0px 0px 40px ; border: none ; padding: 0px&quot;&gt;&lt;br&gt;&lt;/blockquote&gt;&lt;blockquote style=&quot;margin: 0px 0px 0px 40px ; border: none ; padding: 0px&quot;&gt;&lt;br&gt;&lt;/blockquote&gt;&lt;blockquote style=&quot;margin: 0px 0px 0px 40px ; border: none ; padding: 0px&quot;&gt;&lt;br&gt;&lt;/blockquote&gt;&lt;blockquote style=&quot;margin: 0px 0px 0px 40px ; border: none ; padding: 0px&quot;&gt;&lt;br&gt;&lt;/blockquote&gt;&lt;blockquote style=&quot;margin: 0px 0px 0px 40px ; border: none ; padding: 0px&quot;&gt;&lt;br&gt;&lt;/blockquote&gt;&lt;blockquote style=&quot;margin: 0px 0px 0px 40px ; border: none ; padding: 0px&quot;&gt;&lt;br&gt;&lt;/blockquote&gt;&lt;div&gt;&lt;br&gt;&lt;/div&gt;" style="text;html=1;strokeColor=none;fillColor=none;align=left;verticalAlign=middle;whiteSpace=wrap;rounded=0;shadow=0;glass=0;sketch=0;labelPosition=center;verticalLabelPosition=middle;" vertex="1" parent="1">
          <mxGeometry x="380" y="1030" width="250" height="220" as="geometry" />
        </mxCell>
        <mxCell id="YVKBZSu8YT04rlqDVJ53-59" value="" style="dashed=0;aspect=fixed;verticalLabelPosition=bottom;verticalAlign=top;align=center;shape=mxgraph.gmdl.heart;strokeColor=none;shadow=0;rounded=0;glass=0;dashPattern=1 1;sketch=0;fontSize=26;fillColor=#FF3333;" vertex="1" parent="1">
          <mxGeometry x="440" y="1001" width="20" height="18" as="geometry" />
        </mxCell>
        <mxCell id="YVKBZSu8YT04rlqDVJ53-60" value="" style="dashed=0;aspect=fixed;verticalLabelPosition=bottom;verticalAlign=top;align=center;shape=mxgraph.gmdl.heart;strokeColor=none;shadow=0;rounded=0;glass=0;dashPattern=1 1;sketch=0;fontSize=26;fillColor=#FF3333;" vertex="1" parent="1">
          <mxGeometry x="470" y="1001" width="20" height="18" as="geometry" />
        </mxCell>
        <mxCell id="YVKBZSu8YT04rlqDVJ53-61" value="&lt;div style=&quot;font-size: 9px&quot;&gt;&lt;div style=&quot;background-color: rgb(255 , 255 , 254) ; font-family: &amp;#34;menlo&amp;#34; , &amp;#34;monaco&amp;#34; , &amp;#34;courier new&amp;#34; , monospace ; font-size: 12px ; line-height: 18px&quot;&gt;&lt;div&gt;&lt;span style=&quot;color: #008000&quot;&gt;1. 找到根节点 2.&amp;nbsp;&lt;/span&gt;&lt;span style=&quot;color: rgb(0 , 128 , 0)&quot;&gt;确定左右子树的区间 3.&amp;nbsp;&lt;/span&gt;&lt;span style=&quot;color: rgb(0 , 128 , 0)&quot;&gt;确定左右子树的前序遍历 4.&amp;nbsp;&lt;/span&gt;&lt;span style=&quot;color: rgb(0 , 128 , 0)&quot;&gt;确定左右子树的后序遍历 5.&amp;nbsp;&lt;/span&gt;&lt;span style=&quot;color: rgb(0 , 128 , 0)&quot;&gt;构建根节点 6.&amp;nbsp;&lt;/span&gt;&lt;span style=&quot;color: rgb(0 , 128 , 0)&quot;&gt;递归&lt;/span&gt;&lt;/div&gt;&lt;/div&gt;&lt;/div&gt;" style="text;html=1;strokeColor=none;fillColor=none;align=left;verticalAlign=middle;whiteSpace=wrap;rounded=0;shadow=0;glass=0;dashed=1;dashPattern=1 1;sketch=0;fontSize=26;" vertex="1" parent="1">
          <mxGeometry x="420" y="1270" width="210" height="60" as="geometry" />
        </mxCell>
        <mxCell id="YVKBZSu8YT04rlqDVJ53-63" value="" style="shape=image;verticalLabelPosition=bottom;labelBackgroundColor=#ffffff;verticalAlign=top;aspect=fixed;imageAspect=0;image=data:image/png,iVBORw0KGgoAAAANSUhEUgAAAqYAAAKuCAYAAABzKN7yAAAgAElEQVR4Aeydd7gUxdKHjdecc85ZMeecc8Kccw6gYkZFTJizXsWIAb2fGbNiVlQERFRUFBUVEUWiKJzd7e95e609vb0zuzOzO3v2nFN/zNMTOnd19W+qq6qnMSZn9NI+UBpQGlAaUBpQGlAaUBpQGmhpGpimpSug5eskUBpQGlAaUBpQGlAaUBpQGoAGFJiqxFgl5nWggVdffcXce+89ZsyYP7S/69DfQQvc8OHf2TH46KMPdQxaaAyCxkXfKRhRGlAacGmgLsD0k8FZ8/zrxderb2d1cWjBxeHjjz8yzz77TNH10ksvtpox+eKLz81nnw02f/01qeHrDCCaaaaZzNJLL20ymaaa1/enkTnzQf+s+fq76pnbxEn5vD4a1Pbm5x9//G5mmWUWs/DCC5uJEyfUfBxcxqr31dOi9qH2odJA+6SBugDTA0/KmNmWbyq6lliv9gt0aydigGGnTp3MTjvtZDbZZBOz3377mYsuush88MH7JpvN1HQh3Wuvvcw000xTdM0333w1LSPN8Zhnnnls3fv1+6Dh67zvvvvaul5//XWp1LXH7Vk7tw49rXoa+fjTfF6LrtM25+dxxx1nx6Jr166pjEWaNK95t89FWsddx7290UBdgOmb72dNryfy1yXX5UGqAtPmyYYkBzDqA0X3+cQTT6zpQvr666+Z++67117nn3++LbtewLRnz7vNCiusYKppU2sBpp980t/27eyzz27GjRtb0zEUZtUegemGu2VMh+2azNBhzfNI+qNc+PnnQ+x4IDkdPfq3VMajXPn6Ld54aX9pfykNtD8aqAswdQmr34C8REaBaTOx7bnnnnaxBGwdccQR5n//e9x8+eUXdpv9wgsvNADGY445JrVF9P3336srML3mmqtteXvssUfiNl188cXm7LPPNj/++EPiPFy6TOv+qKOOsm097bTTUqtnLYHpL6Ny5spbs+b6uxp7K3+BNfI7MJ9+Eb+e2223nR2THj2uSm1M0qInzbeZb2pfaF8oDbRNGlBg2oJ6nkyqvn1ft4skEpwhQz4LXCgnTZpoPvywX+C3WkzM1ghMa9HutPMYO/ZPq9M47bTTmm+++Tq18aslME27T2qVfzXA9Pnn+9g5t+yyy5pcLj6wrVUbNJ+2uajquOq4Kg1URwOJgen4CTmD9POB/2XN//XJmsFfRmPwSSSmI37JmVfeypr7H8+X9eU3WTO1KVrDMQx5+c2suad31jz6dNagVjDpr8ppmzL59j3+XNb0fDRrnn0lG3vbMApxXn11D7tIbrPNNlUBl99/H23Ynr/77rvMm2++Ecv6Ow4wxar8l19+NoDloPb99tso+/3vvycXfUey+f33w+113nnn2TYjuZJ3EqLWEJTv1KlTDG30r6amqYHx/TwwkgLcYxnfp89zZsSIH8umk/pOmfKPjcc2PIDmoYd6GQyv/PyDnh9++CHbzuWWWy5SfMkD2oPGoT3m1lff5kwmE06zPjCdNDln+r6Xp3fS5nLhaSmTOfLDz8UXc07qUynEYKrfJ/n5+fq7WTP6j+hps9mc+e6HnOnzWtbc2ztrXnsna8aOK00/YWJx/eZbLS8xfenNbEndy/UVbfnnn7/NdNNNZ8emf/+PI7fzp59GWLqBdsLotFJf6ffSsdU+0T5RGlAacGkgNjAFkJ50XqkxE8ZNG+yasWDVLcC/jwNMAaPk6RtO8bzgGk2m9zPhYPivyTlz/DkZM+dKxUZXpJ131SZzxc3hhiIA2dW3KU1H2tW3bjIjf6sdEZ166ql2gVxjjTUiL5BunwKcJA9XJxUp3bnnnmuiALc4wHTnnXe29b3xxhsC67viiiva708//VTRdyTCbv3C7sP0TkXK5aeLYvx0zz09reTST0tbALpuf8q91HfgwAGmc+fOBSAjeZxyyikVLezF0GbHHXcMLEPKckOs4VfeopT20KcM+/lzgelTL2bN3CsXp9+yY8aMGh1Os4utWxwfOo9i/DRlas5c0CNj5lixOP3sKzSZ86/KVPx5xDPHipsVp6Xs+VdvMp0uLp6fN9ydVwHie6Xrt9/D2yp9jYcExvK6666NPDZ4VpDx33vvvSOnkzI1rDwu2kfaR0oDSgOxgOnPv+YKCwkL14nnZsyt92VN9xszpuOxGcOCdPsD4WARgosDTK+5I78YbbpnxnS6KGNuuTdrbuqZNceclTFz/Qs4r7gluDxAKQsYi+5hp+fT3nxP1pzWNWOW3rDJHNG5eOGTyYCkSrYJt+iYMeddmbHS1m7XZ8yuh+fz/GZ47QjnpptuLCx2UUCW1FPCrbfe2qafddZZDUDohhuuN0cffbT5z3/+Y9+jvypxw8J6AFOkpGeddZa9tthiC1s3JInyTsInnvi/wPriGuqEE04oXNK+Sn126aXdCv0LmACInHHGGWaRRRax75dYYgkzYcL4kjIFmO6zzz5mzjnnNMcff7y57LLuZocddijk98gjD5ekc/t45ZVXtnH5cXDfh90jzRdQCe1ddVvW/kBtvHue7pASBrlxEmC66pZNNv22+2fMtXdmTderM2alzfNAbpUtm0J3Cpi/AEmuIzvny6oETP/+J2c22ysfd+G1msyZl2bMHQ9mzblXZMzi/wLdfY8LnmO0n3krAHPbAzIGo8jb7s/PT+rql/92v2yhjtRT5j+8QOouIRLcsD6W99tvv70dmyjzQ9IoMK3cr9JXGmpfKQ0oDSSlgVjAFDDHYrL+Lhnz/U+lnY4vxRffCAaKUsE4wPSdD7Om/+Dg/F7om1/YkK786W39sWjKwsX2vZQt4T9TcmbQ56Xv+X7pDfk2rrl9U+D2KVuj48aXtl3yjhv+/PNPZo455rCL5Mwzz2xOOukk88orL4dulbv5v/jiCzYdCybg0v3Gtv70009vv7/77jtF39x43NcDmLpl1sL4KYpVPlbXs802m+0DXzLGVj2gFAnY5ZdfVtI/AkwBpRiiufU/+OCDbbpNN9206L0bh3vJ4+abbyobT9Ih2WR+HXRysbQRet3zqPy33Q4vBXsCTEl78CmZIrrFmEnAKT92UlZYGNVdlJTJzgKqAG5+lClSWFRg3G/cf/F1tjA/+Vn0v7PbgQGW/959lp/HJMZP5MM8Y+zXWmutsuW4ZSowLR5nt2/0XvtGaUBpoFY0EBmYDvisWcIBAE1agTjAtFIZsg3og2HAo0hjfi2zhRmUP9JV0iJZDfqexjsc3QvQkq3CGWaYwaCDiU6kr68pdUAvlfgHHXRQYF132203+x2fpZImKGyrwLR790tt+xdffPHAbXfAKv0377zzlviJFVDZpUuXkr4Tg7X555+/5Jv0Lzq4MpYvvPB8aDyJ/37/5vkVJJEfOKT5+2dDi+efgEToFtqXPCVEeso3VATkXVgYBZiOGZuzqjTkyc9jUF5IL/m+/YGl82ifY/Pf2IEIShvlXbXAlJ0FxmexxRaLXAcFpqW0FWWsNI72m9KA0kAcGogMTP/bK7+4ofMZpwA/blJgymKIjh3GEeiecq2zY36b8qEnixdHjJtE7+2Mbhkz+e/oRMH2JwsqEp8hHgDw21LL55Ejf7HO9FdZZZUCoBFgg/7p0KFflvT7QgstZOM+/vhjJd+oG7qV5IHP0HJ1bavA9IADDrDtRzoW1P5vvx1W6GsMutw4Akx9XVniuOkwpHHTyT3SWhm/KB4VMLCD7qBpycMP5UcMoyj3mwDTNbYNTvv5V82gFiMiN61/HwWYvvF+Pj9UCzCyQgWBi/dcvMPYkPYs2KHJYODkloOrOL4FSVPdeOXuqwWmDz74gB0ffgjLleN+w+hJrjDdZDe+3hePu/aH9ofSgNJAFBqIDEzP6p4HbGwzRsk4LE4cYIo18SNPZc26O5U3eGAR9Ms75/J8fWVx3OPIjNXXqwQ2sUZGZ450XGtt32ROuSBjAL9sqfrlpPHMNvMDD9xv8PMp4AZ9RSzTpTykqBg48f29994tvJfvhJwkxXckPeXc4rRVYLrRRhvZ9gdt1dM/9KH0L33g9p0AU45udd9zz0+EpMMllP+dZ4zOZHweffSRwDhuuouvzdNr0Fa9xNtqn3wcdK/lHaEA0x0OCp6bf/zZvIPANrqb1r+PAkzvfrgZ6Mo8KReimy7loHYjcQHM8j5uWC0wveSSS+wYLr/88onrELfOGr+ZDrQvtC+UBpQGwmggMjAFkLKgYIQUllmU93GA6dX/HrWIURU6dljSsygCRLmQEFGnno+ULnCAWtzPbLJHM0AlLnmhh1fuXHFc5xx9ZsYssnYzQCXtCps2GSTHvgQoSruTxunV68ECCHrssd6FvkdyI+AozH0RkjqJEwagqFdbBab4qaT9t99+W6Hf/HFAr5c4vmRUgOmgQQNL0kYBppSDigB5Y4Dll+s/i6eLcseK7nV0npbPvqx4DgowPeDE4vdSBu6noF+udz8qnSsSjzAKMMUQkLzQXWU+VrpcYyRXehvFet6tm3tfLTAVPeGNN9644ti45eq9LqZKA0oDSgPp0kBkYIq1LYvR/icEL35RByoqMEXKwnY81/OvBy+ma+8QDkzd+rAA/q9P1rCwi/sojDZwd+PG8+9Z0NGtRZoFKJXFHd+tfty0npG8cfITAOeiiy4qlIubKJHIvfPO24X3bj3QbSQdIMt979/XEpgutdRSgUDPLbNexk8YJ9F+dE3d8uUe36Z85/K322sBTLfcckub92GHHRZYvtSDUIzudjksfH5hqQ8N+qcyCTDdLkCfk7zxKyq0O6yCR4kowJQfPvLDet5tQ5R73M1JXZIaLlFOtcB0/fXXt2ODt4Uo9dY45Xml9o/2j9KA0kCtaCAyMBUdOKzVqymcxYiFCV+i5YAhDreJhweAoPJwok0exAmSmAal4R1+HmVh/CTE4j8oLeVxPjdpcY0VFCetd7vuuqtdRPGn6Zax6KKL2vc4cnffy/2dd95hv6+00kqB3yUevjoBZ2z5i0N5+eaH++23n40bBPay2YyZccYZ7fennnoytMxrr73GxsE4y88/6rMYi5VzFyVSsWOPPTawHPR2BZj++uvIoji1AKayXYxKQaV23fdYni7D9ERJv+zGeXrH6b6bnwDTMKAocw7araRvHQWYYvBEXuiYJtk9WGajfDv4WXTbEeceP8bUAaOwOOkk7txzz23HvpLLL4lPiNHba6+9aq/Bgz9NVK6bn97rQq40oDSgNFBKA5GBKbppYlDkW8HH6VhOdWFB4UJ6Gpa21xP5xY/twqDF7+EnmwFmHGDKwoyLKcoPsygOq5P4Xtzx4NoB0yAfmm75SEyXXHJJu4j27Hl3UX/tsssu9n3YmfPi4xQjIDdP//7PP8cUAJqva+nHBRwD5o488siSPN96681CPuWAKacnkccGG2xQkodfXthzFGAqktkFFlggEHCLj9OFF164RAe3FsAUSTbtpK6ZTPkfOn6SZF4ESRLf+7j5u295L8CU9EFADT+lfFtv58p0GwWY4i5N1FzQAQ8bo7D34vli870r1ycsDzkAAyPIsDhh70UVg9OffKO3sDS8V6v80gWkXH/pN+0vpQGlgSQ0EBmYkvnpXfMLHJKZoAUQ36JIJCtVBCkoCyX6dGEn0rjuqcjXzRPr/OU3yYNL8vGB6dBhOauDGnT06J0P5hd4dE2D/JHe9VA2sG34RpUyMaxy61PNPUeIsq3IMZl+Pmw1s9UIuMGh/Ndff1UUR4AP/kqfeebpom9IgkjHhUTUz9t/Xn311W1cJKK+9NCNi/sq8px99tmLjvUE3G644YaFMssBU9F9pd5BxkVueWH3UYDp+PHjCm64fLdPOOzH3RNtCTrFqhbAFIMzPCJQRrn+kDayjQ8973RIpsgZPnQqhk9BeqQuMCUPVyoKiF1y/fxc4WdPygoLowBT0uJMn7qi4hLk9J86PPh/WWu86JeFD2SkraRnLvnHC/Pz6uvR+nmIvi364n56P67/fMUVl9sx4eQv/1u5ZwWmusiWow/9pvShNFAbGogFTHHZJEeEzrNK3iAJf4UYbsgpMJVOfmLgON9apK9sx7NFzuU728aSnsULECmnw2CExaLG4i1l+sBUthoXWjO/7c7ix0JH3cmLPDlpJoiIkIbynbjHdsnYU60AAyIh4tQo18o4KI847wCmABcudEk333xzc9RRR5ndd9/dIOmTb76DeClDttYBeWz5A8A4AlP0TzkFSuKWCznyU84PZwHu0KGDvfxyJ0/+q6DzCrA74ogjDDqUqBVQ/jLLLGPrXAmI0U7aRr3XXntte6ISpyrdcsvNJfUdNuwb07Fjx6JLVAa22mqrove+66zbbru10BcA5zPPPNPsv//+9jQnyl9ttdUMbfL7phbAlDzFVyr6pn4Z/jOgEPdK0B9H32JoiEcIOaKU05CCLNkFmKJzzRY36jacxMSpSOLonrkSBcBFBaaotux9TH6uMJfxJsAc69I9Yw0VqSvtQD/bbyfPGEzJIRioLxx3dsZc2CNjOC0Kd1L+yU9+HrinIn+u5TZuMsxb+AUXwNaPL8/sQOC7lLHHf7C8jxIqMA3v1yj9p3G0/5QGlAai0EAsYEqG6IWyNSgLqCwOAL7dj8gY3/l3WCXe+iBrnW8L4CMfDKzc+L+PydnjRKUMQgAxQJHTYXCPwzv0X910w3/Mn5QjBhJu+qU2aDI39gy3rMewhHPJ3TRyj25pEDBwy457j0/M008/vbBdL0BUQoDTk08+UdQ+twykckiABEhJOk48CpIEumn9e3ToAIxzzTVXARBzfKcfj+1+OdKT8jgMAH1RJLwrrriiTetbuft5jBnzhwXRtE9OviIvjh314yJVlXZVCrt1K7WAB3SzXe+mpc78AFBnvzyepT+rsconHyTJIt0NyssvG+f68sMldEfIMaN4i/Dj8yzAlB0IfspEQko65iU/c5MmB6f184sKTCUdhlDMKbeu3PNTeHinTKA0VdJy+hptlZ9FyYOfv0onP5HH6+9m7THB+HcVo0byCNuFIU3v3o9aOsD9WiX1CqmnhApMo9GQ9JeG2l9KA0oDSWggNjCVQnDHxEKJjhen1pRbDCRN0pAjDnHczZZhHF+igGiApDjlZ1szavqRv+WsDixGWB8OTLd90i/4L/3gg/fttjxGPWypl/M/KukIWWQ5OhMQxpY/hkju91rfYyQ1YMAnhqNPJ06ckGpZtao7Lrbw7Uq9w07TqlVZbj5yylCQXq4bz73H3ycgE93SIJUTN65/z9xEJ5yfP6zg/e/lnpnPgDukkOXi+d+Y/0gxAYvMs3KGjX5aVG7QsUV3nXrHSevnVekZ91D8oDBPKsXV7/FoR/tL+0tpQGmgFjSQGJjWonDNQ4m4PdAAIB5dU6SwnAjVyG0WH6Xb7Jfuj01L9EH//h9bdZXtt9++ocegJfpGy1RerDSgNNAoNKDA1CgxNgoxaj1alhbZkRA1louuaXvAVOmrZelL+1/7X2lAaSAKDSgwVWCq0qN2SgNs86+zY5O9xP0S2/joqGLoGIWBaBztJ6UBpQGlAaWBWtKAAtN2CkpqSUSaV+tkSlivY1EvFz6D8TFaS68TShutkzZ03HTclAaUBlqKBhSYKjBVyZjSgNKA0oDSgNKA0oDSQEPQgAJTJcSGIMSW+jPTclUqoDSgNKA0oDSgNNA4NKDAVIGpAlOlAaUBpQGlAaUBpQGlgYagAQWmSogNQYj6t9o4f6s6FjoWSgNKA0oDSgMtRQMKTBWYKjBVGlAaUBpQGlAaUBpQGmgIGqgITIcMGWK46oWc611evdql5ejfp9KA0oDSgNKA0oDSgNJAeRpQYKp/SHX76dDJWH4yav9o/ygNKA0oDSgNtHcaUGCqwFSBqdKA0oDSgNKA0oDSgNJAQ9CAAlMlxIYgxPb+h6jtVymJ0oDSgNKA0oDSQM4oMFVgqsBUaUBpQGlAaUBpQGlAaaAhaECBqRJiQxCi/iWqpEBpQGlAaUBpQGlAaUCBqQJTBaZKA0oDSgMNQQOffTbY3HvvPeaLLz5viPooSFKQ1F5p4O+/J9u5+MwzT9d9LiowjbEgTZqcMx/0z5oPB2brMlBjxubMJ4OztkzKnfSXMon2yiS03Ur7bZ0GmpqmmlVWWcVMN910Ztiwb+rCY6P26YSJOfP869mS6/ufktFlLpczP/+as2tJPdeUqO3VeMnGta312wYbbGCmnXZa8/HHH9V1PiowjQFMP/0ia2ZbvskssEZTqoM0ZGjWbNExY8uiPLkAqW2N8LU9LcsA33ijr+nWrVvF6557erZa2vv115El7bv00m7mtttuNS+88Lz54YfvG6ptPXpcVVLf66671jzxxP+ZwYM/bai61nL+Mh7TTDON2X333RuujZ8NzfN+4cUS/rdXfJ78zMtZs/wmzXydvNJeU2o5TppXy/Lsevb/I488bOfkZpttVtc5qcC0wYDp1Kac6bBdnmktuX6TOfrMjDnn8vz108j2MyFqPfl69rzbrLDCCubEE0+s6wSrdTsq5XfcccfZdt53372R2nnhhRdaxgMgKHdttNFGkfKrVL+W+D5o0MCybUNCd8QRR5hffvm5Ido411xzla3v5ptvXncJRpRxi0t7bp5sGy6wwAK23X37vt4Q4+DW789xOdPriWzhWnenPI+OC0yHDc+ZuVfOp4XPn941z9svuibTcG1226/3rXvtTbr+TZ06xSy66KJ2Xvbp81zdaFSBaYMB0zfez/+Zz7NKk0F1QBlCbfrgmmuutpNrjz32aNN9ussuu9h23nDD9ZHaKcB03nnnNUgRw67WLDF1gWmXLl3M9ddfZ5BAnnvuuQZJgADydddd18CIW3rOCTDde++9bV2pL1LtffbZx0w//fS2vnPOOWfDSXrj0p7bzw8++IBt1xprrNHi/e/WK+x+9yPyO1pxgemlN+TTbbu/AtGwvtX3tVnz3H6sZv27/PLL7Nzcaaed6jY3FZg2GDC9t3cemG53oDIud2JVe1/NxKy27HqmjwsOBJguv/zydWM69ewPynKB6ZAhn5W088YbbyiAU+7rXT+/PAGmt956S0ldPvywn/nPf/5j67vnnnuWfPfzqudzXNpz67bxxhvbNrWWH6CkwPTIznlg2v1G5e/u+Ot97cGo26fVrH+//z7azDzzzFb3e/jw7+rCcxSYhgDT8RNyBunlw09mDdsvDHJUHdMpU3MGnaRHnsqaZ1/JmuEjcgZld5dQ3PsRv+TMDz/nr4uvzTOu3Q7PFN7JN/J109Xynm3MV199xfz3v3carPC+/354xbKIQ1y2jfv3/9hMnvxXaJopU/6xef744w+FOD/9NMKgw/L0009F3kYFWDz55BPm9ttvM4891tv06/eByWSCdX4pizpynXfeeXbh22677Qrv5Nsff/xeqJPfp+gnEm/ChPGFOPTVQw/1Mo8//pgZMeLHwnvSTpw4wbblzz/HFL2XfMeNG2u/jx8/LvC7xCOMMibSr9KWrbbayraza9euJe2cNGliSZnVAtOxY/+05Ywe/Vshb/oKukAKBih02+Te//XXJAPQwgqbbSK/L924o0b9asv555+/zddff2UeeOB+8/nnQwp5U879999nsOp203FfCZgSZ7XVVrP9tt9++5Wk53tcOnDrkMtlzbffDrM6ovQJeqLlJLPlgCn5nnzyybaubH275bj3LCavv/6aufvuu8ybb75hxoz5IzSumw4DpPfff8/OyzvvvMM89dSToRby1dKelPvzzz/Z9iC5hifI+yjhF1/neezdD2fNE89nzUeDsiaTqcwn4cfDf8wZ9D3h0+j1o0YVpUziRAWm8Gzh34Q7HdIMTN33rAFRy04znvAR6IByhg790s4rdNFdHhhWh2r4AXkyz19++SXD1jN0CD8NK6sl3gsfkHqNHPmLXYfgd3yLUqc4fM/Pr97rn5S/6aab2jl67bXXRGoj6eBB8HQu5rjkFSVUYBoATHs+mjVzrVSsnL7jwRlrHV9JUf3Rp7Nm4bWK05IGRjb6j2DmM//qpfFFud4NB3wWX9G+EhGwyG+yySaFhUG2NbHE23HHHc1vv40qISgm45ZbblmSZo455jC9ez9aEp86fPTRhzY+iy4AaYsttihKP9NMM1kGGFZf6hlUJvVlG/r55/uUlDvLLLMUlSFt88NyeqdSTxZpLIXXXHPNojxnmGEGc9dd/y2UffXVPez3MGnW8ccfb7936tSpkMZvc5wxkX712xT0DJD3y6oWmF588cW2PQcccIBBTxDDlRlnnLGojw4//PCScpGMBY3PzjvvbBmaX09okTZ17tzZ/rlL+wBel1xySaE86Bbw56aPAkwPOuggm0eHDh2K0ko+celA0mHNim6z1FfC5ZZbznzySf/AsioBU+hN8vF/gACLp556auG7xKNfUF0QwCH1c0MMwaiXpHHDZZddtuTnsVrak7LFwAJ6AMTL+3IhwgJ4sssf5X7xdZvMS2+G54MRqejxSxrC1bdpMgOHhKdz6xMVmPYfHGw05ZbL/YIpG9S6dQ+752dJxnzAgE+MSLHlHTyaH/Kw9LxPyg8AdWwVS1kSzj777BXLLFefWn+TtRK+c8opp5TU97TTTgsVlFCXuHxP6t9S65+Uf+SRR9q27rbbbmXHX+ITCs9mLOeZZ57I6UirwNQDprfe18xIDjk1Y265N2s6XZSxVpPCzMIsKDtfkmeUc6zYZI7onE/Llo0oyq+4WZMZN74UnCIlPf+q/LXDQfk8YJLyTsJaGz+99NKLBXDAVi6T6uabbzJnnHGGWW+99SwhfvrpoCKCQjK24IIL2m9LLrmkQWePbYJdd921MEmDtkNlEYPRQLAsgGeddZa56KKLCtIqQF6QhTR/mLiRgcCXWWYZc+yxx1qJ6WWXdTcAIrYZkPS6k4J7pKSUwSXAQsqV94RYO/tp5VnSoZOI/ttss81mttlmG3PCCSdYEDb33HObc845p5C+WmAad0yQCrttoX/oJ0C8+zZ/dswAACAASURBVJ77IOllLYHpMcccY0HjhhtuaLhnbJZeemmDyxHpT0L0WGXhQY+SvoXmFllkEft+iSWWKJHOCJNjG/vMM8808gfPYgkQPumkk8wOO+xg06+44opF5UUBpttvv71Nu/XWWxellXrHpQPSAbgEpJMeXS0s7qUs2oJUSMqQsBIwveKKy21dSe8DTepP384666wGYyR0jY8++uiK2/9In0lD2vXXX9/2MXPqggsuMNtuu619/9VXQ4vqWi3tSXv5MaTc1VdfvSh/+e6Hf03OmXV2zP/Mr7ZVkznlgoxBYtrj9qw5vFPGzLdak7mndzDAfPy5bMH4CF579e1Zc/1d2YIEFN3+fgOC07r1iApMkYQK/yakvgBRQLX7/pLrWn5r3wWm/ExBh4Av5ie6+TJn2Zlw+8K9d4FpVH6Az1oxfGMdgm+zhmCQKDrV1MEtp6XuBZjSP/zsHXjggVYPnLkGL6KPAHFB9UvC98inJdc/aYfwHNY7eVcpFJ5Nnygw9YBmpc5zv2NstMR6ecYBs3K/vd+/WYqKhNP9xj3fYTgwtrf7Faf9+5+cEcDZpXt5BnRjz3w++59QPp5fftxnpFuABohm//33t8Tv58Hfne9PEBBGGhiIv3UhkiskmP5WtQBT0mJk4n5HBUAkNQAlvx6vvfaqLRPgGqTjwpaBX08/j6Q6NgJI5ptvPgvW/fLZIn3vvXcLda4GmCYdE7etcfX8BJgCcpAWhl3UzS1H7mUhon/4YWH7WL4RApwA2/KOHxvAPXTgLzYAHUAp3wBxkoZQmBw/IzwjWYNJEhfwJHEXX3xx+861sK8ETBlTAWVIGyUvN4xLB2xpzj///LYuV155RUmeMo/WXnttk80Wz/VywBTwwBjRbh/IvfjiC/Y9C6QPeBkXWeTfffedkvoIHQDqg1RjvvzyC0Ob3D7x7+PSnqRHSk57+EmRd+VCMRBlVyvIj+gff+bMdz+UCgAQCuDpBD597Z3FPJryul6dFwpsskfGZLOl6d06RQWmbhruOx6bLwMBiP+tpZ9dYIr02pfoM88YJ9YN/4dI6h6XH5BOfnzYZfLVwYSm4Rlx1TykTrUMBZjSD6iTuXmjggBYxcsHEk73W1K+Rx4tuf5JG1Bbo81cqKPJ+3Kh8GzSKDCtApiyhQ/TApwG6XMecGKeqQQB0632yX+74ubiRUYG7sU38nnjKgSgKu/9sF7AFF0RCCYIRPp1kmfAiYAKd/tavqP/B0Ah35tuurGojS4wDdp2R3JKun333bcoHXnfccft9ttKK61U8k3KrhRWC0wBxZXAL3WoBpgmGRO/3XHBgQAS+r7cxV+7XxbPshCRFr3PoDjuu+7dL7XlACCDABBglbygSxewCZND51HyQzJLXFd9BGk27wYOHFCIFwZMAVrotgLGSAM4D9JRpTwBplHpgG1z8kTnV+rrhvxMiYTFd48UBEyZe+hxSz+Qt79LIG1HLcEtS+7ZhiPdXnvtVfKdn1O+oWoi8eOGcWlP8pfdmbPPPjtS2T0fyfPStbYvFRBInkEhLpng7+h5Bn0H0M67ah64vvVBeeDY1oHpYYcdVtJH6FUK/0fPP6gP4/IDflqhO34yw358EGQQhzUiqMx6vhNgutRSSwWqnQifYPfRrVdSvkceLbn+SRvgp4wBV5R1kHQur1JgWgUwPaNbnnFhOSkD4oYP/l+eIfrA9J8pOcP2PUzvroey5s338xd/9lx938ua195p1j0t5yi/XsAU1zMQmT+B3Pb69yjCC3EG6Z4S/9BDD7Vx2Npw07vANIgBIZ0lb/Sa3HTcy18z39FxiqqH5uZTLTANWszd/OW+GmCaZEykXAnjggMBpkgqUawPu8L6XBYifkiCgKbUS0K29xlHtt7lnRtiJCQ05ko9hclhoCfxZdva9a8n4Outt94sxHOBKcCS7XXZYpeyAKW+BETKIZQFJyodiKoB8wBpJReSD7loh8SBNt2yBJgi4ZS6IomRuhIyz9w03C+00EI2DtIN/xvPMsfYhvS/iwSXBSSpE/+4tCd1WHXVVW29UXOQd+XCV97K82H4be9nsmUNS918tj0gz99PvTBTwqOFT0sc+LCb1r9v68D0f/97PLD9It1md8zvE57j8gPhP6iPhM0TeAU0D30FlVnPdwJMMUAMKlf4P6pU7vekfI88WnL9kzawmyX8Jyp/QEqsxk9VAFLp/H2PyzOu864MBqavvh0MTIcOy1lQCqOMcsFMpUw/rBcwRV8SQrvllptD6+LXja0K0rBYhgEVkRShR+emF2DKlqn7Xu4fffQRmzfGRfJOQgCPSFUof+GFFzZYT+PfEStOiVcurBaY0q5y+cs3YUxJjJ+SjImUK2FccCALQ1J3UbIQIb2UOpQLcdTPGPpb9ZIGySDfudztaAGm77zzdqEcWSQBe5JewL0rlXeBKQAUnWSuxRZbzPoxZeHzVTQkPwkFmEalA9GZk7aUC9HFk3IIBZgCoqWuAH8kRyxwbh9IOvpNwKurWiLfCUU6haTWn78sPPhGlXqyO4EuN/qE7IS4+YTdx6U9yYcDAyg3qrQWq/vN987zavjtshs3mUNPy+v0//Z7+G7UUhtE48/kefL5wWuA1LmtA9MwGoJWGaujjjoqkCbi8gP4uNBcpRB1L+n/lgoFmIbxLwQntANdf7eOSfkeebTk+idtwLOHjE9cC3vJI06oxk8OoN163zyzQ4k+qBNxRQLT8iWmSEQFkGIshSJ+ueubf91PBZVRL2DKVimEFmSpHVQv3vXq9aBNU85NDVIP8vUBpgBTFt2g/MsBU+JjyQ8owOBKJgghQBfDHt862S+jWmAa5FPSL4PnaoBpkjHx6xAXHNQKmAII/boEPWPdzbiVk04CxoiDGzHJQ4Cpu2CKwZ27FS4LnStFdYEpEmHJM04owDQKHbi6ehj20NZyl1t/6iTANEpZ0gYkEzIvMCaR926Iay6JE7RrgaugQw45pFC+xAXAUxdXtcLNV+7j0p6k69ixo61XmOGZxHND7AHYml95i2KwiWEqRkVjxxUDVFxBCY/GmLUcf+Zbe9/KD6MheC10wdxzx0PuBZhG5QcC9FBDKTdH+FbJI4DUIc1Q6kt9gsqB79A/qDy435PyPcmjpdY/KR8vBMIPov6oStokoQJTB5gedHIemHIEaFBn4oIkCJjiukSYHr7pgtJGfVcvYIrRBYQW9YQg6u8qYYctUuiJka9/SkS1wNTtv2+++dpaba611lqFyRK0temmqRaY4i7KzS/svhIwxdKU/glyF5VkTPx6xAUHtQKmSPL8ugQ9y/Y1OldB39FlFQYIkJI4jQJMo9KBeBgoZ8EsbfPDJMAUN1EiMQ2SqFIG7qDoWwxb/DLdZwxb0GfFOhpQKuOBKoAbz7+PS3uSXowmUSeRd3HCb7/Pmdvuz5qNd2+Woh5zVikPX27jPIh96MlgwUOcMtu6xDSMhsRtEJ4egvpLgGlUfiBu2uCLQfk12jsBpmH8Cz175gtA1K17Ur7n5iH39Vz/pExZ132PJ/K91qECUweYAkgBmGwLBXU0LkiCgCl/4+L3NIqrkaC85V29gKnovETdPqN+TAhZpMLE+ZIv7pSkTYS1BKZuvuJsnD9Uf3vSjSeGRXH8sJFeJGVRAQl/0vQREgC3fLkXC9TTTz+95Lv0XZwxkXwlFCmib/Eu3/2w3sD04IMPtv3DNrFfF55dPWbX60NrA6bicxc3K0HtLPcuCTAlPznT+uGHHwosExqGNuMYEbKNKF4AAJ7l6h2X9iQv2SYEWPtW2RInaigu+/AL6h9qIn5Pr7mjemCK1xTWgitvjZdXUqt8pP7sFnC5hn1R+yVKPFfSj6uzoDTi6gzXR0Hf4wJT+SnxVb+C8i73DlUc6R9C2lIuftJvAkx9GwrJT9wq+dL/pHxP8g0L017/pFx06+EdYe2WeG4InYpOvavz78YJu1dg6gDTx57NA08c5OMrz+80TmMKAqbEE6Z34rnBoNbPK+y5XsBULP0AdFH1NJHKYBwBgQZJWrHaxMk+330glxYwheApD71X6hfWr6L74/vUDIsv7+MCU04AoT64VJE8JMRFloCOIGCaZEwkbwlFB8z1rSrfgsJ6A1ORXKMOEjRe4usPPWL3R6O1AVNZcDE0CnOtEzQevBMaibOVTzqRWOJzMihvMRaLKs2SPLp1y/ud9Q065LuEcWlP0qEfK+66qgVd736U5+F4P/E9q+AxBf6NP+qmCKdDSf2CQtz+kReS06DvYe+SAlP5OYC3YCwWln81711ginqFnxeu8cSTxHPPPVvynfhxgan8lMC/MXz0y4z6DD+lb+TC8CZq2jjxBJhiaBg0r8UWAl/Lbr5J+Z6bR9B92uuflCmeS1wPKPItLBSezZioVb4DNMM6LOw9ks+VNs9v9/gGUBwtOvsK+W++jin5cVwplvlzrtRkgraK+HvHeOrym8ozsnoBUyaVHMPIguVb2SMpYVvad6otbi+Qzri+2gAR4igbUOFLPqoBps8++4yBEVInf+xEP41tff+b+yz6dVg6cxqP+63cfVxgCnOVLVVXRxLVB+kfJmoQME06Jm79RccX5ftyR61KmnoDU8C5/NxwOIPUgxBXTeL70z+kQZgc0hBJIxI6V0czbR1T/4dL6uKH6ISJT1WclAO+/DhYt7Kz4Et3kgJTtl+hLWicHyS3PDldie9B4O+2224t8VtJeuotklhO3XLz9O/j0p6bHgl62Lxw43H//OtZ80Lf4KNHRR2LbX0/HXqpHHICoMQDS5DbPo4mPb1rpuLxpBxlSj7otFIXXzrrly3PrQWYAhRfeeXlQh/C35GWMUZI3MNUueICU/oF/7XkC68N2olj54R1pxzfrjcwpb60VcaVkJ0K3mO06B8Uk5TvkW9Lrn+UjxEq7cIGIoiPuX3g3gvPJq0C0yqAKZ2Kxby4ftp2//zpHPsdn7Fb9WIJGgRMSYvRlIBXnDTjlgSnzTBLUdLHwModPP++XsCUcj/44P2C31EAAQrrGBghURFlbf/kJyYYFtxCbGxRsGCts8469h3OhYP06qoBpiJ9YqHHz+n5559vT9cQZ+yUiUsNvy/9Z7H+ZeFGn5OTgrjKeSaIC0wpU6zFYVAAZ8AHFvdIUcWdURAwTTombjsBo+J4Huk17reknUHbKfUGptQVECTgHWt+pAv40RSrcH6Y/B8bYXKtBZjSTqzgZQcBoz3mCnqbhO7Rtr4xQVJgSpkCzKFxgDvgn76T/g7TDRTVA+gUH5Zdu3Y1eJaQunB4QiUH53Fpz6VbnLnDU+gveIz7zb8XyScgk9P5ODXphHMyBaEC/BuXUn46nhEOLLRmHpzCk486I2M4eY9wo93yUlAAJy4Ag9LLO4CoGMsSf5Utm8yGu2XsBQCWeH6YFJiKxw76iPnh51uLZ1diigcIpKOARuYn7pwoG57m+hL2y00CTAFxsqbAA9g2ZseHnxV4NiCZsvEK45cnz7g9JI5c+AmWb7UMRWIqvlVZHzAIY66xDlE+z0FlJuF75NOS6x/li49jTucLalfYO+HZ9IkC0yqBKZ3c57WsWWzdPPOC6SAFPfrMjMH/qPwlhw0GJ0Ctt3MzgyM+FzqouxyWMRyJF5aW9/UEppTHNj5gTya/TGwso1F0D7J2Z+HgKDYWP4lPCFDEF11Q+6oBprj+YQveL48yOf3Glw4Flc87tqJYqGHsAhjIw9eHddMnAab43/TPmaae6OiiP0qZQcZPUm6SMZG0hOhpMj4we9l6o8ygbZiWAKbUkTFFsk695GLRww1NkDN/YXKtCZjSTtww8aMSRLtsz7JN7kufBAzG3cqnPCRb6Llh4CT9SojKji+FJr5cSDtRO3DTyD0qAmEHD0h6CePQnqSRkMMIKNM/nEO+S4gR6pYdM5YvC3+VcP1dMpZ/S9ygkGNC9z4mOD3g8opbshVPfiJf1L3O6p4xa27fVBBmUI8JE5v71S8/CTAFMIqqA/3DT4Ofby2eXWCK9wp+TOSHhnJRv3GlqEFlJgGm5MOchyf6dEu5GOCx6+D6NfbLFt1X4m+22Wap9A9lCjDt2fNue7Syy1+5v+qqK8uWHZfvUWZLrn/8jMKXcbNXyaWePybCsxkTBaYOs/U7Ks4zf8T4J8XxcjlGE5YnaXAvxYlPg79MlkdY3mm8hylxXjZb5myZTJgwvuwEow5ItYjLn2zQFkyt68lRaFgLU8c33uhrJ4qrh1jr8qrJj3qh6oAk1zXiiZNnkjGJk38jxMXNEZLFAQM+ibVN1Ah1j1MHpKJs3bMt16/fB4lpImqZqL1wjCiLGnTog9+wfFj82brjZ48dlaS0G5Z/ufdITQFC+KuMUt/xE3JmwGf5bX2OgeZ40qhb6tQDqShb96gGwKtHjQ4HlOXqnfY3fsZY3LnKnZBUbT1cYCqn+yCYAIzyw1EPXsu4ow4F3bLD891331YsF111F7gH7QxV2zeS3gWmvGNeo0LDOhikMy/p/DAJ32uJ9Y/dSejOV7vy21PrZzV+qhGQrfXAaH6NuUjouOi4KA2kRwO4DWJLNMy4pj32vej1AxDCHLvXol+CgGkt8k07D9Gtpn+22267igKVaurjA9Nq8mr0tOiTIiVHjQdQXM/6KjBVYFpXgqsncWtZ6QEI7VvtW6WB+tCAeFPADgDPJ2n1e2sFpuLJA2DKbkRa/UO+7QmYptmPlfJWYKrANNWJXIkA9Xt9FjftZ+1npYHWRwOARQ5rwCK6nI5wLca2tQJT3KOhw4itRC36oVweCkzrM4cUmCowTX0yl5vo+q0+E137WftZaUBpoBwNAExRo+ASHdNy8dvjN05won8wfmqP7a9XmxWYKjDVCaY0oDSgNKA0oDSgNKA00BA0oMBUCbEhCLFef2JajkqNlAaUBpQGlAaUBhqXBhSYKjBVYKo0oDSgNKA0oDSgNKA00BA0oMBUCbEhCFH/Xhv371XHRsdGaUBpQGlAaaBeNKDAVIGpAlOlAaUBpQGlAaUBpQGlgYagAQWm/xLikCFDDFe9/gjqXV692qXl6F+10oDSgNKA0oDSgNJAUhpQYKrAtG5gPCmRajplcEoDSgNKA0oDSgPtgwYUmCowVWCq2zdKA0oDSgNKA0oDSgMNQQMKTP8lxHpvrde7PP3TbB9/mjrOOs5KA0oDSgNKA62ZBhSYKjBtiD+k1jyJtO66CCgNKA0oDSgNKA3UhgYUmCowVWCq2zdKA0oDSgNKA0oDSgMNQQMKTP8lxHpvrde7PP2Tq82fnPZjeD/mclnTq9eD5uGHH2oI5qZjFT5W2jfaN+2dBoYP/87ce+895qOPPlR+1WCAXIGpAtOSSTnyt5z5oH/WDB2WPvPO5XLm519z5sOBWVsmYXtnmK21/Y888rCZZpppzGGHHaZjaHLmxRdfMM8++0zR1b//x3Xvm6lTp5hvvvnavPfeu+bdd98xX3zxed3r0FppuiXr/d133xbRjtDShAnj6z5+f/zxu/n4448s/UBDEydOqHsdaj0WtGmWWWYxCy+8cJtoT637pyXzU2CqwLSEwdx6X9bMtnyT6XhspuRbLYn1mZezZvlNmmxZlMe1wBpNqZZZy/prXs0/LpMn/2WWXHJJC0wHDPhEx9DkzNxzz237A7Au1z777FO3vkGC3a1bNzPzzDMXyqceu+yyS93qoHOkeY7E7YubbrqxaNyEhoYM+axu4zd48Kdm/fXXL6kHIDVuexox/nHHHWfb1rVr1zbRnkbs4yR1UmCqwLRkQtYDmA4bnjNzr5wHox22azKnd82Ycy7PmIuuSRcMJ5kkSdPA9FZYYQVz3333lvRx0jwbNd11111rGfzmm2/e5tsadQxQaWDsuTp27Gj7p57A9P7777NlTjfddGbDDTc0p59+uuncubO5++67Qsfos88GW5pde+21Q+NEbX9bjdehQwfbR2lLnslf6Idw+umnt+NZL2CKpB3+BSCef/75zSGHHGLpBxoaMeLHUPpoTXzv88+H2PYhOR09+rfQNrVVWm7UdikwVWBaMhnrAUwvvSFjJaTb7t92gKg/yZFMwdRvuOH6kj7247bmZyRzyy23nG3rk08+0abbmnScrrjicts/9QSmm266qS3zggsuiDwmSMKg2TnnnDNymqR90lrTzTrrrLaPBg4cUNc+mnHGGW259QKmr732qi3vP//5j5k0aWLktrY2vrfddtvZdvbocVXkNrZW2m0t9VZgqsC0ZDLWA5ge2TkPTLvfqMC0tTCLsHq+8srLlrEvvfTSJpNRVYygfmoJYLrIIovYcXn99ddK5nhQHXmnwLTy1nt7AaZ33fVfSz+bbbZZZPqBhlobMH3++T62ncsuu6zhJztsbuj7ynOjVn2kwLSdA9NfRuXMs69kzdMvZc1vv+cJLyownTgpZ/p9kjX3P541r7+bNaP/CCfcKVNz5oefm6+dDmkGpu77Eb+E5xGH6P/552/z/ffDzahRvxr0H2E+GA+I4cDYsX+aJ574P/PMM08X3kn+P/zwvU3799+TQ5kUDIz8uSiLtFOm/FN4x/utttrKMjz0lySuhOUkEBKHrTSpE1tOPXvebZ577tmS+kocqcOnnw4yDz74gEF6iQFFVGZLX7388ku2nPfffy+yQcCxxx5r23nMMccU6uvWyb2nT2nfTz+NsHGbmqaafv0+sFuWn3zS37htdtO597/+OtLmIWPJt19++dk89FAv8/jjj5XdZqQvvv12mB17+ggduihluuUnuU8KTOOMyfjx44roTHRLoX2hKcLffhtVNE48y3fmAxLT2WefvfBOvv38809F6ZL0g6SpBR2QF3Wjzmx1Y1jGXJcyyoXjxo01AHassu+5p6flDyNH/hKYNmq/Upc0f8ySSEzhSXH4wY8//lAY9/POO8/SAhJFoQEJyVf6t1Z8T/KLGgrdMj6koR4Y+DGm8BR4S5S84N+ou0D3cYwT4WGoNHBhSBWlLI0TbX1XYNpOgSlA8cRz8+BQDI8IL+iRMbfcW974ibTEm2PFYsOl2VdoMudflTFTm0qJr//gfJ5uWUH3C9bI+AnGBKPZZJNNzMYbb2zveV5ppZXM119/ZUSaxLu11lqrCOxtsMEGNn737peGMpu+fV+3cZCeCGPE7Qj5Rbkee6x3YN4AJ0k/dOiX5qmnnjSLL7544R3fMKoJMjDCVRNbsJJewu23374EjLgMEqC30047laQDnAD23LhB96KHdtVVV1aM++qrr9hyFltsMQPYXnDBBYvK5f2gQQPL5rPFFlvYNHfeeYcZNuwbs+aaaxblMcMMMxikPX5dkQZKXaVvCFFDABT78Wv5HBeYJhmTq6/uUdQPbhvd+1133bWorTvvvHOkdCuvvHJRumr6p1o6AERuueWWJfWeY445TO/ej5atJ/0011xzlaSddtppzQ477FCSNmq/0sf8SFTTL+XSxgWmSfgBupYurYTduwCuFnyvXLvDvgnd3njjDfaH1K87+u7+T1hYXuz20FZ05cPi+O9nmmmmQl/tvffekdP5+ehzKV5QYNpOgen+J+RBKUCw08UZc/M9WXPQyfl3GCMBGoOs8v/+J2c22ysfb+G1msyZl2bMHQ9mzblXZMzi6+bT7Xtc6fY8klBAq1yrbZWPu+PBze/4dsl1pWmTTFwBpjAbgOe5555rpUA8I0kCoF544YUFy+lHH32kwFiQTBKv3NbO4YcfbuMQSv2QNpx11lmFa5lllrFxWEDd99yHgS8XmAJKAYe4M9ljjz3MCSecYLbZZhsD8MIVkZRLePLJJ9uy+PM/8MADzfXXX2eQ1K666qr2PeAWKbGbhnsMLBZYYAEbZ/nllzdISWD0RxxxRMHYohyzZiGmr7iQQPv5+88CSAAQtIsy0YG87LLuZt1117X50GZAq59WngWYUq811ljDzDbbbLZf6J/dd9/djuk555xTlB5XVrKwk/7yyy8z6JQB2qk7enRIiaWMWodxgGnSMXnjjb5FdAad0LZDDz206D0SQrd90LvQ58EHH1zoD3knIQDNTVfNfTV0gJGK/NDgCaJLly7mmmuuNgBuoUVoOKh+YhBG3/AzhteC22671ZxxxhlmtdVWszTpp4var/STK8X386n2Weg3io5pUn7A/JfxlnnGj5u8k9A1fqoF30vSNwJMmfOAxH333dfO6yOPPLLAuzDEipK38IE999wzUnzyVGBaCiij9HWUOApM2yEw/WhQXno510pN1neoSyjX/bdZsrn3MaUgscft+e+rb9NkfhpZTJioBSz2LzhFPcDN178H9AJ+URvwv9XiWYApf9GyVctixcLFovTXX5NsuSzSvHMZGD76AEe8f+utN0vqx3fAEN/ffvutku9S/yS6Vi4wnW+++QzA19/2R5KKpFDKeeedt21dAFcsovKekC1TWWCwyna/cb/tttvatDBkfxsU8EsbaatsvfvpXWkJ2+L+d/9ZAAn5rrLKKkVbYGypbb311rZMwJSfVp6lPfTPeuutZ3CULd8Ix4z5w27pyTsAOVbFlHnllVcUxSUOIJZvWKJns6U0L/lUE8YBptWOidQziS5kvXRMq6EDGS9+apAsS3sJL7nkEjuW8847b2Enw/0uBmFHH310UTqJA9+Q+7AwSb+G5RXnfVRgWg0/cOsD2Gde8FPsvq90n4TvVcoz6LsAU+roH+oh+rEIIaL4XD3ppJNsWxFiBJUV9E6BafH6H9RHSd8pMG2HwPTwTnlQuN/xpYsw2/BLbZCXZvrAdMzYnEHCCqB858NgQInUk+/bH1iat0uk9QKmuHaRcl966UXLfJCWyjth4j7zFb1JJIcSV0KRuqy44ool3yQOYRIG7QJTFt4oelK4AoI5syi75ct9nz7P2e8sbK7erPQHqgFB0lTSixTzoosuCsxbDAco3wfQUr4buoAEXTD3G/cAa/Li5yFsW1SAKXFcgO7nJc9Iy8kTnV9554a//z66IP1ARcP982yjvQAAIABJREFUVqv7qMC0FmMidU4CoFoCmMahA+hXfgqD1DX4ueGHhfHGD6j0hYQiaXV3SORb1DBJv0bNu1y8qMA0KT/wy24twJSfU7/u6JvCH6CDcrsvkg7PKcRFlUjeVQoVmCowjUwslYgp7Hu9jwitd3luu9fbOQ8e7+0dDC6P7ZL/7gPTN97PS0vnW63J9H0va958P3/xnot39/TOx1mwQ5PJZsMJt17AFB1TaTvSTZgPYEveoVvIOx+0iCSQRdDfnhPdtkruRaoFpkELq9RbQldxny1JDDq4cPXCBRDEoEl0TwEekhZVBtqOA20/naQVSQJtkXRu+L//PW7zQDLhvg+7d4FpkN9AgLkAjzfffCMwTwGme+21V+B3v2yRkiEVD2unxGEx9tPX4jkqMK3FmEh9kwColgCmceiA3QJolitMfxBpO9/dXRDpE9Efhy/40laJUylM0q+V8ozyPQowrYYf+HVoLcC0U6dOgXNWdPPxGuK3zX/GEBKamWeeeSrGlbRi+ETIz6281zB83Y/aNyoxbYcSU0AjUs0X+gYDU5zc890Hpnc/3LzNz/dKF0eNhhFivYApOplSBwGbgBB5h74WDCnorxv9Rb65Eh22jTGS4G+80sJWLTBFeib1DAvRR6SOUS/XmGm//faLnA49s6A6iBEY5YdZNbvpBJiyyAJC3W9yLz5RWSzknRsKMEUS6r4Puxcd2ih9FMWzQFg55d5HBaa1GBOpRxIAVW9gGpcO+MliHMulEwk5eoPSFxI+/fRTdv6SB3MY6eKZZ55ZorMt8YPCJP0alE/cd1GAaTX8wK9PawGmYT+T7Ggxzoy53zb/WVRA2KXyv+lz+DqeVt8oMG1nwPSfKbkCoPygfzAwED1TH5h2uz4PWFfavMkAUitduJMKI9x6AVNcnUgdsCSFUbmnEwkjd6WoEv+WW2628V0/fhhLkEcUJflqgWkUIwcBetQJg6fbb7+t7PXVV0ML/YHUiHSA90rpXEAr/UPISUHkwVVO31bSSH0Bi/LOD0V94NprrwmMI8D01ltvCfzu5od+sdTvxBNPrNjOlt7Kr8WYSPuTAKh6A9O4dIClOeNZLh07GcTBW4P0hRsiiYcvCNAT+oDuAL5u3KD7JP0alE/cd1LfcnxB5hdtissP/Pq0FmAaZugWB5iK0R8eXPx+0OfwdTytvlFg2s6AKYQk1vN9XgsGpriCCpKYsvXP+1W2rN6JemsApn/+OaZwzvg333xtJXxY6sP08SdaaVJWC0zZtqxUBq6vZGHFx2Cl+O73gw46yKYN0qN145W7Z+tQdK1cyXJYGlk4kVaFSUzFdQsgJCgfAaa4iwr67r8T12DoBvvf6vUcVWJaizGRNiUBUPUGpnHpQE4jIl2YodrZZ59t6Rqre+mLoBCjGOgRK24xdgT8VZp3Sfo1qPy476IA02r4gV+f9gRMUWeCjx5//PFlacbvI31OB7QqMG2HwHTj3fPAE4ln0MQ64t9TmXyJKQZPAFN0TMvpjwbl6b9rDcCUOnM+NAwLl0aiowrQieJIW9zXlHO35PeLa/xUaYEkLRJBFmnqGNfdkWxfBW15+vUq9yw6t7iaKRePbwJMqS9O8f349Kv4IwyTwMYFplI/wKFfXr2exbgCrwPlyqzVmFBGEgAluwoAtXL1DPqGmgsOzuUSbxhBcZPSAT+I0A5XmMP/Aw44wH7HfVhQ2UHvcHkkdBe2NSzpRAc6bd+3Up6EoiceNi+IVw0/kHIkTApMk/A9ysTQU2iHkMNBpC5BoVjl10JiigEoNIVbuaCygt6xuyK6/FE8kgTloe+Cga0C03YITE+5IA9Mdz281HL+r8k5g3/SIInpuPE5s8ja+W+PPBUMaqNOtNYCTHEXBcNCkR7JIvdRABj9gL4i8X2fmuX6KC4wJS8BXkcddVRkpko6tjSpH5IYTkMqV69y3ziIgHx8zwZBaVxAgqqEH0es/JHChhkUxAWmAvZwrh/Fy4Ffp1o845OWPgIslgNstRoT6pwEmOIWjHpyiUu1qO3HHZmkJQwyapK8ktIB1tYYqJA/YF/ykxApKD5y+R5Voi5p5aQ26EXeBYWiA+37Eg6KW8t3eBihXZV+sJLyA7+uSYFpEr5H2exQ0T658MXq18l9rhUwRTeeMvEBHfSz7Jbp3stOEWnVwX4wwHT7K869AtN2CEy/+jZnOKWJk5v87fxzLs+D1iBgCmHhTJ9vK2zaZPCH6hPb5L9z5sH/y5pKwLW1AFPaJ6cFybF1SG38dgc9i64bjvajHlmXBJgOHDjAMtXpp5/eBG1XkyeGVBdffHFJvWGoMFbAXpAECgMvgCdbvEFt5B3SJvoGP6qVDMJcQIJzdI5/lXw5JlL0S4MsqiVeXGCKGyux0D3llFOKXGZJnkg8kLCVA40SN0lI38pCBrDwfca6edZiTMgvCTBle1zSBQE/t57+fVJgGpcO5Edo0UUXtae4ST2gc/SIoWcObwjqY0Cn6xxe0jL+GDWSliNO5X1QKKek7bPPPqnRS1C5p556qq3f6quvbo8ZDYrDu2r4gZtnUmCahO9RbksBU1GzAei67a90L/NZgWltQSn9rsC0HQJTBv60rnkAipP9A07MmPOuzJht9su/k5Od/K180mUyOWutDzgF2O52eMacfVnGdOmeMXselTGLrpOXqF58bak01p3orQmYukcSuhb9bnuC7gGjskWEFAfFeo485Apy3E8eSYAp6Tg5SRZWHMUD7JDUAnJY+GGeG220UQnjBRhiicp3tgpxwUQ6/LhiJCZ6bZWMQnbbbTebRyVpkwBT+gXJE0Ys6PjhlkpOyuJduW28uMCU/gGYiySN/sDYAck3oXukKTqzQWNZi3fiGJ6+xtcmEjAunxZqNSYCMAEqcerPiWHUkQsDEgyFoNlKHgtOO+20QjrShkm8qUs1dMARwEKzSE8Zw86dO5t11lnHls9PUtAPGuVSL37goG1+RM4//3z7U8ZPFd94X0mqjssx4nKh1oOEUuY14CpOX8eJi2RP+Allc6ob9IPqgp9PUn7g5pMUmCbhe5TLwRjSr4T8RLr18e9rITFlrPFdSnnPPvtM2fL88hWY1h6QSh8rMG2nwDSXy5nuN2bMPKs0u31aYI0mc/sDWXsaE8AT8CiE4ocYQokjfuLKtdCaTQYH/kHSVDeP1gRMkQIK6POPc3TbFHSPnihHhLKQuows7DzvpMCUsjksgGMVXebOPTqoWN6H6U+xZYsvQNGxc9PDtFkgKm1xicrDQgstZMqBOwEk5AsA4/QntzxAon+Sk9+vSYApeSDZZTEDmLhlcs8Cj8eFMIMavw5Jn/EkwI+DSwtBC2ItxiQpMGWxvuOO260LNX4SpK/cgymC2i/HOhLf9WQRFLdaOgCcMq/8sVxiiSWsr9qgMnlHGrdN0jbGg63jcmDazRPfmJzQhSTerUOlHQM3jyT3GDjys4m0WOoOPQXllZQfSF5JgSnp4/I90qAjL20i5AdA6hIU1gKYwocpa+WVV45kN+DWw53DjIn7Te+rA60KTNspMJWJg/soQGS/AVnDqU/yPmo4anTOOtp//d2sQUVgytT4eUQtq6XiCejCICTK8XYtVU8pl0WboxU58WnQoIGBRzNKXDcElKFrip4nbUZqCVB245S7R8cUJv/AA/eHpnEBieQFYESiWQn8SvxqQ4AzW7cAQvopbTBRTX2rHZNqyo6TFt1PAcLQgC8F9vOqFR2wXY+aCRL9IFUUv1yeoWnUcThlDBpAosycCYrbFt4l5Qf1bvvll19WAKb+gSdp1YVdLOgVnpdWGZpvfEygwLSdA1OdNJUnzb777muZV6WtzPbel7iqYUs0yCes9E0QIJFvGlamxUbtIznal0Xe9R0cVl+lg9Y71mFjWu17dnWgH653330ndaCIBwrUPqr1SlJtuzV96VxQYKrANHUG0FonHlua4tAbZqkuQUoZSNyxbS2ABElKkgv3MXH7pC3Ev/TS/METzBOk0JXa1FrooFI7wr6j8pOEflA1CMuzLb9nF4NjjaGfHXfcsV32QVse37htU2CqwFSZwL80IJMH5X10Heeff/7CH3wcl0+Sj4alQLa1ABIWyCTXY4/1bpfzCTUODJHYXYhC962FDqK0JSiOnBAXl4bQdQzKr62/++CD9y39zDvvvAZJZltvr7avdG1w+0SBqQJTZQIeMB016teC+yPO0g47GtOdSHpfntFI/wBI2D7DaETeNWL44Yf9TJIrqluwRmxzPevUWuggaZ+g75qEfj79dFBDz4uk/aHpovFH7ad8PykwVWCqjNADpsoclIkqDSgNKA0oDSgNtAwNKDBVYKrAVIGp0oDSgNKA0oDSgNJAQ9CAAtN/CXHIkCGGq15/SPUur17t0nJa5g9T+137XWlAaUBpQGmgLdCAAlMFpnUD421hwmgblPErDSgNKA0oDSgNpEcDCkwVmCow1e0bpQGlAaUBpQGlAaWBhqABBab/EmK9t9brXZ783dW73HqXJ+3UML2/We1b7VulAaUBpQGlgbRoQIGpAtNU/5AUmCrzSot5ab5KW0oDSgNKA22PBhSYKjBVYKrbN6nSgC4cbW/h0DHVMVUaUBpIiwYUmCowTRWUqMRUmVdazEvzVdpSGlAaUBpoezSgwFSBqQJTlZimSgO6cLS9hUPHVMdUaUBpIC0aUGCqwDRVUKISU2VeaTEvzVdpS2lAaUBpoO3RgAJTBaYKTFVimioN6MLR9hYOHVMdU6UBpYG0aECBqQLTVEFJo0lMx4zNmc+/ypoffk7GVEj/yeCs+aB//pr0V7J80prQmq+Oh9KA0oDSgNJAa6YBBaYKTNsVML3jwayZbfkms+dRmVjtHjI0a7bomLFpSS8XILU1M4DWWPdxf080T37xnjn35fvM0U/daG7/8Hnz2ajvdRxU8h9IAz/+nDO33Z+11+0PZM0/U4JBy+g/muMN/zE4TmucL1pnHcvWRgMKTBWYBjLzWhFyo0lMkwDTqU0502G7PBhdcv0mc/SZGXPO5fnrp5HK9GpFK1Hy+XXiGLPp3Webha46pOhapMeh5qFBfVOl5Sj1a5Q4p16YsTTb6wn9cXr93fzPqPxM3tM7uE8Gfd4c79lXguM0yvhqPZTvtmUaUGCqwDTVxbzRgClb8Bf2yJj7H4++8Lzxfn7BmmeVJjNpsjLElmKIk6ZMNhveeYYFpFvdc5555ssPzIBfhpmur/Wy7xa+6lArSW2p+jVSuR2PzUv3b70vOp03Uv1rWRcfmK6+dZPJZErnsQLT0j6p5ThoXtq/UWlAgakC03YFTKNODDfevb3zwHS7A+Nt/7t56H31TPmxz962AHTFG483I8aNLqLbTi/cVQCs2tc5o8C0md5cYDrvqvmdj8eeLQXsCkyb+0znkPZFS9KAAlMFpkULfK2JsREkpuMn5MwffxZfEyaWZzwjfslZAymMpC6+Ni992u3wTOEd77mmTC2fT5z+/PHHH8z33w83U6b8Y8dk3Lix5vnn+5iHHuplvvji81THKU49Wyrung9fZsHnua/cX9QX/zRNKUhS2eL/9Nfvir7Xqr4//TTCjBjxo73++OP3SGX8/U+eTlyVj6ZMzrzfP2ul9m/3ywZK76TOv/2eM6+9k4/bb0DWhBnbQYdCk4Q7HZKn2e43ltJskNT/19E5M/K3nKFuUraE2Wz+G99zudLvxBs3Pl/+72Oav0+clDN9XsuaR57KmsFflgJBmWMyh5inL72ZNb2fyZqhw5rzkXokDV1g2umifL+st3OmpC1RgSn9S7tQkxjwWdZM/ju8rjIutFXq//OvOfP4c1nz3KtZ2+fyvlxIX/b7JE8HtAd92HLx9Zv2T2umAQWmCkxTZXCNAEw33zu/GImOGWEl46f5V282cHLT+fcsTLViALPMMouZZpppzMCBA0znzp3NdNNNZ595x3XKKaeYTKapZuXVqt71yGfM5PEWlAI8X/qmf1EfXPnW4/bboj0Os+EVbz1W9L1W9ZtpppkK47H33ntHKgPgCc0ss1F+3ACKi6xdTFurb9Nk0GN26zlqdM7sdXQp3S7YockCNzcu9/0HN+tH+jTqPz/xfCnNCr0HAUhAq+QBAPXL5vnym/J1PbxTxgDG9zs+Y+Zeubidx51dvOMgZX76RdbqbM+xYnH8M7plyoL2oHoEvXOBKeNBf9MewKUbvxIwpR92PLh0TBZas8n8X5/ivCRfGRfGnB+CHQ4qTo8E96Eng9OSB8D2gh4Z4/fN7Cs0mfOvypTQjZSrYTCdar+0jn5RYKrAtIg513riNgIwvfbOrDm9a8Ze2+6fXxgqAVOkpDB+LllMWNDknYSuJKzavhNgus8++5g555zTHH/88eayy7qbHXbYoQCIHnnk4ZqM1+jRv5n77rs31jV27J+27F69HoyVbujQL6uu85BR3xeA6c/jm6WVX/3+k1n86sPNNveebw5/4nob59Q+d1RdXtBYVgtMkQQCiNbavskc2TljTjw3YzbdM0+PrtQNaeFSG+TB0xrbNlmJPVblx5+TMXOulH9/8z3FYAaJnNAk4Wpb5eMBpNz33AeBTwGJQd/iAtOTz88Dqa32yRjuAaurbtlktuwYDEwPPiVjFl6ryZzWNWN63J41exzZDN6QLAaNRZx3LjBFUn3fY/lx8OtTDpgiCV56w3yfrrxFkwWLN/bMmn3+1eVlXBkjv14CTPmhgOcID7nsxoxBaku6uVZqMngO8NMC8DfbKx+H/jnz0ozBePPcKzJm8XXzddn3uOI+9fPQ59J+1T5p/D5RYKrAtIQh1nLiNgIwdduTxCqfBYgFZP8T0l0EBJgCSr/88ouicTn44IMtON10002L3rtti3P/4Yf9CmBXJLKVQlEnmHnmmWOlvf3226qu8xvDBxeA6cQpk21+OZM1uz90qUFSyvb9mS/2tHH2731V1eUF9WU1wHS+1ZoMkjXcFfnb4a++nS2SfO16eB6MHHBipmSb+JW38rS44BpNhi3hoHryLq6Oaa2A6RLrNVkA9+b7xSANFQHa6dZXygR0ffVtcVuOOiPfB9seUP2c84EpUsgVNs0DO7ee5YBp16vz9eFHAWm2244rbs5/Ayz6KkICTOEfgEz3Oz8jIr299IbSdgLSSUcc/wf4l1E5s9i/4FQ9CBSPhzs2et86+0aBqQLTIiZb64mswDQ6YxBg2qVLl5Ix6dv3dQsG559//pJvScZs+PDvrEQWqWzUa+TIX2zZJ598cuQ05P3mm29UXefHh7xjQScgVNrba1Bf++6Svnkp8qVvPGqft773vEIciVuLsBpgCsA44ZxS8OHXC/BG3EXXabJ6m/53nkWKhtQt6DvvWgqYUveHy2xNu/UVYMpWtfue+7c+yPcD7tn8b3GffWBKerwVUNddDmsuOwyYIrnkR4D4GEL65eMXFUDOd3483O8uMEV/1v3GPWNIukNOba4H7znIQ8p858PSdMRB+k3a7dUos6Rf/X7W5+jrUCP0lQJTBaapTmoFptEZggDTp59+qmRMvv12WEFK+c8/f5d8bwRmkmYd7h/wqgWdS193lG37b5PGmhVvPM6sd0cnM3lq3ljsmneesHE2uPOMVPpHDJ8If/+92CtAWNtFxxQA8dnQYIDhpkVyRlwOc0Cax4W7Mrn6vpc1nS7OxwF8umnd+5YCpgC0IFdMbt3kXoApRkDyTkIc3NMPXGEO8SVupTAImKLvKWDy40/z5YcB06+/a65LmNHRMWflxwT/sW59XGAapJ/7wP/yAHmb/YrTiYs6JO2MuU8LvMMfK/2DmgAGam65eq/90ZppQIGpAtNUGZoC0+gMUoDpxx9/VDImSCtlq110PVsz44lb9z5DP7SgE+OnqZmp5oRnbrXPbw4fXOgr8We6y4OXFN7FLafW8V1g6uqRhpVz6Gl5gCOgrFzIFm9YPi0FTNErDauT/16AadDpaVH0Wv38wp6DgClxr7otD+xERScMmOIVgXHAmMtXw5AyL7omP267H1HcfgGmC6wRPFb/65PPe6PditPd/XD+fbnxd7+VU+uQOmoYnRdrX7VsXykwVWAaeSFJMlkVmEaf4AJMBw0aWDIm7R2Y9hsxtABMew9+y977Rk6n9bnTvj/iietL+i8J7dYijQBTpHNR8hPjPLaYASflLoypwvJsKWCKIVNYnfz3AkyTGlz5+YU9hwHTseNyVu8XC/cvvs6aMGD66NN5kIhBWlgZ198VDDAFmGKVH5Q2DJh2uz4PdFfavKksDQh94E4qKH99p/3SGmlAgakC01QZmgLT6IyxnsAU8LvccsvFuoYN+8bSyqqrrhor3cMPP1Q1jX07ZmQBmC53/TFmlZtONLiQcpnuAY/1sHHOfuneovdunHrfCzAVd1GVysdaH0kYFviV4pb7Xktgit9Okc4FbUdTD9ddVLl6ud9aGphSFzFqwtgqDJjKtjrW82Fb5pwmRx/h4sttY1JgKod6rLJlMKB1y9D76DxW+6p19JUCUwWmRYy01hNXgWl0RlBPYNrarPKnZKaa5W84tgBOn/j8vSK6nZptMstcd7T9ft+AV4u+1YqmMUB77bVX7TV48KeRyogLTMXC298SjtsGcWPku5UKy0fcU+FOyY/DMb4CTJEy+t95bq3AFAt79Dhxw/XkC83tdC3dv/2+GZhjDR/Uflxi0Ue4pXO/JwWmGDyRH3ULA8NuOXofPC7aL62zXxSYKjAtYqS1nsgKTKMzhnoCU06X4qSpONfUqVMsrWD8EyfdxIkTakJjXV66xwLP9e/sXJLfW99/Zr8tcc0RZuzftSnPnwvVWOVHlZgKIEGfEQMgvw5Rn/EfCrBBIhglzca75+MHWdRfcUszYGtrwJS+6XxJvu3i7YB+c4Ep7qXENRPW/H5/choXrsBI1/PR4u9JgSmSaTmIgZOz/DL1Ofnc0L5r/L5TYKrANFWmp8A0OhOoJzBtjcz5k1++KUhM7x/4WoFux/09qXAk6bFP31x4X+s21gOYUueDTs4DJQ52CJLQIeXDcCfIaEjaLDqPONrH9ZC8DwuP7ZIvE+Ml3CNJPHQvxXod4NUWgSmqCmzT0z65XGBKX4ih1PKbNJlhw5v7B2MoOeZ02Y2bSvzOJgWmlCk+l/G5+tGgUnCKMd2D/5c/8lXGS8PmsdG+aL19ocBUgWlhEUpjIrc0ML3mjqxd6FnsubB+ZfFBgiXvJAxrf70d7KvxUzhD7db3EQtOF77qULNrr0sMBlCr3nyifYebqBHjorlxChvrcu/rBUw5BQhH7tApzucPPCljJZ+nXJCxPivlqE+sxcPqCxjFFyp5IM3DHREnKnG9+1FpOgFQxOdkKsAW8wJfmmd1z88ZvrVFYEofclwq7ZPLB6Y4xpcxQXqKTuo5lzef3MWRoUFHi0q/xjV+ok643dr7mHy9yH+3wzPm7Msypkv3jD1FSsaXU+rC6EDfh/MS7ZvG7RsFpgpMU2VqLQ1MxQhEFpxyYRijUmDaWAzsuveetD5McR3FhdP93Xp1MyMnjEmVlusFTKHDvybnLAgRAyGXbpGgcY78yN/Kjwv+N4/onLGAijPZJY+wc93xiznPKs3xALSXXJcvR9K2NeMnmfOcPIV1vrTTB6bEA5zSn3IsrMTFct49QUryJKwGmEo+GEKJDrCUScj4oNsaJE2VtBqWnyPaP43ZPwpMFZimupi3NDBVxtOYjKfaceE40qGjR5h3vh9i5IjSavNsxPQYvqBryqlBSDqHj8iF+tKsRf0BX+99nDU4necY0Vrk2dbyYAsdNQok1kGqFmm1FxUOADDurwDS6L6mVZbmq33bkjSgwFSBaarMTYGpMriWZHBattKf0oDSgNJA66IBBaYKTBWY/ksDyrxaF/PS8dLxUhpQGlAaaHs0oMBUgakCUwWmqdKALhxtb+HQMdUxVRpQGkiLBhSYKjBNFZToVr4yr7SYl+artKU0oDSgNND2aECBqQJTBaYqMU2VBnThaHsLh46pjqnSgNJAWjSgwFSBaaqgRCWmyrzSYl6ar9KW0oDSgNJA26MBBaYKTBWYqsQ0VRrQhaPtLRw6pjqmSgNKA2nRgAJTBaapghKVmCrzSot5ab5KW0oDSgNKA22PBhSYKjBVYKoS01RpQBeOtrdw6JjqmCoNKA2kRQMKTBWYpgpKVGKqzCst5qX5Km0pDSgNKA20PRpQYKrAVIGpSkxTpQFdONrewqFjqmOqNKA0kBYNKDBVYJoqKFGJqTKvtJiX5qu0pTSgNKA00PZoQIGpAlMFpioxTZUGdOFoewuHjqmOqdKA0kBaNKDAVIFpqqBEJabKvNJiXpqv0pbSgNKA0kDbowEFpgpMFZiqxDRVGtCFo+0tHDqmOqZKA0oDadGAAlMFpqmCEpWYKvNKi3lpvo1LW6+++oq59957zJgxf6TKX1qKBr788gtz5513FF3vv/9em2xrS/Vxo5b74Yf9isYdOvjss8GRxn748O/svPjoow8jxW/UPki7XgpMFZimOkEUmDYueEibuWj+jTX2gKl3333H/PzzT6nOeRbfmWaaySy99NImk2lKtayWorG77vqvmWaaaYquTp06tcm2Ru3jF198wTz77DNFV//+H9e9TyZNmmgGD/7U0noa9H7eeecVjTt0cNNNN0Zq5x9//G5mmWUWs/DCC5uJEydEShO1/9tSPAWmCkxTnRwKTBsLnLQk87rqqitNt27dYl0DBnySKn3Wuj/ee+9dc+ONN9jr4YcfCq077ZJ4//zzd2i8WtZvjz32sAvqNddcnWp5++67ry3n+uuvS7WcWvZN3LwEmHbo0MG89tqr9vrqq6Fttr1R+mfuuecuAWz77LNP3foE0HfQQQeV1KHW9D5s2DeFMV9vvfVseVGBKf143HHH2TRdu3atW99EGb9GiqPAVIFpqpNDgWl8YMq20AorrGDWXnvtVMem3oxojjnmKFk0fKmT/3z33Xe1qj65UP3SAAAgAElEQVQ4//zzC22cdtppDVLKoH4GtElb//xzTGCcoHTVvKsHMP3kk/62XbPPPrsZN25sXdpVTZ8kTSvAdMstt2yzbYzbN/yI3Xffvfbq2LGjpYN6AtMjjjjClolEcpdddjGdO3e21xtv9A0do54977a89sQTTwyNU64fdtppJ1tmHGD6+edDCvUcPfq3ROWWq1Nb+KbAVIFpqhNDgWl8YPrxxx9ZxjXnnHOmOjb1ZmBITC+9tFvRtcMOOxSYtP+N59YmMXWBKcDz8MMPDxzDtgpMjzrqKDuep512WmC7601zaZWnwLQ8X7viisstHdQLmE6Z8o+ZbrrpbJnoN0cdd6SpzFN+2qKmceMlAaak32677Wy5PXpclahctw5t8V6BqQLTVCeGAtPyDDyIqbRVYBrU1uuuu9Yy6Pnmmy9VOgwqO413LjBFz3KGGWYw338/vKRtbRGYjh37p9WfQ1L8zTdfl7Q5jf5uqTwVmJbna/UGpl9//ZXlIzPOOKOZPPmvyLTXUsD0+ef72Pouu+yyJpfLRq5vS9F7vctVYKrANNVJ0QjA9O+/J1twMGLEj4W2NjVNNe+887ZhK4etnjAjDeKx9fLIIw+b3r0ftVuzYXH9yfv776PN66+/ZtiOfvPNN8paKP/22yhbR0DMM888bZkW26E8u1fahit+G9J+TgJMf/11pO2TCRPGF8bzl19+Ng891Ms8/vhjxh1nv/4sAt9+O8w88cT/mQcffMAaSUydOqWQjx/ffaY8dEihmVdeedkwZu537gWYIr05/vjj7TiefPLJJfGiANOktEcbUSGgfUiPMAahblG38keN+tW8/PJLtp1Ymkc10mArF+nTcsstV9Jev59kTv700wgbl7b26/eB3QZGHSDKmLQUHdCWqMC0Fu2U+e/2CTwJOnzuuWeNOw/8fkaS+OmngywtPPnkE+a7776tCxBKAkzjzs2oPHP8+HFF9Pjjjz8UeKoYMiHBlH6WEJ1Vvz/956QSU/TKRcLbEgZifjsa7VmBqQLTipOvGqJtBGAK8GTBXGihhWxbUTqfa6657Dvey2LqMn7azEK55JJLFsUjLvqfgwYNDO03FoNTTz21JB2SpHPPPdewCPt9uvPOO5fEl7q54corr1yS1s+rNT0nAaZbbLGF7SvctGCIsOaaaxb1HVJKgIPfD0iiGTu3P7kHSAGG/PjyzHh26dKlsJBIesbzrLPOKgJRLjAFAE8//fRm5plnNoAoyY+wEjBNSnsjR/5ixCBD6vmf//zHPPXUkxWBKXWUhVbSEvKDBOh36x90L0YdO+64Y8W4AGbyXmyxxeyP34ILLlg0LrwvN8cov9504LY5KjCttp2ANRmLoUO/tOO4+OKLF97xDaOjIJWXXr0eNKgDSXoJt99++8CfKrd91d7HBaZJ5mZUnnnttdcU0SM6qNIX5cIoeqcyX+LomErf4rWC8uGB8k7DvCRegakC01QnRaMBUxZYmMFKK61kLTjRiVtnnXXsO3cLCEkn20LEXX/99U337peaSy65xKy11lr2HWAD8BDESLbeemsbZ9ZZZ7UWmDfccL05+uijDQCB/Pbcc8+SdEg/ADlcBx98sI1HfHkn4dVX9yhJG1SHSu9QuhdDhaghW7WV8o37vRpgSto11ljDzDbbbGabbbYxJ5xwgtl9993tQn3OOecU1RWJt4wngObyyy8z6HexSDMm9HWQH0okXuuuu66NwyLPD8fNN99kzjjjDDPvvPPa97vttluhLBeY0hcyln59ygHTpLSHZGiJJZawdWLRQxoEQNhwww1t++QnK8hK+YsvPjcLLLCATbv88svbtHgNwKAEcE0fVVpA+WkiHn1UiQ4EsGEQh+scyrzgggvMZZd1L/Q3gBjJYFheAkzrQQd+HeIC06TtdIEpPxf0Cf2F9Bt6h+75EcNVk1tHpPSMBVK5Aw880P4I8UO+6qqr2veA2zTms9QhDjBNOjej8kx2q6RehMwL4adCQ/ycyjsJ2VVx0wXdVwNMhfcErQdBZbWndwpMFZhWnHzVTIhGAqaASRYI/m5h+G67XnrpxSLJ1wYbbGAZ+N577130ni0YJEIwfbZ/3Dy4Z4HgG/qFPtABcMgij389P60810PHFCfR1DPOBXiROtYqrAaYopeKdBC/mW59cOrOlru8YwGef/75bVuvvPKKwnv5DmikH/CCkM1mir4DlPjGwuWrCKBWMc8889jvgAby84HpkCGfGSSr0J1rfV8OmCalPYzLqOsyyyxTJKFlJwDwLGMd9HOz7bbb2u8sku4PGm0SmuYHQLbepe/cUCRRAHf3fdC9AFPqtMoqqxh325Q5Jj93hx56aGheAirqQQd+G+IC06TtdIEp7cSYTlQzpE5IUtk5kGdUlCiPny3fIp0fLem3008/vZBG0tYqjApMq5mbbl2T8syW0jGl7ieddJIdJ4Qdblv0PmcUmCowTXVSNBIwhVkfeeSRFdsrjJ34Qb4JxSUO39HfchkJEgze40/PfS/3AhD22muvwO/ES8pkpYwoIWAOHcg4F9vEUfKOE6caYIqkyF2Qw8pFfYIx2WqrrQLrjy4wPxLE6dv39UIcwBJgjPe+1EXKQrrC980339ym84Ep8US3E6m7pAsDptXQHpI06kLeUo6EbIvzjcsHpvyU8Z4t4TApmkiNL7roopK8KQOwJPm/8MLzgXGkLoQuMOWEKPcb96J+wxij8+p/51kAVtp0EFR2EmCapJ0uMEWqHKQG5NcPCTljwQ6P/43nPn2es9/ZQQCoBsWp9l1UYJp0bvr1S8ozWxKYspPGOKG24renvT8rMFVgmuqkaDRg6gPJIAaA7iIMA0lO0HfeiZ4X21BuHPRYSYsRjvte7u+5p6f9jq6jvPPDpEzWz6c1PFcDTMuBe7ftm266qe1zdCCRWnOJU3RCQJLEcbe5+cZYImknjp+Wd//97502DlusSFuDgKlIp5F4ibQrDJgmpT3ANXXlwkLZbb/cyza/D0wvvPBCmw6VFb+N0j8i3cE/pOTnhqiGSPm01/0WdO8C0yBfjgCySj8FAkzTpoOg+icBpkna6QLTKHqMrlHNbbfdWjKe9DuGbaJ7Cq8Jal+176ICU5l3ceemX7+kPLMlgSnGicwZdl389rT3ZwWmCkxTnRSNBkz9bcogBuBaagZ9551IJWDAEgfpA9u2MBt3K1m+E4p0Cgkdi477Te6TMllJ35rCaoAp0pYobRXdSQFO5cJjjjmmkOftt99WAFvl0sg3trmDgCl1FEk6UhKew4BpUtpzpfhhVtpCsz4w3W+//SK3M8ziHkme0P6jjz5S6MOw8RFgitQubB5QFn3LAh6UjwDTtOkgqOy4wDRpO11gCu8Iqov7DnUboccoYRSjNjf/qPdRgWnSuenXIynPbElgikSbMUIS7renvT8rMFVgmuqkaCRgisQqyoTHUAmGwYIdFl+U3t3zsdFBlMUgTB9TpGfEC9s2Tcpkw+rayO+rAaa33npL6PhIm9GvlDHByhawWe5yt/IxxiEtksZyaeQbgDAMmCKJJC+27bDyDwOmSWkPKRj5o8MsbfdD0Y32gekmm2xi0wKepS1hYTkgI8ZgHIzgl+0/CzAFmPjf5FnUB3yravkuwDRtOpDy3DAuME3aTheYoq/s1iHoXvoVWoDGwsZR3gepKgXlG/ddFGBazdz065OUZ7YkMBXDyI033rjiuPrtbevPCkwVmKY6KRoJmIq7qEqTWrY2WajD4rLtCfN3T+4AcIjUCF3BoLTo35EOQ5Gg77xLymTD8gt6j84hEqk4VxR9zqCyyr2rBpiy7V0ub/m2yCKL2D6///77IsWXdAI+llpqqcjpwoApeYpRE35tw4BpUtrjGFvoiivsKFBxI+UDUzlfHAt8aXuSkOM5Kf+www6rmI8AKPRDwySm4k4Ht0dB9RFgmjYdBJUttFHpSNJq2+kCU4ycgurivhNH84wD/jjdb/W8jwJMqU/Suem3JSnPbElgKmsIev5+e9r7swJTBaapTorWCEwBDjD2clssYmiC032XiSy66KI2Lc7G3fdyLzqEuKuSd36Iw2XKR2/R/1arZ1dyS1lRrjApcDV1qgcwFcDkql1EqTMGT/QLOqa+tX5Y+nLAVA5O4GcAcCh97lrrJ6U9wKjkFzZOQrM+MJUtRdzXhLUrynvJZ6ONNqqYjwA26szhCH7+HGIhVv5vv/1WyXfixwWmSenArxvPcYFp0nbGBaZIIQH7lOd7BQlqR1rvxLAH7wrlyqjVmCQFpkjj6SvX5Vu5+vrfZOcsiv6vnxZjQ8r27RT8eO3xWYGpAtOyjKPaSdEagakwOZjGwIEDSvqHhZJvXJyw4/YRxiG8Dzt7WdzgHHDAAUXp3DzQVZT8//prUmg8N03ce6S7nIAS52LRi1tOpfj1AKYCmDA4i2LVLHVG1UIOYgjTc5S4EpYDpoCM1VZbzY6tbFMzzi4wrYb2+JEiP1xcSX0kROdZaMoHpgLA0YPkUABJEzcUjwIYc1Q6Hc0FprfccnNJmXJkI7rYGHYF1SUuME1KB0FlJwGmSdoZF5hSVwF7+GgOqns93uE+DXrDl3M5vlGrMZF5g1FXnPaJX2t2M+Kkk7hJgSkeTugf/MwG/ZhJ/u01VGCqwDTRhIw6YVojMKVtYqyCiyH3SEbAihiRBDlGlsUZXT8kZG4/8Wcs4CAI8EpcpHMwdOKKsYx8a2thPYAplvDiReGUU04JdJEzePCn1mG5v4jik5NxQDc06EAFjOlwAyTAtRwwZezk2E6hA0L8rrrjmpT2RBqPZNQ9qx763WyzzQq05wNTysZfL3UB7AUde8upULi7AgC4dXXvAVFyspb4dXW/u/cuMMXx/w8/fF/IF+mvAHestd107n1cYFoNHbjlcp8EmCZpZxJgCm8B8MCDgtRXyBNDqosvvji0b/32xn2GhsQFGzsVYUantRqTpMBUdo7oq3K0Hdb+pMBUVB04vSos7/b8XoGpAtNUJ0ZrBaYwLLbSWayXXXZZg+HMscceWziilG0Y9PqCmIdYOcPsdt11V3ucJYYnon+KgUtQOvcdp7QIeFlxxRWtM/8ddtjBuFbjbvzWel8PYErfsBDj5J4+BSBgeIAFPKF7pCnudty+RPInRx+y2HOoAgZvOCdnTGU7jrxIVwmYkh/0JGNL6APTpLSHV4gOHTrYvMUZO0Ac1QEkSdAR5QUBU4ChSFyJiwsmDh6A5vHRijSVtBhZuf3j38t4IrXzv7nPAkzpP+qHcRA+hnFLxQEBlMU7znZ307n3cYEpaZPSgVsu93GBadJ2JgGm1A+pufAbDo4A4DOe/IDICWBRVC78dsd5loMrGEvoEdrkeuutN4vGtBZjkhSY0h7omzrCr+kr+CxXkITbb38SYMquDT+6lPnss88U9YWff3t9VmCqwDTVidFagSkMAYtVkdzAROTCirmcYQGLCX/EoiMn6fDLyDGPUZgNzOuOO263JxuxQEse5XRTo+TbaHEEyET1mED9kwAS0qG2AMhkAZL+lJAFs1u3bqG6pAARdxwkHWAXtQyRplYCptRDfJ9KHj4wJU5S2sMzAGokAkooA6M/tvLF0T8GH5ThX6iNALp9uiUPFlJAbqVtR9QS5DSscmfdCzAlX0AxPoOlPwj5WfBP9PLr2xJ0IHWIC0yTtjMpMKWe7N6I6ojbt+igIpWvh24jHhMAeyI9pR5BYKyauUlbqwGmzL8uXbrYvpKfV+rJka8y3mFhEmCKXQL5c4RvJZWXsHLb+nsFpgpMK06+aiZBIwDTaupPWhgXenjoloa5eAoqA6aDDir6cljLRjWgCcpL35UCqaR9glSUrXsWSAAl29RR8yIurp9eeeVlO7bo6kZNmyReUtqDTqknhlCAmzhlQ6fomkK3SLeQWsbJQwxfyp2y5gJTqRvgBOlZJfAr8asNq6EDAab8UCFd5uLwDL9OjdDO8ePHWTrnxCd+Fnj269koz9WMSb3agJcIGfMFF1zQgsw4xk+4hwKYMr/qVefWVo4CUwWmqU6OtgBMW9uk1vrWDsRqX8bvS8A6uqZIXoNOO6JPgwBba+prgCmqHe7VuXPnEl7a2tvZmsakXnVlV8Qdd+6jAlM8rhC/Wg8Y9WprS5WjwFSBaQkzrSUxKjCNv7DXsv81L+3/RqSB9gLYWkM7MZZCipfkClJDaUR60zq1Lj6owFSBqQLTf2lAmVfrYl46Xq13vFoDYKsFfbWGdqKuwdZykmvUqF9TXT9qMQaaR+vjEwpMFZimylhUYtr6mIIych2ztGkAwMaWJm680i6rJfNvDe3EYA5PEEku371aS/a1lt12+JYCUwWmqS4MCkzbDrNQxq9jqTSgNKA0oDSQNg0oMFVgqsBUt/JTpYG0mZjmrwul0oDSgNJA26EBBaYKTFMFJSoxbTvMQhm/jqXSgNKA0oDSQNo0oMBUgakCU5WYpkoDaTMxzV8XSqUBpQGlgbZDAwpMFZimCkpUYtp2mIUyfh1LpQGlAaUBpYG0aUCBqQJTBaYqMU2VBtJmYpq/LpRKA0oDSgNthwYUmCowTRWUqMS07TALZfw6lkoDSgNKA0oDadOAAlMFpgpMVWKaKg2kzcQ0f10olQaUBpQG2g4NKDBVYJoqKFGJadthFsr4dSyVBpQGlAaUBtKmAQWmCkwVmKrENFUaSJuJaf66UCoNKA0oDbQdGlBgqsA0VVCiEtO2wyyU8etYKg0oDSgNKA2kTQMKTBWYKjBViWmqNJA2E9P8daFUGlAaUBpoOzSgwFSBaaqgpNEkpmPG5sznX2XNDz8nm8Sk/2Rw1nzQP39N+itZPspEtd+UBpQGlAaUBpQGSmlAgakC03YFTO94MGtmW77J7HlUJla7hwzNmi06Zmxa0ssFSFXGUspY6tEnbwwfbO76+EV7/fHXeB0HlfwrDSgNKA20ARpQYKrANNWJ3GgS0yTAdGpTznTYLg9Gl1y/yRx9Zsacc3n++mlky4CyegC/Riwjm8ua54Z+aLa77wKz0FWHFK4ho75PlY4bsS/K1enUCzOWZns9oT9O5fqptXzr0KGDWWGFFcwXX3yudN4GgFdrobuWqqcCUwWmqTK6RgOmbMFf2CNj7n88+oL9xvt5Kes8qzSZSZMViLYUs3rr+8/MJnedVQCjS193VOFegWkxXXY8Ni/dv/W+6HTeUuOq5RaPXVB/zDrrrGaaaf6fvfMOl5po27hiV0RRsWBXFEHFhhV5wQI2LOhnQSygFAULChbsBV/AAhawATZA9LULooCKonSlKViQ3nuvW+a77onPntlsspvs2WR3z7n/yDXZZGaeKXdmfjuZmWyjJkz4NdD22sk2r2WuH5ZRbsuIYEowDbShKzQwzaYB6TPAAtPzr/P3+j8bWwzj3sA9+m1fDaK1XmmrXhv7lZq8aEYCTH9fMjtQHRdbvRBM3XVUbHWJ9BJMy1Z9FqMGw0wzwZRgGmiHXghgumZtXC1fmXysXZe+oZu7IK4XSGGR1GPPWaNPjW6KJq7hOo4tW9PH4+dhnjNntpo1a6basmWzrpPVq1epQYMGqr593+MrPBVXr48brN6eMExtiW7V5fPPigWhgum8eXPV3Llz9LF8+TJPz82mzZZOzCkfkWhcjRwf06P2P46OqWjUXUNLlsXVsBGW39G/xpTbYjvoUDQJ98Kmlmaf6p6qWadR/0VL42rhkrhC2uyajcWse7gfj6feh//Vayz7y1aU3F+3Pq4GDoup/p/G1ORpqSO38ozJM4Tn9OvhMTXg85j6Y3pJPPb0lPb3pk0b9XOGupS4IpGtasSIH1WvXm+q77//TkWjkcQ98SMuntHPP/9MvfVWHzV+/Di1ceMGV78SBu6GDevVmDGjVZ8+vdXAgV9qHZn3zfM1a1brNMIWjp133lmPmKI9kGvipkurGSfPg9MUyza3ZUswJZh6alSzffAKAUzrNk5dtJRp8dM+x5UscJKFTk7ur1NSO9xsy2qXXXZJvK5r166dqlChgv6NV3g42rZtm7bDzNZusYYLG0x32mmnRH00btzY03MD8IRuDj/DAh2A4gEnJWvruHMjCvOYzXpYvDSurrglVbf71opocDP94nz8ZMuOk0bt1z4elKpZ0bsTQAJaJQ4AqN02fnd60UrrTXdHFWD86lZRtecxyflseV/yGwexOWlqTM/Z3v3oZP/3PBFNC+1O6fByDeCJ52m//fbTeXnkkUfUHnvskahb3DvyyCPV1q1bkvK6cOECVa9evSR/8Lv77rurAQPeT/JrT0fv3r2UPN8II8dFF12kli1bmhK2a9cuCT/i181dvHhRSni7ff521i3LpTDLhWBKMA20USsEMH3utZi665GoPs67xupAM4EpRkk7draOhk2sMAAIuSauORJW2kZOOq6rrrpKVapUSbVq1Uo9/fRTqmHDholOqn//fjmpr6VLl+gRH4z6eD1WrVqpbb/33ruewyDuP/6YlpM028u32MAUI4EAvBMbRFSzdlF12wNRVedyS1sbN5V0EBgtPPQ0C9KOPy+iR+x7vB1Tre6PqkrVresv9U6GS4w+iibhHlvf8nfB9SU6lvtO8CmQ6HTPL5i26RhVgMz6V0UVzgGrNetFVL0rncH0+rZRtf+JEXXnI1HVpWdMXdbMKhOU1YdfJufTroFsfptgircRAL7q1aurJk2aqObNm6uTTz5ZXzNHQvG87Lvvvvr6IYccojp06KCefbaruuSSSxLPZvfu3Rx1/uSTTyT84A/N888/p+655x51wAEH6OsHH3ywWrs2eVcJpLF9+/aJY/vtt9d+b7jhhsQ1uW8Pm02ZMEzJ88eyyH9ZEEwJpo6Naa4ezkIAUzMv2azK797LAoprWid3rGa8uTgXMAWUTps2Nalerr/+et0x1alTJ+l6tnbxStFtBMbtuqwIlteKbv7s13v27JGTNNvzWkxguvexEbXfCRHV851YyuvwoT/GkkZML7nJArNrb4sqE1iR/yE/WFrc9/iImr/IvQPxO8c0V2B6cO2IOuz0iBo+MhkoMUUA+TTrUGwCSv/8Jzkvze+xyuC8a3P/zAmYQscY7Xzxxe4qHk9O29dfD04aMb3//vv181KtWjW1aNHCpHw8/vjj+t5ee+2l8ArezCOAdrfddtP3AaTmPUzdAZTieenU6emke6Y/nHOOabI+7OXD32WrfAimBNO0DWJpH3iCqfcGQ8AUozH2cv/uu291B7bPPvuk3LP79fJ75swZekQWo7JeD7zKRNxt2rTxHAZxDx/+fU7SbM9XMYEpRv9a358ZsgBv8Fv15Iiet2nPM36ffYUFbU93d48vX2CKtPf7JBnynPKAawKmD3VJzccPo6xywPZsbuGzvS5gCiBs1qxZxvgxJ1Xg8o03Xk/xv3nzJrX33nvr5xOQa6brqaee1NcPOuggx2k4gFWkA1Abi6WWg8RFMPXejkqZ0S3eMiOYEkyTGtJcP8wEU++Ng4DpZ599mlIn//wzXXdg6MTQEea6nooxvrDBVBY+wXWaF+hUhjLHFMA25Y/MwPZkNws68TEHjDriwHZlcnz3c0zd/ZjlB/DpZBPX8gWmGDFNt5jLTK+A6ZdDU8tl5pySea2bt3h/hsz43c5NMJ00aaJrGUp4TEXBc4djyZLFjv7xih33W7ZsmXT/2muv1ddvv/32pOsSt/lcL1gw39EP/BJMc6sBKX+6hVmuBFOCqWtjmIuHlmDq/cEXMB03bmxKnWC0UjpHmeuZi/op5jjCBtNsysoEU/treaf4brjTgk6AbKYDc56d4sC1fIEp5pW6pcl+XcDU6etpXua12uPz+tsEU3MeqVv4b775Wj97O+ywQ8orfwnzwAMPaD8NGjRIyv8ZZ5yhr7u9qsdorDzXI0f+nBRW4oZLMPXejprlxvPiLDeCKcHUtTHMxUNNMPXeMAiYTpw4IaVOCKap5VhMYIqRRC/PkyzOu/jGqHqzXyztgcVUbnHmC0yxkMktTfbrAqbZLriyx+f1t4ApXr97CYPFfoDHKlWquPrv0qWz9nPCCSck+TniiCP09XTzrGXOttObEkkfwTT1+ZeyoVv2yoZgSjBNakhz/ZATTL03GmGCKeAXW+L4OaZP/1trpWbNmr7C9evXNxCNFROYynZRmZ4vrNbHSClW4Gfym+5+LsEU+6LK6K2X7aLSpcu8l28wle2izDQ5nQ8bNlTDJVbGu80Dve+++7SfCy+8MKnesFgRUIu5pk5xY29TGTHFgkQnP7hGMPXejrqVIa8XTxkSTAmmro1hLh5kgqn3xiBMMOWqfO/1Is8BFqABUnBMnjzJ03Mjr/K9gukzL1lgeunNpQPTq/79JKl9WynJi92V7amw8b/9Hj7jK2C6arVzuZn7mNrDu/0uFjD9+++/EvA4f/68lPJB/mQuaevWrZPuy24aLVq0SLouZWLOX7Wv9hc/cGXx1S+/jHeMx/TLc2eNslyKp1wIpgTTQBs6gqn3xiBMMMXXpbBdjZ9DNhzH4h8/4datWxuIxsIeMc3FBvuZOscRYywIxOb0WACUyb/bfewfCph8pKs3wD3zUsu/04r6Z14u32CKZ6Vy5coaTrt1eyGlTqBvbDuFkc/XXns16T72OpVpAPJFN7POZI/T/fff33X+KvzjzQbiGTz4q6T4zbh4nv3zwrIrrLIjmBJMA23oCKbeH/gwwbQsNMRlEUxRL03aWJCIDzssWJyqH3wVqnOPmHJaNCT1+sIbFkxio/0Vq1LjEH/ituhg2cTiJXy5Sa5P/SumMD+2PI+Yoixk26eqVauqv/76M1E+2P/0tttu09AIuLQvpsK+pgK19m3gpkyZrLD9G4DTbXN+qQdMEYA/fHxD/iDKPbolemVZlI2yIJgSTBONbBAPdb7B9NlXY7qjR2eP44xGVgeMV6tyTVy3/Ie9wT4XP7k3ruf0eVAd2PWmxLFf56YKh3nt/LcfDkTTYYyYQoNz5scVvit7crMAACAASURBVPgEGMTm89fdHtUjn20fiqoG15V86nPYiNTX7qJhwCj2QkUc2Nj/3Kuj+otK+KrST2NTw5mfNMWXqe5+1HpesJF/+6esZwZxlcdX+ShTACY21wccAjTxih6fDZavROHzwW+//Zaj7nr0eEVtu+22Ouzpp5+u7r33XnXNNdfor7shvmOPPTYFaKUexf3222E6PPzji1H4NCq+CIdj5coVjnYlLF339oRlU5hlQzAlmAbaqOUbTGURCDrVTIdbI0UwLZzGq26v+zWICpA6uYBXt7oszfWwwBRp3LAxru57OprYhN7U7lF1IgrfkV+4JH29/DUjrm5uF9WQu1fNEv1/NDAVTGGz94CYqlyjxB+A9vHnLTtivzwufhLNAE6vu+46td122yUgEaCIrzcBHMWfkzto0ECFEVX4lwOLqfAJVCyAcgpjvzZkyDfqvPPOU9is30xDurmp9jj4O/0zw/IpjPIhmBJMPTWK2T6w+QbTbNPNcIXRQJX3eojF4nqu6dfDY3qkc+bceMonTXNZRmvXxdXP42Jq3KSYwmdEcxl3WYkLr+ux1zD2N3VbDOWWV8zPxudOf/31F4U9TN388Tq1V541QDAlmAbaOBJM2cCW5waWeaf+qQFqgBrwpwGCKcGUYPqvBth4+Gs8WF4sL2qAGqAGqIFca4BgSjAlmBJMA9VArhstxseOkBqgBqiBsqsBginBNFAo4av8stt4sGNg3VID1AA1QA3kWgMEU4IpwZQjpoFqINeNFuNjR0gNUAPUQNnVAMGUYBoolHDEtOw2HuwYWLfUADVADVADudYAwZRgSjDliGmgGsh1o8X42BFSA9QANVB2NUAwJZgGCiUcMS27jQc7BtYtNUANUAPUQK41QDAlmBJMOWIaqAZy3WgxPnaE1AA1QA2UXQ0QTAmmgUIJR0zLbuPBjoF1Sw1QA9QANZBrDRBMCaYEU46YBqqBXDdajI8dITVADVADZVcDBFOCaaBQwhHTstt4sGNg3VID1AA1QA3kWgMEU4IpwZQjpoFqINeNFuNjR0gNUAPUQNnVAMGUYBoolHDEtOw2HuwYWLfUADVADVADudYAwZRgSjDliGmgGsh1o8X42BFSA9QANVB2NUAwJZgGCiUcMS2+xmPZsqWqT5/e6ttvhwWqDXYs3rURRp1s2rRR1/vnn3/mu95HjRqpw86ZM9t3WOrAuw5YViyr8qABginBNNCOhGAaV3MXxNXvf8bUshXF0ai2bNlSbbPNNho0ykMjWAx5DKtOTjvtNLXtttuqcePG+moXBg/+SmumUaNGvsIVQ9kzjcXRbrGeyk49EUwJpoF2JATTuGrSJqp2qxZRz78eC7Ssc9EwT5kyWVWoUEFVqVJFYQQtF3EyjtJ1GGHWSf/+/TRgnn322b7qPh6PqerVq+uww4YN9RWW+iidPlh+LL+ypgGCKcE00E6EYBoumN7xcFTVOj+i3vs4OwjGiBdGSx999NFAdVHWGtIg8xNmnWzdukVVrVpVa2DgwC99aaBnzx46XO3atX2FC7LsGDehjRooPg0QTAmmgXYiBNO46v9pTD3cJap+HJ0dLPppWK9sYY3OvvKWf1uzZs3Uo6U77rijWrhwQaC68JOn8uw3H3XSqdPTGjAvvPBCXxpYv36d2nPPPXXYMWNG+wpbnuuYeS8+cGKdBVtnBFOCaaAdCME02AfY3kCWBkw7duyooeKGG24IVBP2NPO3u0byUSdYaLXzzjvrPykzZ87wpYUOHTpoDTVr1sxXOGrAXQMsG5ZNedMAwZRgGmgHkk8w3bQ5rmbPj6v5i6yGLRKNq7ETY/o194TfYmprJHODh/A4TL/T/o6ptz+Mqa++i6l1653jWL4yruzHxk3OfqXRwSIp2Nqy1fK3Zm1cfT08pgZ8HlN/THcOC7+SRrgXNrVGTJ/qHk26jnvrNzrHIfarVaumoaJv3/fSagLxIL458+MqHneOMxotSZdTvqVu5i0sCY/6GTneKluMLiMOSZvpopyG/GD5+2hgTKE+zPox/eJcygjh5B408eGXMfXl0JhauKTkuty3u5u3xNWYCTH17kcxBe1I2lautuoZabeHkd+wP+WPmB45/2JITM2c615uEkZcr3UC/2vWrFYYYV2yZLFOC+Z9/vbbFPXWW30U5n3ivsSbya1Tp47WwnPPPes5DOKEHUwFqVSpkopGI77CZkoT77trjGXDsilLGiCYEkwD7TzyCabf/RzTi46OqhPR8HLY6RH9GwuRcOD65Gnur7wBXeL3rxlxBag4+uzkOKqeHFETf0+OA+Am4Uw30+KnfY6z4p40Nabu7xRVux+dbOueJ6IJIJJGaPxkK4+mHbfzjwclp1PigLtgwXwNFICK0aNHpdXE6jVxVbOelbaX+zjH+dhzFiCffEHEEYgBnkjn4WdY8AKQPuCk5Pwed24kCTgBo6ddYsVrz+O+x0c0wJt5knMpI8SPumnYJDmOvWpGVN9PnPOBOACkh56WnDZoB3C+/4nW9V8mO4d//7NYwo+Z5ktvjqqly9N3pn7qBOns2rWLrsPLL79c/fHHNHXggQcm6hT1etBBB6nx48elrVspM4x4IozfVfazZ89K2Pzll/GebIlNuun1wPJh+ZQXDRBMCaaBdh6FAKb7nRBRR5wZUcefF1FPvBBVXXrG1NlXWHCyby0LWp0eeBNMAaXwi3iuaR1Vdz0SVRffGFV7VI/o0TszPEbXcF8OgTivYHp926iGmTsfsdJ6WbMSkMIon2kLo4AdO0cTx7H1LVC64PqSa3I/HYR/8MGABFAsX74syYZpT84BYnseE1GVa0TUr1OS0/T9yJiqeFREAbSn/pV8T8KbYIoRYUDbiQ0iqlm7qLrtgaiqc7mVZ3O09dlXLX+4d/ejUQUofrFXTN3a3qoHxPHMy6n2BExRf5c3jyoAL8rk6e5RVfsiyw7qESPAkj5xEXbvY60yhd3OPWIKEA0tYZGZ3HMC03aPW3HjD8bN7az0IuwpF1rx4U8OIF9s2V2/dSJgeuqpp6qDDz5YYdTzscceU/fcc4/ae++9df0effTRCiOpdlv2388800n7x5xR+710v2OxqNppp5102O7du/kKmy5e3nPXCcuGZVPWNEAwJZgG2nkUApgCWDByt2JVSQMGeLzoBgscADZOD7YJpgfXjqiW90VTRv8wkjpjdkm8TvF43S5KRkwxCvfnP8lxNr/HSut51zqnVexmO8dUoKZy5cqOZSHxm26Pty1QBOjJlAbs1XrkmRZ4vfM/dwASMAXY4Y9Dz3diKdMChv6Y/Ip+xJiYAiiaaZBzTKtAPaMM8XpdrsMVMMV9/CFZu67kPsAX6ce9J7ullm3jW61yB9BCMxIvpmmc0MAKh7D2dGFKAq4D3JFXCQcX0xhk1LbDU6k2xa/fOhH/GOls1apVEoBOmzZVzxnFPS/bOX344QeJPyqrV69KSr+kz82tUaOGDtuuXTtf4dzi4/US3bEsWBblQQMEU4JpoJ1HoYAp5gbaH2iBI4yWLVmW2uCZYIoRsnTzCO1xm7/9gulDXVJh5YdRFugccmr6eXvZgqksWsFom5n2TOfX3maBG8AZ5SX23WBf4pOyB7y1vj81v+LPjyvTLAZ/n1zXJphizq49ToycIh1N70hOB/504DoO+6gw4uj1vlUnuG8H0/pXWXE+81JynGIbaUQ4jDoDVOW66fqtEwFTLFzCAiYzLpzXrVtXA2OPHq+k3LP7nTDh1wSYTp/+d0b/ZvjLLrtMh23atKmvcGYcPHfWBMuF5VIeNEAwJZgG2nkUCpg6fXUJIIW5iQAEjMbZH3gTTDGiZ7/v9bdfMMWCHHvcM+eUQJI5cmf3J2Dod7uoNm3aaJjwu0XQqtVxVePf+aZX3GLBGF7Jr9+QvgMxwRQLg+z5yPQbo9+YmjBsRExPpcD8U4yKoy7t80VNMHV6dY6RXYQ79+pkiPx0sHUdI8BO6cE0CoTDYYIp6kfmB7/RN6aGj7QOTHHAgbnPSHem+al+60TA9IQTTnBML3ZbwIgpVvo75ce8hk+Lwi+OyZMnZfRvhm3evLkO17hxY1/hzDh4nv75YfmwfMqyBgimBNNAO49CAFOMSgEynR5keY2LvUbt900wxWtl+32vv/2CqdN8xUVLSyDICa4kLdmCKTbUB4RgDqLE5dUdN8mabwpAw6t0fH41U1gTTM15pOnCoT5QTzJHU6DQ7vYekGxfwLTK8c6A+b+BFoCe0SgZTDF/FXHXbZx8XdKI1fZi2wRT7KAg1724mGMrcZqu3zoRML344osd48PrfdTx3Xff7XjftD18+PfaL/zPnz8vo38zbL169XTYFi1a+ApnxsFz5/aK5cJyKQ8aIJgSTAPtPAoBTLGi2u1hlkVQgBC7HxNM3Rbx2MM4/fYLpk6LlIIG05dffknDxA477OB7mx+MXmJRGCAMC73MOZxO5YFrAqaYu+vmx369a08LFLGwCnM+8Zr8zX4xBRDFgekWSEOv/sl1KWCKVfn2OPHbDUwff94aAcYiN6dwuIYV/bBpgqnsBoHrWKCFNKY7/p7p3Nn6rRMBU6zKd0qvHzB98803EmC6efMmx/icbOCafDnKy8isWxy87qwJlgvLpTxogGBKMPXV6fh9KAoBTDGH1G3EVFbMY1sfe95MMMV8Q/t9r7+LAUzNEbIZM/7xnFeUkYzSYtU7YOzGu9xBTspMwFS2i5Lrbi72HcXrcRyDvk2tK4Q7qWFuwRQwifxg5b5TurDgC/dxmGA6fWbJdWwp5RTWyzW/dZJLML3vvvs0mPodQcfXnzDKiuP99/tnnXcv5UM/2WuLZceyK2QNEEwJpoF2HoUApgAHp03UsUm6rIT/eVwq7BQjmF717ydJX+qdmp90DdGmTRsT2/x8883XnjWBLbBQvpgSMWteXFU7ywI1zK1MZ88vmA4cZtk59WJnSERdyuhlrkZMvxlu2cSuAXhtb88PRradwBSb/ePPEO6N/jV9OdjjNH/7rZNcgukVV1yh4bJly5Yp+TbTaD+fNGliAkz9TgGwx8XfqZpjmbBMyoMGCKYEU18dj9+HolDA9LV3UwEBK7QBDwAabP9jz1sxgmmbjtbr50e6OgOcPY/m73PPPVdDRbduL6SUhelPzkeNj6lK1a2V5TIvFsCJUU2UKb6QJH7trl8wfe9jq66q142oWCy1rvp9UgKJuQJTbDslo8CffJWaF5SxE5gir9hHFvewJ6s9735++6mTXIIpRkox6jlgwPu+0o9RUoSrXr26r3B+yoR+U/XPMmGZlCUNEEwJpoF2IIUCpsf8J3kDdXzuU+aX3vGwMzwUI5i+8IYFaNho39y31Uuj1a9fXw0VtWrVyqgJ7HKArx8Bvrrb5udiE3lcP+6ciEI5O9n2C6bYrkkgEHuWmnFi5FJGauEnV2AKG9iIH3Eir+ZnYbF9FxZTSZrMV/kIh693AdAB7vZdAnAf2sKCuk4vOmtP8uenTnIFpiNH/qx1sNdeeymM2kpavLgNGjTQYZEWL/7px/n5YLmwXMqzBgimBNNAO5BCAFN8NhSvmrEICntm3v1YVMkXknAN3y53agSyBVN8vQjzSuUQaMJcRbkG1w4lMq2gNIufAKPIL4AJr6CxBRK+HIXjp7HJQGfPMxa5yBeCML/Rfl9+o1yw+Ag2EC9+yz24eK2ODwHgPvJp3pNzv2CKcPIFLCx+QvxYnIT4sUn/hU2jiT8auQRTlKd8hQqQeealUYXpBEjDg/+1vtCFfMqIseQPLr4wBn+4f9ZlUYU/QBhlRZrxRwnXz/k/5/KReLzWCfznCkyvueYaDZf4YpSkw4s7dervOtyOO+6oli5d4iusl/jpJ/k5Y3mwPMqqBgimBNNAO5BCAFOMduFzk7LPJYAAB7YHwrxIt4c7WzA1R9LElpMLmDJt5wJMER8WauETmFilLvMuYf+jgenBFGGfeOIJDReYY2imzTyX1fFYuOT0YQL4xR6fB55ilfOrDtMosgFTjNJiYZVZlviyEjb537Cx5GtK2PjeTG+2q/IljvUb4wqfh5WFclhk9eizUT2lQOra/qUuCYsvQMlnT810Yw4qVvvbPzEr4UzXS53Afy7AdN68uWr77bdXgMuZM2cklaOZJqfz1q1ba+34nZfqFBevubdLLBuWTVnXAMGUYOqr8/H7QBQKmEq6AUx4heq0GEr8lGcXq6qx3U+FChV8g0lY5bZgcVxvVD92YizpM6Fh2Df3XMU0BcAmRkXN607pwBZaSC+++IQRcS9bakk8YdYJtnjCHFF8dUrse3FXrlyhdt11V1WxYkW1aNFCX2G9xE8/hDFqoPxogGBKMA20Eyk0MGXjlrlxe+utPhpM27dvH6g2ir0uvv2pZEFW0HkJo04wn7RKlSpq3333VatXr/JV988996zWzDPPdPIVLuhyY/yZn3eWEcuo0DRAMCWYBtqREEzZ6BVao+cnPRjZfOuDmMKepWY4TCvAF6EwYopN9M17PE8uK5YHy4MaoAb8aIBgSjANtFMlmLJB8tMgFZpfzKEFfGIuKeYEYzsuzGnFF6twHTs7OO1xWmj5YHr4HFID1ECxaIBgSjAt02CKLXuOPtv5U5TF8pAynfnrUNZviKub7o4mPrkKGIWmsKsDPomKzfRZPywDaoAaoAZypwGCKcE00I41nyOmbChy11CwLOMKkIpPjGZa6MSyou6oAWqAGsheAwRTginB9F8NsCHJviFh2bHsqAFqgBqgBnKhAYIpwZRgSjANVAO5aKgYBzs8aoAaoAbKhwYIpgTTQKGEr/LLR0PCDoP1TA1QA9QANZALDRBMCaYEU46YBqqBXDRUjIMdHjVADVAD5UMDBFOCaaBQwhHT8tGQsMNgPVMD1AA1QA3kQgMEU4IpwZQjpoFqIBcNFeNgh0cNUAPUQPnQAMGUYBoolHDEtHw0JOwwWM/UADVADVADudAAwZRgSjDliGmgGshFQ8U42OFRA9QANVA+NEAwJZgGCiUcMS0fDQk7DNYzNUANUAPUQC40QDAlmBJMOWIaqAZy0VAxDnZ41AA1QA2UDw0QTAmmgUIJR0zLR0PCDoP1bGpg6NAhqk+f3mrFiuWBtS+jRo3UNubMmR2YDTNPPKfGqYFwNEAwJZgG2qgXIpjG43E1f1FcjZkQU6PGx7Rb1hocdNZTpkxWS5cuCbR+zXKbuyCufv8zppatCKfxMm3zvHDKfObMGWqnnXZShx12mIpGI4Hpb/Dgr9Q222yjGjVqFJgN6qpwdMW6KD91QTAlmAbaqBcamH7+TUxVOyuidqtWclQ5PrjOM1+NaePGjXWn3bnzfwOtXzN/TdpEdbk+/3osNJumfZ4XRsf1f//3f1p7L7zwfKA6iMdjqnr16trWsGFDA7VFbRWGtlgP5aMeCKYE00Ab9EIC0+kz42rPYywgrXV+RN31SFTd3ymqHn02GmgZ5KMxJZiWjwY8H9pKZ/OXX8ZrUKxYsaJavXpV4M9Vz549tL3atWsHbitdvnmPzxs1kDsNEEwJpoE26IUEpk92s0b0zrum7IGovVF899131H333ae+//67QOvXtNv/05h6uEtU/TiaI6ZmuZSn8+bNm2tQvPPOO0PR3fr169See+6pbY4ZMzoUm+WpPpnX3MEWy9J7WRJMCaaBNuaFBKbN2llg+lT3sg+mbAS9N4Isq9yU1apVK9Uuu+yitt12W/X3338F2q6YddahQwcNps2aNQvNpmmf57nRD8uR5SgaIJgSTANtzPMJplu2xtXs+SXHhU1LwNS8jkU78kDY3Ug0rqb9HVMffhlTHw2MqT//iato1N2/hF+9xrJrLgRatz6uBg6LKYwsTp6W+1HFZcuWKvuxceMG17xJWkvjLl8ZV/Zj4yb38pE6McscC9FQvl8OjamFS9zDZpNO1JXUdbp0LVhs+Vu12tn+4qXWfdShpANpHfB5TH3yVUzNW1hyXe7DRX6xyO7jQTHVe0BM/TAq8+KwpcstW2vXWXEijtG/xNS7H8XU2IkxBU2aNuznWNz3x/S46veJZW/9Rss/0o66SlcOiGvJsrgaNiKm3v4wpkb/GlPrN6S3J/b79eurAfHII49Mmz7xjwV6s2bNVFu2bNb+8ep/0KCBqm/f99TUqb97igNxYX4pFkFVqlTJ82KrtWvXqLlz5ySOrVu3eLYn6afrTRcsJ5aTXw0QTAmmgTbI+QTT8ZNjSYuczAVP5vm+LoufAAHH/KdkkZSEwfzUTGDZ6UULgm+6O6o2bY6rq1tFE/NbJZ6W9+Vu5BavNNE5248gFz8BeCQvpptu8ZPUyQEnRRTCN2xilZOE36tmRPX9JLfQLouyrmntXN5Df4ypikdF1D7HRdTUv5xtSzp7vR9TM2bH1RmNktO9R/WI6jMgOeyNd0XVfiek6gd5bXRT1HX3gsa3WnH3eNuCXqRLygdug+uiCvDq1NgDoOs2Tk5b5RoR9fXwmEL+Eb57r+R0SjwIe8UtyWHhf99aEQ3g4s/NbdmypdbfBRdc4Jg2eziMrkKvEyb8qtq1a6cqVKiQpN+2bdt6As3Zs2clwmGOq92O0288F+azMnnyJE/hnOLiNWctslxYLtlqgGBKMA20Qc4nmGJUrmPnaOI4tr7VwV9wfck13H/8+VRgGT4ylgDJ/1wZVZ17xNQzL0XVmZdaHffex0b06JXbg2eCaZuOUbX70RFV/6qowjlgtWa9iKp3Zapdt/gyXd+8eZNq3bp14sBWPeh4gwTTzVviegEZFpHhQJ4AMl7AFLBzefOoOu7ciK6fp7tHVe2LrLIF5M2Zn7tGHaPXkrZX302GMsDYYadb6caIpFs5C5i+1DumTrskqvBn5uIbrXzjT0fVkyPqka7J9YmFdgDTpndE1RMvRNUbfWMK00hOaGDZO/rsiMJIrd2mgCniBagjfNeeMdX6/qiqVN0Ke8fDybYQB0ZE5Y/UUXWscn3hjZiGf8AtytoNTDHCeuhp1v3jz4uox56LKoBxK8Mm8m5Pq/n7mGOO0Zq744470vqTMAKmV111lR7tbNWqlXr66adUw4YNE9DYv3+/jHHFYlG9PRX03r17t4z+YZ9gmqo7qRe6LJt8a4BgSjD11JBnK9R8gqk9zVe2sMDnlbfSd7AIB2hEJ47Rtq2RkoYKMAagwj2MetltyG8B04NrRzT4AHTlHly8jsVInXktl+eFuipfRkxRfmdfEVXyuhp5xytmgScsVMtlecAuQBGgN2mqVe545X3pzVZd3to+vT0BU9QnRiRnzSvRBNK5crX1ut1Mc6/+MQ2L5jWco+5FX047QgiYoow++CJZIxiVxXX8MbK/Yu/2pnWvet1I0tSCWCyubrjTyifCwp89TZfcZN2/9rZoyqv+IT9Y8QLGMe3CHlZ+C2i+9NKLrn7EL1zxj1fw06ZNTQpz/fXXazitU6dO0nUzvHleo0YN7R8jr+Z1t3OCqXs9upUZr7PMwtIAwZRg6qkhz1aQxQimI8eXTAH4e2ZqYzTht5L7U/5I7eRRVgKmAAHM9cu2/LINVwxgitfL9vxh5BRlhlFC+73S/sYIIOLGiCWgTkDupIbWtIJ08QuYYjQXr/LT+fVy753/WWkBnNv9C5gCgO33MN8UaUA+MPfZvH/Emdb1Fx1e1WNuNMLgsIMp/iDhOkZ9MbpsxinnSCf8oH7kmumaU0m++mqQox/TP84FTLF4yX7vu+++1aC5zz77pNyz+8Xvyy67TPtv2rSpJ/8EU+d6dipbXmNZha0BginB1FNDnq0wixFMMY8QnfDJF7hvvI/XsPCDRTtOZSNgihE2L4ulnOIozbViAFMnCBJgO/dqZwAqTZkgLEYEUW8YIcQIKl5x42tVmeIVML3udv/pAkxihPXncTGF0Uccz75qaaxGvVSNCZje97SzLdHetz+VpBuL7JAvHNiv1yk/MpXFDqayjRqmrGBkH8f3xvHdzzF192NWueGtg1Pc+MKYzNn0um2TgOlnn32aEuc//0xPxIdpKk42zWuyTRV0b153O1+zZnVi4RMWQXHxk7Nm3MqP11leQWqAYEow9dSQZyvCYgRTzK9DB5/uVT3mi8IPAMOpbARM4c/pftDXCh1M3b629b+BFrBhcVEQZYRV94BBgTisPPdiR8DU6dW7W3jAKOaCYvqA2LO7GOW0hxcwdVukJHNUsYuBhP11ilVuiF9W4cs9cbF/L+7bwdR8zW9Pn/03plpIfKYbiWzV20QBTt9/v7+jH9M/zgVMx40bm+J/4cIFCTDFNlT2sPbf9erV0/5btGiR0a89LH8TsqiBwtIAwZRgGmhDXoxgevuDVgeODtutwZLVy26jWgKm17d1j8Mt7lxcL3Qwxap8p3wGDaaYV3pZM6t+sZBI5ps6pcW8JmD6+nslMGjet59j1TwWIAHsAJ/tn4oqvGLHllE4HnjGSgMWXtnDCphi6oH9Hn47gSlGT2ELeUIencLJ3Gg7mAqwYjHXm/1iaQ9sj+UUN67ttddeGg6ffPIJVz9mWAHTiRMnpPj3C6ZVq1bVtjt27JgSl2mT587aYLmwXApJAwRTgmmgDXkxgqm82kRH7faw4rUnQACrnp38CJhiBb7T/aCvEUydOxrUF+oNuwLAxQp0cwGWW70ImGKah5sf8zpGShH/edda24WZ93COfU1xP1dgilX1iA8H9iq128PvOpdbabKDqXx4AivwncJ5vSajljfeeKOneHIFpub8Vq+jtV7zRH/OWmK5sFyC1ADBlGDqqRPJVoTFCKZvfWBBA6DFLd+y0ASb7jv5IZg6N9yyKj8fI6ajxsf0wiG8Wp/4eyyxu0K6kXGpW79gKtuKff6Nsz6w/VMuwXSDsacs9t+VdIuLec4HnWKBqx1MsQ0a0oIdCsR/Nu7jjz+uRy3POOMMT/HkCkwnTZqo7WIawfz58zzZxsb+2JhfjnXr1noKl025MIxzW8ByYbm4aYBgSjANtEEuz3oulQAAIABJREFURjD9xdiY3+lVLxaxyOgUVjs7PVwEU+dyyReYYhRRXq33fMcCN7xulz8Y2GPUqR7lml8wlf1EneawYrso/OnJJZginVgwhjixUEnSLa5s+YT7djAdMcbSMxaDzZzjXG8STzp3xIgfNSBWrlzZ08b4uQJTjJICSqtXr56Sb7f0clV+9vXsVqa8zjLNlQYIpgRTz415NqIrRjBFPvEaH504PmNq7heJleSy8AkrvN3KhGDq3EjnA0wx51LmV15lW1WOFef46hO+joRtwNzq0y+Ywg70g/1KzV0ZAKWYb4p7OHL1Kh/pHvy9BZjIy6eDS/KCvUcFhGHTDqYIK1/HQj6dNv3HhwjwkQn8aXMro3g8po466igNiZ9++omrPwmfKzBt0KCBttm1a5eMNsU2wdT5+ZTyocvyyacGCKYEU8+NeTZCLVYwHTcplpiHeNw5EXX3o1HV9qFo4ss62PMx3TZDYYNpkyZN1JVXXpk4ZDHIsccem7iG+4899ljO6htzEwE0clQ7y4ItfMFJrsFFWYh28gGmsjUT0uc0/xIr7QFsqOc1a507JL9gimkD+NoX4sUXlTDn9J4nrK9bYWRS4DSXYIoyxjxR2JT8YBQVoIoFTrLoy2m1P760JfC6/4kRhW2x8CUraB6fQEWaEeewEe5gCvvPP/+chkTMN5U6d3NzAaZTp/6u7e24444KW1a52bJfJ5g669xeTvzNcsqHBgimBFPPjXk2Ai1WMEVesbm+bCwunT1cdPKzM3wyM2ww3XXXXXUHLXtJurn169fPWX1jyyezXNzOMeos2gkbTH8aG9Mr1QGJP4xyhiqMYsooOEBa0mq6fsEUYT/5KpaYKiBlg+kEA4fF1I+jrdHNw89Inceczap8M61Y/X96I+szuEeeGVH4AwEgly+f4YtUpn85xzxV7DKBvV0lveIi3QDrhUvSd9QrV65QeJUP/TmtthdbcHMBpvgML2y1bNnSMU+mPfOcYJq+Hs2y4jnLKmwNEEwJpr4adL8CLSQw9Zt28Y/PTWIeHuaWOm0KL/7osgG3a2DT5riaPC2mvhkeS/s5T3u4XPzGJ17NeGRBVqZRT3zCFHNN8WUugP3MuXHXLajM+OW8W7cXNCw2a9Ysyb7cz5ULCMYfsooVK6pFixYGaitXaWY8yZpkebA8nDRAMCWYBtqglwUwdXpweI0NajFpAB8WkBFugGaQad+yZbOea4oRUT+v1/2m6bnnnlUVKlRQzzzTKdD8+E0X/QerL5Zv2S9fginBNNBGnWBa9hsRdhSFU8f4pOvcBcnp2RqJ67mieC1/dSvnqQqsw+QyY3mwPKiB/GmAYEowJZj+qwE2RPlriFj2uSn7kxpG9KIrfACiRYeonl+Kz4gCSg85NaLnTbOsc1PWLEeWIzUQjAYIpgRTginBNFANsPEOpvF2Kld8tQxwKouW4GKB1S33RhX2bXUKw2ssF2qAGigkDRBMCaaBdlZ8lc8Gr5AavPKSls1b4mrewrjCwr3ykmfmk3VNDZQNDRBMCaaBdlwE07LRULDBZz1SA9QANUANhKEBginBlGDKV/mBaiCMhow22GFSA9QANVA2NEAwJZgGCiUcMS0bDQUbfNYjNUANUAPUQBgaIJgSTAmmHDENVANhNGS0wQ6TGqAGqIGyoQGCKcE0UCjJ14hp2HbDtscGuGw0wKxH1iM1QA1QA8kaIJgSTAmmORgxJZgmNyxsaFke1AA1QA1QA9logGBKMCWYEkwD1UA2DRPDsEOjBqgBaqB8aoBgSjANFEryNZIYtt2w7bHBLp8NNuud9U4NUANlXQMEU4IpwZQjpoFqoKw3oswfQYEaoAaogdxpgGBKMA0USvI1khi23bDtsRHMXSPIsmRZUgPUADVQOBogmBJMCaYcMQ1UA4Xa4E+ZMln16dNbTZ36e2D5HzVqpLYxZ87swGwUavkyXYXT0bMuWBfFpAGCKcE00A4zXyOJYdsN214hNjJ/TI+r3/+MqQ0bC78TiES2qho1aqgKFSqo6dP/9vUMAGQBtRs2rM8YbvDgr9Q222yjGjVqlNFvIdYp01T4WmYdsY7KmgYIpgTTQDvMfAFb2HbDtleIDdGBp0TUbtUiauzEWKCaykXee/R4RQPjpZde6jutlStX1mFHjx6VMWw8HlPVq1fX/ocNG5rRfy7yxjgIKtQANVDMGiCYEkwD7SzzBWxh2w3bXiE2OmGC6emNoqrW+RGFUVq/ZbFp00ZVpUoVDYvfffet7/B+wBRp69mzh7ZVu3Zt37b85o3+/euBZcYyowYKSwMEU4JpoJ1lvoAtbLth2yvEhrTTi1H1cJeomrsg+EauyvHW6Oykqf5HZ9999x0Niscff3xW2n/sscfUfffdp7zOG12/fp3ac889tc0xY0ZnZbMQ65tpCl7nLGOWcXnUAMGUYBpoR5kvYAvbbtj2ymNjZea5NGB65plnakjs3btXoNo309uhQwdts1mzZqHZNO3znIBDDVADxaIBginBNNCOMl/AFrbdsO2ZDczqNXE1e35cLV9pNbzr1sfV0B9jasDnMTV9ZlzF45kbZITHsTVS4nfa3zH19ocx9dV3MYU4TZs4h1/YtB+RaKpfCbtlq2XHHFWdvyiuPvwypr4cGlMLlziHXbvOCifp3PtYa8T06+ExnW65Djeaxv78+fM0IGJB0rx5c1PyJOk03a1bt6hly5amHFhAZfpLd475pbBZqVIlFY1GPIdLFyfvOWuF5cJyoQaKWwMEU4JpoJ1kvoAtbLth2zMb3ideiOpFR7fcG1X/GxhTe1S3oA0LkXA0uC6qVqxyb6gAruL3rxlx9cWQmDr67OQ4qp4cURN/T35tDiiUcKabbvHT+MlWmANOiqj1G+OqYRMr7RJ+r5oR1feTZDvIa7c3nW1JONNdssw9r/3799OAuMsuuygsTDLL0e180KCBCZgFXMrhZfGTxDl79qxEuF9+Ge/JroSl616fLBuWDTVQ9jRAMCWYBtpJ5gvYwrYbtj2zMRYwPbZ+REMpQPT512N6vudRdSzAPLFBRG3e4tyAmWAKKN23VkQdcWZEXdM6qu56JKouvjGq4x3yQzLIYWso3Jejcg3LlhcwhY3Lm0fVcedGVMfOUfV096iqfZEFqQDrOfOT0/rj6Jj2B784BL5vbW/9lutwnUZ3pbxuu+02DYjHHXecZ91ja6jWrVsnjh133FHH4QdMY7Go2mmnnXS47t27ebYt6aabrAeWB8uDGii7GiCYEkwD7STzBWxh2w3bntkoC5hi1PDmdlEVi5U0WAC8I8+0gPGd/yWDpcRhgunBtSOq5X1RPZop9+FiJHXG7JJ4zXty7mVVvoyYIq1nXxFVeEUv4TduimtQxb0nu0UT1+W+6WY7x/Siiy7ScNi4ceO08Zu27Od+V+VLeOybitHWdu3aZW1b4qJbohuWBcuCGihbGiCYEkwD7STzBWxh2w3bntkQC5hWPCqiZs5JbaCwWh6wd9olzrBngunx50VUujmipl37uV8wxVQAexwYOUVam97hnFbxny2YYssmwCFW1Utcft1swfSyyy7Ttps2bZq1bb9ppf/U54FlwjKhBgpbAwRTgmmgnWS+gC1su2HbMxtWAdNTLnReVCOjlJWqRxwXBplg2vOdVFg0baU79wumWLRljw+jugDTc68OBkxr1qyp4bBLl84ptu1pcfudLZg2b95c2y7NaK1bmng9VUssE5YJNVCcGiCYEkyz7qC9PPT5Araw7YZtzyx7AdNGNznDHFa9A/ZwmKvhJQ4TTLGaX677df2AKUY8neLH4i2k84xGznmRMNmOmNatW1fDYatWrRztS/zp3GzBtF69etp2ixYtsradLl28V5ydMOuN9UYNJGuAYEowDbSTzBewhW03bHtmQyZgesOdzjC3fkMJmP46JRU8TTCd+lfqfdNWunM/YIpV+U5xBQ2mV155pYbDc845x9G+U5rs17IF06pVq2rbHTt2zNq2PS38ndyhsTxYHtRA8WuAYEowDbSTzBewhW03bHtm4ytgitXz5nU5xwIoGTGdtzC10TLBFIucJJxftxjA9PHHH9dwePDBB2edz2zAFF9/km2m3n+/f9a2/dYJ/WevZ5Ydy44ayI8GCKYE00A7yXwBW9h2w7ZnNpgCpvh2vHldzkf/ar0exxZLTpvPFyOY7vvvJ0kn/OZvhHf48O81IG677bZq48YNjuUl5ebmZgOmkyZNTIApNvl3i5vX89MRstxZ7tRA4WiAYEowDbSTzBewhW03bHtmIypgilFR7C1q3sP5Q12sle51LnceUS1GMMX+p8ivfW9Ve97tvzdt2qh23XVXDYkTJvyaUlZ2/06/swFTjJJixLR69epZ2XRKB68VTkfKumBdUAO50wDBlGAaaEeZL2AL227Y9sxG0ATTy5pF1abNJQ0EQFVeseOzn2Y4OS9GML3iFgu2r28bTfqMquQpnYvFR4DEu+66y7E80oXFvWzAtEGDBtpm165dsrKZKU28X6J5lgXLghoobg0QTAmmgXaU+QK2sO2Gbc9seAVMsV3UPsdF1EkNI6r9U1GFT5RikRFGFutdGXV8jY94sgFTbLbfpE006djzGMvWhU2Tr3/yVQkQy9ZVpV38NHxkySdK8QGBC66PKkA5jlWr0zfK+CQowHT33XdXa9asTqv/6dP/VlgwZR477LCDDl+/fv2k6x9++IFjXFOn/q7944tRS5cucfRj1ifP09cfy4flQw2UbQ0QTAmmgXaU+QK2sO2Gbc9smAVMAaLY7umgUyxABJDufnRE3XhXVG3Y6N6QZQOmv/z7zXvYyHQ883LuwRT5//anmLrkpqg6+uyIwh6tko7FS93zKuUGqAScvvhi97T6HzdurPYHv5mOJ554wjEufM4UYVu2bOl4X9JEN3O9sYxYRtRA2dcAwZRgGmhnmS9gC9tu2PbMxtkEU1wHaP72R0z9MCqW9MlPM0x5P8eoKRZAHXnkkQrfsQ+qPFauXKHntFasWFEtWrQwMDtBpZ/xln0IYB2zjgtNAwRTgmmgnWW+gC1su2HbMxsSO5ia93ju3uncfPPNqkKFCurLL78I7Bl47rlntY1nnukUmA3WsXsds2xYNtRA8WmAYEowDbTDzBewhW03bHtmY0swLb6G16w/nrP+qAFqgBoo0QDBlGBKMP1XA6VpGAimJY1KacqRYVmO1AA1QA2Ubw0QTAmmBNMiB9Mnu0X1Iqdb2wc3V5IdRfnuKFj/rH9qgBoISwMEU4IpwbTIwTSsxoJ22DFRA9QANUANBK0BginBlGBKMA1UA0E3YoyfHSU1QA1QA2VHAwRTgmmgUJKvuZdh2w3bHhvhstMIsy5Zl9QANUANlGiAYEowJZhyxDRQDbDBLWlwWRYsC2qAGqAG0muAYEowDRRK8jWSGLbdsO2xYUvfsLF8WD7UADVADRSnBgimBFOCKUdMA9UAO4fi7BxYb6w3aoAayIcGCKYE00ChJF8jiWHbDdtePhoL2mQnRQ1QA9QANRC0BgimBFOCKUdMA9VA0I0Y42dHSQ1QA9RA2dEAwZRgGiiU5GskMWy7YdtjI1x2GmHWJeuSGqAGqIESDRBMCaYEU46YBqoBNrglDS7LgmVBDVAD1EB6DRBMCaaBQkm+RhLDthu2PTZs6Rs2lg/LhxqgBqiB4tQAwZRgSjDliGmgGmDnEFerV69Sr732atLx0Uf/Y7nn4NmjvooTPsx6+/TTT5KeDTwry5cv4/NRTp8PginBNNCHP18jiWHbDdue2ag7nc9dEFe//xlTy1Zk12mtWBVXv0yOqVHjrWP9huzicUpbebz2119/qm222SbpOOGEEwJ99spqOa9Zs1p98cXnKcfMmTNCL8/169epyZMnqZ9+GqGP+fPnhZ4GL/U8Z85sNWXKZLV06ZKCTN8ZZ5yR9GzgWZk0aWJBptVLedNP6foLginBNNCHP1/AFrbdsO1laviatImq3apF1POvx3zV729/xNR/rrTCIrwcgNRMNnnfvTE2wXTo0CFq2LChavToUSzTLEaEACx2yMfvV155ObTyxGhekyZNUtLx7LNdQ0uDn+etcePGOq2dO/83lPT9uWyeenP81+qNcYPVlMWzMtocN26sfibwXOywww46rQRT9/bET90Xo1+CKcE0Y6NRGmHnC9jCthu2vUx1kg2Ybo3EVa3zLRg95NSIuuXeqLq/k3XMW1h+G0kp61q1aqmjjjpKTZ36u+9nxgRTia+suS1bttTl89ZbfXyXj5+yWLFiuYINOWrWrKlBJkwwvfnmm7XNXXbZRV188cWqXbt2+vj+++9c896r15u6fG677TZXP37KwY/fsMB0wsLp6uaPX1D7d75B7de5qT4Ap37SuvPOOxNMs/jD5qeMC90vwZRg6qvR8CvofAFb2HbDtpepHvp/GlMPd4mqH0d7H+n8fmRMj5BWrhFR6zcSRO1lvOuuu+oOc8KEX30/M+UBTAFoGLns1u0F3+VjL2s/vxs0aKDthgWmW7ZsVhUqVNA2MfrtNa0YTUX5XHbZZZ7DeI07k793331H3XfffSodOGeKI9392asWq/8b8N8EjB707M3qwK43EUzLOWCm00y6ewRTgmmgjWS+gC1su2HbS/dQZ3uvzwALTM+/LhqoJrJNX77DEUzT/1kpL2AqfzLwynnjxg2en5V8gmnQz87Xf4/XEHroc83Vw8PeVQvXLlfHv9xGX8MrfT/2OWKa/jnzU5bF6pdgSjD11Wj4FXq+gC1su2Hbc6qH5Svjyn5s3JS+kcMiqdnzreOx56y5pY1uiiauyb0tW9PH45Qep2ubNm1Us2bNVPPmzdW6i0S26rmWeC37yy/j1datWzzpEXF8/vln+nXu+PHjPAMCVsd/++0w1adPb9W7dy81aNBAtXDhAkebWGQDO3JIh4kwck3caDTiGIeUgcAMRszkmpsrcaJs4OePP6apt99+S492rV27JmN4hFm2bKnO55tvvqGGD/9e4fW3mz3zOmyOHPmz6t+/n14ljdXSblMXMHIoaYVbv359PSL4yCOPJF3HPSwSMu3k8jybEdN4PKb++We6+vjjjxRGE7GAKZ32lixZnMgTdId6rFixYuKalAM0Y+YNi47k3oMPPqjDnX/++Ylrcs/LCnRMHzjppJMUtGTacDuHBuyHH5B2i9fp+ohZv6lOwz9QyzaU5J9gmps206m8y/o1ginB1FMjl+2DkC9gC9tu2Pbs9YFX77JQyXQzLX7a57iSBU5mOPv5r1O8Twmwp838jVef6NQPPPBA9fvvv6l9991X/8Y1uT5x4gRXTQIi69WrlxQG4XbffXc1YMD7ruGQhq5du6g99tgjJey2226rGjZsmBIW/iVdmdzFixelhDfz7RVMAUdi69dff1Fnnnlm4jeu77TTTqpv3/dcbQEW77jjjqQwCIc8PvDAA0pg10ybnH/11SB15JFHpoRF+COOOEItWDA/ye7YsWMc/Ur6TfeDDwYkhRWbuXD9gikW2mCusJk+nCPv+HPklKaLLrooxb89PH4/99yzSeExB9XJn/2al3mnsnLdy6Ig/BGw28DvsBY/oQwJpgRTp2fJyzWCKcE0qSH1Iho/fvIFbGHbDduevQ42b4mrux6JJo6a9SzgzASmGCXt2Nk6GjaxRkyPOzeSuCb3crX4ScAUILn//vuratWqqYceekg9/fRT6pRTTtGdKUaiAK32PGKrGwHZQw45RHXo0EHh9egll1yS6IS7d++WEg7xYMQRHfP222+vLrzwQvXEE0+oHj1eUffcc4869thjdVrs9jAfr3379okDYRHHDTfckLgm9zONZGYDpoAngHTbtm3V888/p+cmCmwgP/b04vc555yj04hpB1iMhPmet9xyi9pxxx319csvv9wxHMpbpiqceuqp6t5771Wvv/6arpvzzjtPh/3zzz+SwmI0UPIP9/DDD9f+8MfBvI7zdH82nPLh55ofMMVIsKz6/s9//qM6dXpadenSWUkcKCeMGNvtY+GS5On666/X+YRfuSYuRqfNsBgllXuwh/oDAMs1cTFya4ZzOvcDpps3b1KtW7dOHIcddpi2Xd7BFFtmyaI5L+777/dP1Mt7773rKyzedDjVI69lBnaCKcE00IcnX8AWtt2w7WVq3LJZld+9lzXH9JrWwc0xFTBFB12jRo2kTbTRmQpYAf7sebz//vt15wqYXbRoYdL9xx9/XN/ba6+9lP11KuKpU6eOvg9Is8eL3162bhJwC3LxkzliitE2+wgeIB5lB9Cwj34OHvyVvodRVTtcYfrCdtttp+9jz017GTz88MP63tFHH62cpiVMmzZVrVq1MiWcGU+hzzFF+vfZZx+dz//+95mUvIi+8Lo8FnN/BjDiijqoVKlSShxmedjPSzvH1A+Y2m2HtSrftFuII6b4E4K683pUqVIlUccylcdr2J49eyTCmuXCc4KpZ2GEDRZh25OHIWy7Ydsrb/mU/NrdYgBTzPO0pxujlGj4MTppvh7H3NTddttN33vjjddTwgFq9957b33/xRe7p9yXkVZzBMRuO9PvsMH0xhtvTMnHunVrE+XwyScfJ90/99xzdf6xv6ZTXho1aqTvX3HFFSn3r7nmGn2vVatWKfec4nK6VuhgiqkM0BbmwjqlH/MxAfXw89133zr6QTiCaWawQDkVIph+/fVgBY17PfDmQLTSpk0bz+EQv330XOKhm1k/HDHliGniwQvigSGYZn4Igyj3YgBTp6/QYFGKAKjZsOO1mIxUYCGKU5lhlBV+8Arbfv+0007T984666yU0Va7X7ffYYPp//73YUo+kDaZ74hRYjOt++23n87jhx9+kHRd/GCxF8oHUwTkmrgyWli5cmW9EEiu+3ELHUxl1Bz6wAgyDmzoLgdG88UPRjfd8h4GmCKNGN03D4zeof7wx8K8jvMffhjuml7kI9OI6dboVtVt5Ge+jmlL56S1WYhg6lanvJ6ffsqt3AmmBNO0jYubcLxeJ5jm54EvdDDFPD9AqJOOZAEOVkvL/W+++Vp3yunCyYgY5gtKOHE/++xTvQAIHTtGY08//XQ9jxKvv8VPJjdsMP35558c03brrbfqsmjevHniPkaUscAJ+XMLh9Ei3MeooL3sMV8Ur6ZxH0f16tVVixYt9NxcjEZnKhvcL3QwFbCTPKZzUcZueQ4DTGU+c7o0mvec3iKY6c8Epuu2bNRbO8mm+F7c//3mrE+xSzDNT9sv5V/MLsGUYOraAOdC2ATT/DROhQ6m5twtu85kEZS5whkLD9ARpwsn88fcvkGPEVhs1SOLX6Rjhz2Arz0d9t9hg6nbNk1YMIO0Y9GXpHHu3DkJqHQLN2bM6IQfp/mi2LqoadOmKTsXYAcFbF6fbt4l0lHIYGrO3cUKeMz/S3fk+1U+dl6A5s1D/rBhoaB5Hed///1XQguiCdPNBKYYMX3+5098HVOXcMTULGOe566vI5gSTNM2aKV92AimuXtY/dRFoYMpRoTso3aSP1lBjA5XruF1K2AM4dwACV+2gR+supdwTi7maeK1bbNmzfRelAgDWM20ijZsMB0x4kfHfCDdSDNe4Ur+sE2UjJi6hcN2UAiHRVUSzsnFoirsDYsV5YBShMGBqQBO/uVaIYMp0njAAQfofLjtaCD5yOSGMWLqlAYufip9W4qdJgD4Xg9MAZK6wKdvvYaDv379+ibCShx0vdUhwZRgGujDQzD19iDmusEqdDAF6Nj3xUQZYEW47P34448/JLSJESEBpPnz5yWum+V27bXXaj/YJse8nu4cr7DFXrp5hYhD5r7aV8qni1/uZbNdFLY2kvCmK1sbPfnkE0n3q1atqvPv1iG+9tqr+j5e05vxpTtHfdSqVUuHA3im8yvbdmFrq3T+cn0Pn/iENuzlYbcj+98+80ynUqUvWzDFGwCkE4vQ7Gnz8ptgWvq2VN6qSFuSyTXf0HBVfunL34vO4YdgSjDNqpH0KjCCaXgPs1knxQCmL7/8Uor28FUldBaYB4lV0pInjAhiYQ7uOX2LHaOg2BsV9wFgEs6LK18ssi8msofFKAji9zMvVeLIBkyvvPLKlHzgC06ycvzLL79Iui8jlm7fYpetuADwki4vLvZ8Rb4Bdun8y9xXLKRK5y/X9+666y6dPqe5xaYt2VIMi7/sW22Z/jKdZwumeD2PcjRH4TLZMu8TTEvflmIrOfwZ9XrIF+pQD5gu4zUc/KFNMuuP597rj2BKMA304SGYen8Yc9lwFQOYYpP82bNnJfSHz4XK/FKnlfVPPfWk7tgxMgjQk/LClADMG0Snj037nT67CChBxyJhxMWnKOUVOD41KdedXEwRgI2rrroq7ecrncJmA6aYXjBkyDeJNCGfKBekAaOe9ikNeIWPe9iv1J4XjL7iHg6nfVjxsQGnkWAsqpKR2Hbt2iXS4pRHGY3CRvtePrHpFEc217A5PfKFqRaAdbcpIvga0kEHHaT94qMFyJvdHvSAEfd0nyfNFkxlji/qB3HYbWf6TTDNT1uaqV54P/f1QjAlmPpuIP08iATT3D+0TuXfrF1UAUblqHaW9eWn2heVXMO9Ti+6bxwe5gb7e+65p56vhVdlmDN5++23J74chGszZvyTokuMdmBzfUAIRk/xBR7A0sknn6yvVahQQa8idyofhAEQ1K1bV4NHx44dFb7EI19EwvVMo2jYXgjx4MB8RYwg4lOmOFauXJGSXjMd2YApIB2jo1i4gv0U8UUm2MY8W3zD3oxfzq+++mrtB3nFq3V8HeuCCy5IwLc5L1XCwJXX3Mcff7zC/qn43j2+EiWfcMU+sObokRlWzgGjqFekEaPX+JyqlE+m7YwkjmxcgKhAG2wfeuihevoBpiAARs04sTOBjKzjjxE0hLm0cLFoDuFxpNuJIFswRTqgM8SP+sFG/lI+Tm8PzHTjHPvz4ktlTlNg7H6xly1G3OWQPxf4ypmD3XRlAAAgAElEQVRcg/vYY48llY89Hj+/Ow59Rx3Y9abEISv7D+hyQ+Ia7q/elFwndhvyytzLp1ftYfk7nP4m6HImmBJMc9YwOYmVYBpOQ1HleG/fvL+waWGAKRbVYLQUX38SGIALOJg5c4arJgGn1113XeIrRhL24IMP1vtSOmkQ1xAGwCv+xQX4YeNsc9qAWxy4jhFMfKITI2+AC4nH/iUqexzZgOlvv03RcCgjurCFPJijqHY7gDTMoZR5s5I+zI91+1wr4sBop9P34xEeUwTwKUe7LaffWECGssYfCJlygDgGDHjfU3inOL1c27BhvbrzzjsVvlyFPyiSb6evgOE1K/aCNetP/ANmMXXBPhptpqE0YIqpGPizAEAUQIZtP/OizbS4nctCPcmXm+v2sQG3eNNdf2DI2562nCKYhtMnpKurQr9HMCWYBtphEEzZCJmNoHySFGAq1wEKGMnyMhIkYfC6HoCAbZ7cFkOJX3EBbVhEha9LffHF5/qVthO4iP9cuiaYYoN0HBj9stswtzWaPv1vfR+jsYBRQJ/ba2p7PFi0hM+IYs4ubKcDLTMs6gCfM8VUgFGjRmb9MQIzzkI9x6goXt1DC/gkbaY/F4Waj7KQLuxBLM+F/LHgiGn57TsIpgTTlM4xlw0dwbT8Ni5OOnICUyd/Ze0a4BAdrnmceOKJKc+eE5iWtbJgftgm2DWAaR/ms4Fzgmn51QnBlGCa0jnaG43S/CaYlt/GxUk35RVMncrC6VpZB1PshQoI8XtgeoBTefEa2xdqoOxpgGBKMA20wSeYlr1GozQdAcE0vR7KOpjK1lNucx7drh9zzDGBtlOl0TTDptc0y4fl41cDBFOCaaANPsGUjZLZKAFM8ZoOi4fM6zy3dAIwlVeaMse0LJUN5gNj2yS/B1/rsh0pS88B85JezwRTgmmggEAwTf8AsoFi+VAD1AA1QA1QAyUaIJgSTAmm/2qgNA1DvgC8NGlm2JKGkGXBsqAGqAFqoDA0QDAlmBJMCaaBaoCNfWE09qwH1gM1QA0UgwYIpgTTQKEkXyOJYdsN214xNC5MIztBaoAaoAaoAb8aIJgSTAmmHDENVAN+GyX6Z0dGDVAD1ED51QDBlGAaKJTkayQxbLth25NGO192xT7d8tt5sO5Z99QANRCEBgimBFOCaRGPmBJM2TEE0TEwTuqKGqAG8qUBginBlGBKMA1UA/lq3GiXHSs1QA1QA8WnAYIpwTRQKMnXiF7YdsO2J41tvuyKfbrF1+izzlhn1AA1UMgaIJgSTAmmHDENVAOF3AAybeygqQFqgBooLA0QTAmmgUJJvkb0wrYbtj1pSPNlV+zTLawGnfXB+qAGqIFi1wDBlGBKMOWIaaAaKMRG8r333lWvvfZq0rFly+ZyVw6FWDdlLU3RaCRJZ9DdW2/1odZy0O6WNa0wP9afCoIpwTTQBjJfI3ph2w3bnjRg+bIr9ovVPeCAA9Q222yTdKxatTLQZ6GQy2rGjH/UF198nnKsXbsm1DKJx2Nq3ry5atSokeqnn0Zot5DLzUvaNm/elKQz6G7PPfcMtVy9pJN+ONJaKBogmBJMA20g8wVOYdsN2540IPmyK/aL1RUwfe65Z9WwYUP1EYlsDfRZKOSyevHF7inwBID67bcpoZXJxx9/pKpWrZqUjl133TU0+37q5/uZk9Ub4wbrY/mG9PAei0UTGnv55Zd0/gimhEA/eitvfgmmBNNAG/58gVPYdsO2Jw1VvuyK/WJ1BUyHD/8+UP0XS/lMnfq7fr2MV8w4tttuOw1QYYHpX3/9qXbYYQdt86ijjlKtW7dW7dq1Uw888EDa+qlVq5aCf6Q/6LKOxWPqyz/GqPPfekjt17lp4vht8SzPtseMGU0w5St8z3oJWtOFGj/BlGAa6EOSL3AK227Y9qRByZddsV+sLsE0/YiVQGJYYPrwww9rYDvrrLN8tUcYUcXI7oQJv/oK51e3P8yaos56o30CRg97vnninGCaXkt+y5r+WZ4EU4JpoA16vsApbLth25PGO192xX6xugTT9J1f2GDapEkTDZiPPPKIr/YoLDB99Nu+GkRrvdJWvTb2KzV50YwEmP6+ZLbnNHPENL3uirU9YbpzW68EU4Kp50Y1m4cvX+AUtt2w7Uld5MvuokUL1axZM9W6dWu1fhYuXKA++GCA+vzzzxTuSfrc3E2bNurwc+fOSfjFHM8RI35UvXq9qb7//juF1cxu4bEo5+eff9J+hwz5Ri1ZstjVr1McXsG0tPnEgiqU09KlSxLpQ9pRTu+++46aOHFC4rpTOhcvXqS++eZrnc+RI39OlLeT31xeywZMsavBpEkTdb4++eRjhQVVWMzklC74RbnIUb9+/QSYyjW4c+YkQ9+aNasTYXB/55131uEGDRqYdB330ukHaUIaTjrpJPWf//zHMY1mul8fN1i9PWGY2hK15iH/s2JBaGCKdOI5kUOeOTN9PM8tGLE881ueBFOCacZGuTQPab7AKWy7YduTOsmXXbxyxSvUN998Q7Vt21af47ccd955Z1owAHjC73777af1h5GyPfbYIxEe94488ki1deuWJH2ik+7QoYOqUKFCkt9tt91WtW/fPsW/lJPd9Qqmpc3nY489ptN57bXXKsD4pZdemphLKWV10003JeURaQUQX3jhhUl5hP+KFSuqvn3fS/Fvz19pf/sFU2y/ValSpZT0NmjQwPFPw9ixY1L8SnmY7m677ZaU165du3gKhzgA9enKQVbLZ7MQKUwwHT16VFKeX3rpxbT5Spdn3ssvcLH8vZU/wZRgGmgjly9wCttu2PakgcuXXQE2LDwBFF533XXqhReeVy1btlQ77bST7kibNWvmqi0TTAFaAInq1asrvNJt3ry5Ovnkk/W1jRs3JOIA2J1yyin6OiDojjvuUOik77nnHrXXXnvp640aNUr4lzJycv2Cabb5NMH01ltv1UB9+umnK5wDVg877DB12mmnJaUZC3mqVKmi81OtWjX14IMPqu7du6mbb745sSjp+eefSwrjlMfSXPMDpm3atNFpxZ8F0QH+aNSsWVNfP+igg5R9Ky6MhOKPhByHH3649luvXr3ENdzr2LFjUj6hGwkDd/vtt9fhbrjhhqTruJdpqyuCqTdIKI2OGJZlnI0GCKYE06SGPxsRpQuTL3AK227Y9qTM82VXwBRA2bNnjyQN4dUzYBWggtXWklbTFTDFq9jdd99dYbsi+2vfr78enDQC+vTTT2kIwUiqOQUA8c6fP09VrlxZ3//0008cbZr2/YJptvkUMN17773Vvvvuq779dlhS2jB9Afk003beeefpfFx++eXKBHP4GTz4K30PI4nY79MMl8tzr2CKqRcomx133FFPvzDTgD8SeE2O+3fddVfatF588cXaX7duL6T1Z8aP89LMMSWYEprseuLvwtAEwZRg6qsj8Pvg5gucwrYbtj2ph3zZFTA99NBDU4ASaRMgwSt9SavpCpgCWtKNrEqY5cuXKcAY/Ltt8YRRMtyvW7euo02JC65fMM02nwKmSNc777ydMV2AVPjF62X7KKOkX0aNH3300YzxSRi/rlcwxegv0vv44487pmXgwC/1fcQHUHVLB8HUHQj4Kt+9bNz0xOvFXWYEU4Kpa2eRi4c7X+AUtt2w7Und5MuugCle40paTFfmAuLVrHldzk0wxYIZue7mYhN8ABBGWIcOHaJHHjH6KJvj49rrr7+m/WAeJjY1d4sL1/2Cabb5FDDFiGmmxThIl2ybdOqpp6bkEXlFPm+//XadT8BcujyW5p4XMMWIo8z17dHjlZT0Iq0YPZe5p+PGjXVNb9BgOn363+qWW25JOjA1AprCaK/9Hn6nm6Ma5hxTLn4qbsgqzXNYXsMSTAmmrp1FLh6KfIFT2HbDtid1ky+7AqadOj3tqB+ZN4q5g5JW0zXB1P662vQn55guAIjwemR6ze0XTLPNp4ApRhYlL+ncq6++2nMeMaUhXVyluecFTDEX1mt9wF+6RVtBgyl2cPCTVvh1m4aCcg0TTEtTjwxLqC1GDRBMCaaBdW54IPIFTmHbDdueNDb5sitgap9fKumSV7j2VdVyX8AUI4lyLZ370EMPabA4+OCD9ZxW2E13ZFr44hdMs82ngOlVV13lKZ9Srueee27a/CE96UAvXVl6uecFTDEiKrCHhW/p6gP3/vzzD9cyCBpMsZ0Ydg4wj969e+n0Y56qeV3OsTWVW1kRTAl8btrg9dJrg2BKMHVtfHPxgOULnMK2G7Y9qZt82RWAeuqpJx31g/mUgJYjjjjC8b6AqWwXJflxc99443UdH+Z6uvnxc90vmGabTwFTrMD3kj7ZaB6vmb34D8qPFzDFiKKAKfYNLU1aggZTp7QVy+Inp7TzWunhh2VYuGVIMCWYlqpDyfRw5wucwrYbtj0p93zZFTDF9lCSFtN95plOGlrOOeccx/t+wRQLngBBmGOaaf6omQ63c79gmm0+/YIpFhEhn9j/0y3tYVyXeaE//viDazqwx6xs14TN/0uTrmzBVBbE/fLLeN/2iwVMV69elZhLjXnG9h0pSlPuDFu4cFae64ZgSjD13aD7eWDyBU5h2w3bntRBvuwKmGLEE1seSXrErV27tgase++9N+Ue/PgFU6xQlw348cUksZOt6xdMs82nXzAVAMeI5T//TC91PrMtn1q1aun6wx+MdHFgcRtAGnvPpvOX6V62YIp5trCPbbQy2bDfLxYw5ap8wqNdu2X9N8GUYOq7QffzUOQLnMK2G7Y9qYN82RUwBRQAviQ9cPv166thAaNps2fPSron/vyCKcJhM33YO/DAAxU6a4lLXCyi6tOnt/4kplxzc/2Cabb59AumSG/jxo11PrHlFvZntecBX4XC1IJ0q9ztYfz+xscLkOfjjjtOf2bULfyECb/qlfnbbbedevvtt1LSir1psQWWXSP2+LIFU/k6Fubw2r8SZrdh/00wJfDZNcHfhaEJginBNKUzyeXDmS9wCttu2PakjvJlV8BU9tQERGEf0UsuuSSxhRB+SzrtbjZgiu2WLrroIg1M2Kbo/PPPV3fffbfevP2CCy7Qe38CpvClJLs9+2+/YJptPrMBU8A8vviEvOCV+hVXXKHuv/9+1aJFC71Hq8z/xFZM9nzl6vfChQsS5Yl04CtOGEV1miuLDx/ggwrwh2/PY9oD0gvAPuSQQ/T1M844I21aswVTbBkGuzhQpxjBbdiwoT5WrlyR1iZG+vHVMPvXpdzK8Jw+D6oDu96UOPbr3FThMK+d//bDaW2OGTNap9XPZ1A5YloYsOSmC17Pff0QTAmmaRvS0j50+QKnsO2GbU/qJV92BUx79XpTPfnkE4nPkAIQ8EnSzp3/m1ZX2YCp5BkLoeSTnQIlcPEFKYCT02iqhBXXL5hmm89swBRp3LBhvYbuXXbZJQFekleMGLdt21YtWDA/bRlLXrN1saAJcFm1atVEGgCeTvHhC1DHHntswp+kFaPm2GGgf/9+juEkrmzBFOGHDPlG4WtZ+PQpRm7FNkaWJf5cuHV73a9BVIDUyQW8prNFMM09xKQrb94rzvImmBJM0zakpX2w8wVOYdsN257US77smmCKtOC1KOAEr5exIbikL0gX4IERM4DJtGlTfdkVMD377LP1iCRGJdevX5eS7nznEwu9MNd00KCB6ocfhqsZM/5x/NJWkOXsJ25ssYQ/BtgubOLECSrdlkt+4i1mv5hiAH3hkDm5fkZMiznvTHtxgmG+641gSjBN6YxzKcp8gVPYdsO2J3WUL7t2YJP0FIuLUUBMBzAPp0+AFns+i6U+ynI68afN1BnOK1euHGi7W5bLk3kr+7BLMCWYBtpA5gucwrYbtj1pnPNlt7wAWzHkE6/1zzzzTN/Hs892DfTZF43SLfsgwTpmHedSAwRTgmmgnVO+wClsu2Hbk0YgX3aLAdikjErjFkM+69evn5hXKfMrvbi33XZboM9+acqdYQk61ED51QDBlGAaaOeUL3AK227Y9qTRzpfdOnXq6NeTWBQkaSmLbjHkE/NrsajG7zFz5owyXXdlUY/MU/mFtfJU9wRTgmmgnVO+wClsu2Hbk0YqX3bFPl12lNQANUANUAO51ADBlGBKMP1XA6V5sPIFiPmyW5qyYlh2YtQANUANUANuGiCYEkwJpgTTQDXg1vjwOjsmaoAaoAaoAbsGCKYE00ChJF8jemHbDduePMj5siv26bJToQaoAWqAGsilBgimBFOCKUdMA9VALhssxsUOkBqgBqiBsq0BginBNFAoydeIXth2w7YnDXPYdsO2J/mkW7Y7ItYv65caoAZEAwRTginBlCOmnjVAMGXnIZ0HXWqBGqAGgtAAwZRg6hlKshFgvkAmbLth25O6CNtu2PYkn3TZAVID1AA1UD40QDAlmBJMOWLqWQME0/LRMRAAWM/UADWQLw0QTAmmnqEkG5HmC2TCthu2PamLsO2GbU/ySZedJDVADVAD5UMDBFOCKcGUI6aeNUAwLR8dAwGA9UwNUAP50gDBlGDqGUqyEWm+QCZsu2Hbk7oI227Y9iSfdNlJUgPUADVQPjRAMCWYEkw5YupZA/kE06l/xdSo8TG1aGnZbpznLYzrfCK/7IjLdl2zflm/1ECqBgimBNNAO798gUzYdsO2J41Z2HbDtif5hHvJTVG1W7WIerNf2Qa2rj1jOp8X3xgN9Nk0y5bnqZ0jy4RlQg3kRwMEU4JpoJ1fvkAmbLth25MGM2y7YduTfMIlmOankzDrgOesA2qAGghaAwRTginBlK/yPWuAYBp8p8QR0+DLOOiOlfGzDqmB7DVAMCWYeoaSbB60fIFM2HbDtid1EbbdsO1JPuFyxDT7ht4sR56zHKkBaqCQNUAwJZgSTDli6lkDhQSmS5fH1Wdfx9QXQ2JqweLMHc2mzXE1e35cYXGRNMqRaFyNHB9Tb38YUz+OjqlotOSe+BF33fq4Gv2L5ffbn2IK9uWem7t6TVz9MCqm+n8aU+99HFPjJ8fU+g3pw2UaMV22wsrH3AXp43FLE6+z3KgBaqCQNUAwJZhm7FxLI+B8gUzYdsO2J3UStt2w7Uk+4cqI6Rt9Y+r+TtZCKCyGkqNNx6jaGnHvcACe8Hv4GRGt+ae6R9UBJ5WEx73jzo2kxLFla1w91CWqdj862W/FoyKqY2dnm7PmxdVFN0TVHtWTw8AGwj3436gCFJv5k/N0YDr0x5ja57iITsu7H5XtRWBSHnSddcJyYbmUVQ0QTAmmjp1jrgSfL5AJ227Y9qR+wrYbtj3JJ1wB01rnW7B3411R9XKfmLrrkaiGNUBfkzbuK9lNMB3wuQWpJzaIqGbtouq2B6KqzuUW7G7cVNLhYZT17Cus6/ufGFH3PhlVr74bUw88E1UHnWKl4/9aptoc/asVf/W6EdXq/qgCbL72bkzd93RUHfhvOIBrPF5iS/LqBqYDh8VU5RoRDbsfDSSUSnnRTdUQy4RlUswaIJgSTAmmfJXvWQOFAKYA0B5vJ4MZoFNGNCf8lnxPGmgB072Pjaj9Toionu/EUsAQI5LmqGuXf7duwkiqOQUAcWL6gEAmphOIHbgz58b1FAOnqQHzF8UTI7WwZ4bDuROYfjwopoEUYApAtYfhb4IINUANlBUNEEwJpoF2cvkCmbDthm1PGqCw7YZtT/IJV0ZMq50VcZwLelkza2SzRYfUEUyEFzAF2La+39mPaW/Fqrja93hrVHTEGGcYxKt8xNfguszxmXHf2t4Kh/DmdZzbwbTfJxZ04xX+sBHO6bDHwd+EFGqAGihWDRBMCaYpHWMuxZwvkAnbbtj2pI7Cthu2PcknXAHTtg+lwhzu41U5IBGv5M1wcm6C6ZQ/MgPe9yOt+DDC+t3PMTV8pHXgOg5c6z3A8rNvrYiKxZw7Qix2+vOfuA4/5IeYwnHT3RaY4jW/pE9cE0x7vR/Tc1L3PCaifh6XOc0SB13numC5sFyogcLXAMGUYJrSMebywc0XyIRtN2x7Ukdh2w3bnuQTroBppxdTYQ73sUIfYHpwbWtxkxkW5yaYmvNI7f7kN74whfi8HnhFL2Hh4vOplze3ANQtjpvbpeZFwBTTDcxwH3xBMDXLl+fJemN5sDzKigYIpgTTpM4018LOF8iEbTdse1JPYdsN257kE66AqX1+qfjBiCZADnNNnUYvBUzdwFXiEfeJFyyoxAImQGqmA9tJSdifxlpzQpGe0y6JqseesxZNYYQVx1UtrLixgEvCiCtgirBH1Ymo9k9ZfgGqM+eU2BD/dFkm1AA1UJY0QDAlmKZ0jLkUeL5AJmy7YduTOgrbbtj2JJ9wBUyxzZN5Xc4/+coC0yPPTD9iKttFSTg3t8+/r+lr1HOOzy0crsvOAU5zSHH/7kczgynygW2nsHK/0U2W/7qNnbenSpcW3iO0UAPUQDFpgGBKMHXs5HMl4nyBTNh2w7Yn9RO23bDtST7hCpg6zcvE/VfessC0/lXO4Cojpl7BFAueMGqJOaZOI7Bm2sxzbKqPcDiWr3TuEAU0042YXnxjST4WLonrKQqI0w12zTTw3LncWS4sF2qg8DVAMCWYEkz/1UBpGqx8AVvYdsO2Z9aJgClexWPTe/Mezs+/zhpVvOeJEqAz/fgFUwCmbMCPLzeZcaU7xyingOk/s1LTOWN2PLHxvlcwhT1sE4V4sUG/0zZT6dLEe6n1wDJhmVADhakBginB1HOHm81DnC+QCdtu2PakLsK2G7Y9ySdcAVPAGeZsmvc+HWxBW6XqEQXwM+/JuV8wRThspg97mOs5dmIqnGIRFb7AZIIrXr1jlT7C4QtPYh8uRlAbNrEAGvf9gCnCyxSAw06PqMVLnfNp2uM5y4gaoAaKTQMEU4JpUseZawHnC2TCthu2PamnsO2GbU/yCVfAFPMsAXUYIcVr7atbRRWAFNewUMgMY55nA6bYIL/xrZY9LKrCK3h8vanDU1G94r7qyZZdOyg/+6oFtEjTCQ2s1++YgnDEmRGFfVixGj8bMAUIn3yBZRNpcfpylJlnnhNKqAFqoNg0QDAlmLp25LkQc75AJmy7YduTugnbbtj2JJ9wBUyxOr57L+ub8YA7HHvVjKjOPVJHNM3w2YCphMdCqENPs2yJTbhYKY89Se2jqQDap7tHdbrEP17Bn9EoqvB6H1te4TrCig1xZVW+OcdU7sHFHqz4AhTCP/96+jyb4XhOQKEGqIFi0ADBlGCa0jHmUrj5Apmw7YZtT+oobLth25N8OrmYZzr6l5gaPznmOOfUKUxpr+H1Obal+vanmN4032muq2kD81RH/2ptyI9z8x7PWR7UADVADaRqgGBKMA20s8wXyIRtN2x70piFbTdse5JPuqmNN8uEZUINUANlUQMEU4IpwfRfDZTmAc8XsIVtN2x7pakThmWnTQ1QA9RA8WmAYEowJZgSTD1rgGBafI08O2bWGTVADRSTBgimBFPPUJKNsPMFMmHbDdue1EXYdsO2J/mky46VGqAGqIHyoQGCKcGUYMoRU88aIJiWj46BAMB6pgaogXxpgGBKMPUMJdmINF8gE7bdsO1JXYRtN2x7kk+67CSpAWqAGigfGiCYEkwJphwx9awBgmn56BgIAKxnaoAayJcGCKYEU89Qko1I8wUyYdsN257URdh2w7Yn+aTLTpIaoAaogfKhAYIpwZRgyhFTzxogmJaPjoEAwHqmBqiBfGmAYEow9Qwl2YiUIMPGLRvdMAx1Qw1QA9RA+dQAwZRgSjDNwYgpG9Dy2YCy3lnv1AA1QA3kVgMEU4IpwZRgGqgG2GjnttFmebI8qQFqoCxrgGBKMA0USvgqnw1oWW5AmTfqmxqgBqiB3GqAYEowJZhyxDRQDbDRzm2jzfJkeVID1EBZ1gDBlGAaKJRwxJQNaFluQJk36psaoAaogdxqgGBKMCWYcsQ0UA2w0c5to83yZHlSA9RAWdYAwZRgGiiUcMS0sBvQGTP+UV988XnKsXbtmkB1YW9U4/GYmjdvrho1aqT66acR2rX74e/C1hLrh/VDDVADudAAwZRgGiiAEEwLu6F68cXuaptttkk5fvttSqC6MBuvjz/+SFWtWjUpDbvuumto9s208Lyw9cr6Yf1QA2VfAwRTgmmgAEAw9d+ITJkyWR111FHqpJNOCrRu0MBPnfq7euutPolju+2204AYFpj+9defaocddtA2kefWrVurdu3aqQceeCBt3mvVqqXLCOlnR+VfYywzlhk1QA0UqgYIpgTTQDt2gqn/xm/cuLEa1CpVqhRo3Tg1SgKJYYHpww8/rPN61lln+corRlQx0jthwq++wjnlmdf8a5RlxjKjBqiBoDRAMCWYBtqxE0z9N17lCUybNGmiAfORRx7xpUOCqX9dBdWJMF7WBTVADeRSAwRTgqkvIPArvkIA002bNqpZs2aquXPnJPIaiWxVI0b8qHr1elN9//13KhqNJO6ZeYS/33//TfXv308NGPC+mjZtqqtfMxzOly1bqr79dph688031PDh36sVK5Y72oDfJUsW6zQinZ9//pmGtYoVKyau4TqO+fPnucZht5/N72xGTLFQ6ueff9JlOWTINzovbra3bNmclKf69esnwFTyCHfOnNlJ+VyzZnVSuJ133lmHGzRoYNJ1hHWrS7c08To7VWqAGqAGCkcDBFOCaRIA5PrhLAQwBXjite9+++2n84rRuT322ENfk4U/Rx55pNq6dUtSWYwePUodcsghSf7gH3MhJ06ckOTXLDfA1x133JESbtttt9VzJwG7pn+cX3TRRSn+JW2me8wxx6SEtcdVmt9+wBT57NChg6pQoUJS2pHP9u3bp5Qn0jV27Jgkv2bezPPddtstKZ9du3bxFA5xLF68KClsacqDYQuns2JdsC6ogfKhAYIpwTTQTrzQwLRv3/c04FSvXl3hNXLz5s3VySefrK9t3LghURYY6RRIO/XUU9VTT0zH7FEAACAASURBVD2pHn/8cXXiiSdqvxixA7g6NZTnnHOO9oPXzS1btlTdur2gbrnlFrXjjjvq65dffnlKOIzcAuZwXH/99dof/Ms1cQFoTjZzdU3ynGmOKUahTznlFJ1OzIUFiL/00ovqnnvuUXvttZe+3qhRo5S0YiRU8gL38MMP137r1auXdL1jx45JYfHnwgy3/fbb63A33HBD0nX4ydVWV++9925iUZi5QMzt/I8/piWlOVd1wnjKR2fMemY9UwOWBgimBNNAO9NCAlPA5O67766wRRL2zTQbga+/Hpw0wnfaaadp8GncuHHS9c2bN6kLLrhA3zv//POT4kB8gwd/pe/ttNNOauTIn5PuA3Zl1Tv26jTtm+fFMMf06aef0vnESLM5RQL5wHSDypUr6/uffvqJaz7h9+KLL9b+AO9mGWQ6D2OOqUwXMEdy05337NnDVx4y5ZH3CSrUADVQHjVAMCWYBtqZFhKYAiqaNWuWMb+YeyoA8ueff6T4/+WX8Yn7kyZNTLp/7rnn6nsYjXVqUDCKiLivuOIKx/sIU+hgunz5MoVX7cgH5s465RMjl7hft25dx/sSppDBtE2bNqpVq1aeD7eykLzSJWRQA9QANZBZAwRTgmlacCjtQ1RoYGoHSaf8vfbaqxqqatSo4Vo2Bx10kPaDRVFmHJjHCiD78MMPkq6Ln969e+n7mKcq1+xuoYPpsGFDdR4wojh06BC9wAujwbiOA9def/017QcLuGKxqGteCxlM7fXC35k7FJYRy4gaoAZKqwGCKcHUFRpKKy6ELzQwNeeRuuXvwQcf1FDl9Kpewpx++unazzPPdEqUH+ZdYuEPwBSr1MWv6WLKAO7jVb99OoH4K3QwxStr5MHrgU+NSt7sLsGUnZhdE/xNTVAD5VsDBFOCqSs05KJxKCQw3XvvvT3lFQuVAF1XX321q/8LL7xQ+7n77rsTfjDXUmDN7YtEY8aMTvhZtWplIqxZ1oUOpg899JDOw8EHH6wAqZmOdIuRCKbluwMydc9zaoEaoAagAYIpwdQRjnLVQBQSmMp2UZnyJl8jwnxRN79YqQ8I7dKlc8IPtk+SEVPMU3UK+9VXg3S4XXbZxfE+whQ6mL7xxus6D4ceeqhrHpzy7nStkMG0Zs2aCou7vB79+vUtdXk4lRGvsbOmBqiB8qQBginBNNDOtBjBFBviAzqrVavmWjb777+/9oNN980Go2rVqvq6G6TI/FVsV2WGM8/Hjx+n48D8TPN6pvN//pmuzjvvvMSRboGVW1zY+gl5//HHH1xtY5EP/GCOabr5o242zOvZgqksvsJCNDO+XJ5zVT5hIJd6YlzUEzXgTQMEU4JpYB07HsJiBFMZsQR8OX2LHdCGezjwJSizsRHQuuyyy5Kuix/Z4/Taa691vA9/mJMp8W/YsN7Vn8QpLjb9l3BwsWWT3PPq1qpVS8dhzp21h8UUBPlAwbvvvuPbhhmflJff7aIwiok8YnsuM75cnmNqBvZd9XqsW7c2sLTkMl+My1vnyHJiOVED+dEAwZRgGmhnWoxgisZItn3CJzNN4ACUycInp43yZasp7FeKT4uaDRtW8As4OgGv+MUopOzT6QfYcgGm8sWq4447TqXbwQCb6SMvBx54oOOHBrDIrE+f3ioTuGYLpjLH96qrrkraZ1bKkG5+OhSWO8udGqAGSqsBginBNAmeSisoe/hiBVMsUsKrdMDXEUccoW677TbVokWLxCdK99xzTzVlymTHssOiKYQDnF5yySX6s53YlF/mn2Jxlb2c7L/x2VSB2KOPPlphh4CGDRuqW2+91TVsLsB04cIFCnkT25hniVFU+wgvvkcvn1HFJ0mRPiwEu+uuu/QHCCQO7HBgz5v5O1swxfZUksYDDjhA4ctRKB8cK1euSGvTtM9zdqLUADVADRSWBgimBNNAO/FiBVM0VNhcXz67KRAE96yzzlKzZs10LTdsA4VX4VjgZIbDvMju3bu5hjMbx0hkq3r11Z6qdu3aqkqVKol40s1NzQWYIg3IG754JfNlkYeTTjrJMd1YCGWmT/KLL2wBZt0+2yp5zRZMEX7IkG/0fFrsKStf1IL9RYsWOqZVbNItrE6I9cH6oAaoAVMDBFOCaaCdeCGAqSn4bM5XrFiuv3CEuaVuWzw5xYtRxf9v77rjpSa6qAW7IioKKnYRe+9dsYsNsSOCgmBFFLDxKQpKEQEVCwqiWFFQugIqiiBNQEBFiiAISBGkt7fvzfc7s9xlNpvsJtlNsvve+SO/JJOpd87MnNyZuYM1qAMHDlDTp/+R9UYhuzTyxQ1kEFpMkEWUGRYK8iVvzAcHPWKAGCAGCgcDJKYkpoESiNJATNmhFU6HxrpiXREDxAAxUNgYIDElMSUx3YwBdmaF3Zmx/lh/xAAxQAwUPgZITElMSUxJTAPFAAeKwh8oWIesQ2KAGAgLAySmJKaBkhJO5bMzC6szYzrEGjFADBADhY8BElMSUxJTakwDxQAHisIfKFiHrENigBgICwMkpiSmgZISakzZmYXVmTEdYo0YIAaIgcLHAIkpiSmJKTWmgWKAA0XhDxSsQ9YhMUAMhIUBElMS00BJCTWm7MzC6syYDrFGDBADxEDhY4DElMSUxJQa00AxwIGi8AcK1iHrkBggBsLCAIkpiWmgpCQqjWlU6YbVcJkOBwligBggBoiB0ogBElMSUxJTakwDxUBp7DhZJhICYoAYIAaCwQCJKYlpoKQkKs1lVOmyowqmo6JcKVdigBggBsoGBkhMSUxJTKkxDRQDHEzKxmDCemY9EwPEQC4wQGJKYhooKYlKcxlVurlolIyDnTsxQAwQA8RAWcUAiSmJKYkpNaaBYqCsdq4sN4kFMUAMEAPeMUBiSmIaKCmJSnMZVbrshLx3QtnIrKSkWPXs+b768MMPAsVxNnlk2HAxQXlT3sTAFgz89NMo1b17NzV37l8F00eSmJKYBgrWqAhiVOmyQ9zSIYYhi48++lBttdVW6s477wwUx2GUJRdpDB48SPXr1zfpGj9+XOiy2bRpo5oxY7oaOfJH9eOPI9Rvv/0aeh5yIU/GEXx7/vPPWUl4FfyuWrUyVMzgJ/fvv+cpEDlgFvd8rX+0pylTJqu1a9dkzCP6BPSRNWrUyOg3X8pLYkpiGihYoyKIUaWbLw27LORj3bq16sADD9Sd7oQJPweK40KRZ4UKFbQ8MBDJdeONN4YmGwzuLVu2VDvuuGMifeTjqquuCi0Pbuvq37UrVY+Jw1TXcYPVkJkT8i5/bstR6P46d+6UhBXB7dSpU0Krk969P1f77bdfUj523nnn0NL3Wod77LGHzuvo0T9lzCPaZLVq1bT/YcOGZvTvNS9B+CcxJTENFKhREcSo0g2ikXqJs0GDBqpq1arq3Xe7B1qvXvIUlN8OHV7Sne15551X6svqVoZY0oC6x1WzZk0tnzCJaY8e7+o0t9lmG3XGGWeohx9+WD3yyCPq7be7OtbRO++8rTHbqFEjRz9uy+/G34KVS9VTQ99XB71UT1Vqc4e+7ur9cihpu8lfPviBNg79yEknnRS4XKD9E8zivu2222oMhUVMp0//Q2233XY6TZS5YcOGGrOPP/542rIff/zxWkZRzAZ4IabA0+uvd9HlO/XUU9OWKR+whzyQmJKYBgrUqAhiVOlG3bChmYLGoWPH0j3QQgtw2GGH6bL26dM7UAxHXad+03/hhdZaPmES03POOUen+dRTT7muk/bt2+kw1157reswfmSyqbhINR7UVVVpVydBSA/uECenJKbJU/bjxo3VdVK+fPlA68SuHoUkhkVMn376aV3Ws88+21NZoVFFXztxYvja9meeeUY1a9bM9brRNWtWK5lNGTNmtKdy2tVR0G4kpiSmgYI0KoIYVbpBN9hM8ZcVYjpkyNd6UDj44INVLFYUKIYzyTxfv0dBTPfdd19dL998M8x1nYRFTFduWKMJaeU2tRWI6KSFs1TDvq9pt7p9OrrOb77Wdy7zVZaI6W233aYx26JFC08YiJKY+qnrpk2b6nLWrVvXUzn9pJVtGBJTEtNAQRoVQYwi3RUr/lNz5sxWuC9Zslh9/PFHasSIH1RR0SYt47/+mqPef/89NXz4d6q4OJYkd3xD2PXr1yW5mw0cWkL4wbVhw3rtb+PGDQk3uF944YWJTlb8yh1/zWZ85rP4waYVcf/116kK06z9+/dT6TYi4Bs2ucAvCOPixYsScUhcdneUZ9asmQrruyCXyZN/UWb6dmHErX79+rqc99xzT8a0IFOUDxsbEB71gbVZmDb8+efxrtL855+FOg5TDgsWzFcffNBT9er1qZo3b65jPlBHv/wySZcR2l1s9kDZpSxB3f0S00WL/lFff/2Vrs9Ro0aq1atXOeZ15coVSfiTtaUDBw5IcrdiAjuEBXNPPPGErstLLrkk4Sbf/v13qWPaIrdXX31FTzljI5y42d1XbVirGvXroqYtieMAfoImprnAHvCKtojyffLJx+r3339z/TMGXA4aNFC99dab2noFfhic6hN1JHLv2/dLXSe77rprwk2+zZ//d1o528nei5sfjamXPshtn2ndxe4W65BTrn+W0S8uXbok5ZKxxY18sb4UGl5owXOdPzfpe/FDYkpiGmgnEwVBRAOIIt02bV7UDb9OnTpq77331s/oCG6//XaFTkHWTsHNSqhOP/107f/5559zrI9vv/1G+8GfOjpJlHPs2DGJdBBvuuvTTz+xjRskScJNm/a7+uKLPqpKlSoJN3zDNJB1gxE6ePyFYz2hhMd96623Vo899lhawgeNDNZzmeHwjOl5kMVMnZiEhcwz+R06dIhOZ//999cD/D777JOULtwnTZqYNp7zzz9fh3nzzTfUzJkz1AknnJAUR7ly5VTXrm+lxAFTVhgIrOW89NJLXRP4TOVz+u6VmIJ8X3HFFSl5BTkBAbdLp127tin+rWXF+9VXX50UfqeddnIVzs26UyG22ERjl8d0bkET02yxhx8o2eBnyhX4T4dZ7Na+6667kvocCb/DDjuoZ599NkVWV155pas6OfLII1PCppOx129eiKmfPshtn7nLLrskldMt1iFn/Nx5LXc6//jRk/oz7242P0m8UH5IWDd9rISL4k5iSmKa0wZkBXEUBBF5iCJdIaZo/LVq1VIgqELaoEm67LLL1H333ZcYLBYuXJCQPbSNCHfooYc6atMQH/zgLnLGXz1IoFyHHHKI9nPBBRck3OSb00BmElOQUhCRypUrK6z5w0aAiy++WIF4weyIpAtN0CmnnKLTAvF68MEH1SuvdFZNmjRRe+65p3Z3Mk8CzY8MPiB8rVu3Um3btlEgayjf9ttvr6Cpk7Ssd3T68IcL2lbrd+u7kIPddttNl+vwww9XWAPZqtXziTKgzNBKWcPKuxBTbLg67rjjFAYtyAXyueaaazRxb968eVL4+++/X+cRGLj11lvVyy93UJguPProo7U7yP9//y1PCiPp5eLuhZhiA4f8TEE+IHudOnVMIjcouzVf3333bRLOgBPUS+3atZPcu3V7Jyks4hdcimzxUyJucndTv4VATP1gD9pNaSennXaawk8rCOWJJ56oZYw+xYmYgJSiHrBJ5uabb9bYQ/3de++9Cj9mwKO1LtEHidzxM43waIviJncQNGvYXL5LmTOtMfXbB7ntM5988smkcrrFOuRkzqzkQjbYjIa+Ri7UC+rHqf7t0sQsHX5KEA5t285PvriRmJKYBgrQKAgiGlcU6QoxrV69ekKm1113ne4IzIX1GLTROZhTj5heAzmC+/ffD0+El44C30GG8P2HH75P+S7+/KwxNYnpXnvtpYmvddofmlRoCiUdkDrkBWTCOo2NqT7ZNQqiK2FwBxGrWLGiDvviiy8kfcN3kDvEi93A1uUOEo+p8cD0v7g73YWYIt6jjjpKmdPDWBJx0UUX6TRRL05xCHmCfLCzdfbsP5P8Llv2r17OIOGxhAPpYQDBgCbuuGNAlfiwa938lstnL8QUmEV+gVeY4TLzIXYQgT9ZDmF+N5/9rLvLdo1pIRBTP9iTWZQbbrghafYBmL388st1fWH5gyl/PANf8oMAjb31O8JbZz+sfgphjanfPshaVj99JuLwg3Vr2n7fpX/1QkyRFvo/YBGWMvymHUY4ElMS00ABGgVBRMOJIl0hpibZgMkRdAT405UGDc0H3Kw752XdJLQd4lfuYobniCOOSPkmfnD308maxBTaskzrlkDshCRjvayZvjxDa4AyWk05iTywFlb8mneso5K/eixdML/JszmtZSXQ4se8m8QUJ6CY3/AM4oi8YjB3moITIgk/JkG3xiXvMJWEOO2mTOFnwID++ju0QyASEi6Xd7fE9KuvBuu8YLmGkwZXtOP/+9//0ubVz2BdVoipF+zJjw0w9Mcf01JkjqlYfMOF9csmbrAGVb6ZszKmn0zP+U5Ms+mDrGX302ciDj9Yt6bt990vMcUsGLBxxx13JGHGbz6CCkdiSmIaKECjIIhoLFGkK8TUNJXz3HMtdUcAoiaNWOxvwhC5uOEumkCQPutUEKbm0aFgytsMY33208maxNTNOj1ZRI+pRJA+TDnigjsuuGGzBfILLbCp+RRzQrC3ag0nYcUPCIu1fHj/7LNeOm6kb/fd6mYSU2xKs35H+TMRbSGm119/fUp4a3zQSMkSji5dXkspJ/KDzUWy9hQkwBpHLt7dElMxl4PpYqc6wRIU1CfwlS5vfgZrL8QUbefuu+9OumBPEnnDz4D1m926XzP/Ya0xRf68YA9rmREGGi4zv+azrAM3Z17wHbMrgr8HHnggRQNuxuH0nO/ENJs+yFpmP30m4vCDdWvaft/9EtN69eppXEEL7zftMMKRmJKYBgrQKAgiGk4U6QoxNTcwyYJ5DP7SoF977VXdOWDjkLjJHesXMSCZ2hVMG2NDEbR12KAifu3ufjpZk5hCe2YXr+kmxpqRTzeXOf0r6xjdhLNuEJM8yCYwxOFGIyTEFNpJlFXiMe9iExXWAUx3eRZimsnoNvxjvaab8okfp41Fkrbfu1tietNNN7nOL+SULj9+BmsvxBRT1yI3N3eYAkqX37CIqVfsyfIEu6l6KY9o5VHP4iZ3TNWKfPBziPXt0N67WfqCOPKdmGbTB4mM5O6nz0RYP1iXNLO9+yWmouDA7Fy2eQgyPIkpiWmgAI2CIKLBRJGuEFNs5pFG+9JL7fUAYU6BSqdqalHFP0zfYEA599xzE3FAswo3rP8Tf053P52sSUwzbThAutAIIz8HHHCAPlEE5Ul3ifYXJk9ksMRu63Rh8M1pKh8bASSedOttRUZCTEGKxc16l6lq1Jf1G96FmOKnwu676SbpIY/Y8JSpnHZTtWZ8fp/dElOsf0ZesZkrU14zkWg/g7UXYgpNGdZNmhd2/CP/mJ403fGMKfF08guLmHrFHjS/KBN+GpzyLxYUGjdunOIHbRraYqzVRjxy4QcXBy5gzbhTvHDPd2Lqtw+yK7OfPhPx+MG6Xfp+3PwSUzl21bqxy08eggxDYkpimraDyhZ8URBE5DmKdHNBTJcvX5Y4Z3zGjOlaw4ed+hhYYE80U3346WRNYpppwEL6GPCQn4MOOihjfqz5FQPsWDNr/eb2HVPlsg7V1Cw7hReiCI2zk8YUhvpRJpAZu3iEmGKK1e676YYjDoUIwKah+S3MZ7fEVAyM261t9ppfP4O1F2Jqlx/RLrpZhmINHxYx9Yo9WV6BnwVrnuUdSy+As0zLe7BuGjaVQWTFZB003zC1JHFZ7/lOTLPpg6xl9dNnIg4/WLem7ffdDzHFenzpl4AHv2mHEY7ElMQ0UIBGQRDRcKJINxfEFHmH5gcdCLQC0AjiGYTOjVFk0R7ZmfZx6lC8ElNseEKesMbTXD/qFL/pLlNJdtOPpr9MzxIPSEkmv0JMkWcYxbf6h1zFrqaTBtYLMYVmGEQE6aUze2XNR67fsbkOeYDVgXRxY4oX/mCuK50/N9/8DNYyq+BkXixTumETU5hdw4ESuDIdR+kXe2+/3VXXCTYjOpUfJt1QbzC67+TH6i7rsxEO5NP6Xd7Hjx+n48YyAHEL6y5rr53aIvKRTR9kLYdfYirr0r3aBBULHoIh00qINW9O736IKTbJod5xBX1IglO+3bqTmJKYBtrxREEQAf4o0s0VMYW5KHQe2Nwg9gjdEDCUG+syEdZqUzNdh+CVmGLn9u67767TcVqT6ZSekCAYCM+0+98pDriLZQM356ub5ABLJazxyi5/aGFhFcD6He9eiCn8C3HGZgO7+MJwg6kuYAFkMd2JWjLIYx0kTuLKJm9+iCmWByCfMI/kJ+2wialstkKeYZM2XZ79Yk80lkjDjvzKDyu+Yxd+ujyY32AKTH7CnCxqwD/WhSNuXDDWb8YR9LPIN93PazZ9kDX/fomprEs37Ttb47Z7l3Yp8sXPgp2/dG5+iCm0pEizWrVqntNLl5cgvpGYkpgGCtIoCCIaShTp5oqYIv9yspHsrsW0vpsOANN66HxgaN/tn7hXYop8wJg+0sGpSXa29DAAYprdSlwxnSS7ibFj2M5UEjZowLxWOjIFI9mQDeyEZtoQZpIDnKKDE1BEljg+VtaXwlKAuFvvXokpyATyh6lTu2ULkDk2mj3zzDOOaVrz4PUdWhFZ8oBB3mqf1IwPu3RRnyinnTYFMsbPQDotG+LzQ0zHjBmt04asMsVv5lmeC4WYesUepvFRJzCtZh4jClImG5/s1p1j8x2sYphhRFayhh1rTZ1Mg8EvZkKkLq1m7SSuoO44rAPlPvbYY1NMYZlp+u2DzDjw7JeYyhpfrNlN11dZ04uKmMoBJkEfkGAtr593ElMS08AGRgAyCoIYVbq5JKaymx8dNMwnuW3cIKOwR4lwOG3mrLPO0jtysSvXznA/4vVDTDH9LUcYgoBh9zA2YcCGK4x/Sx7sNL0gZMgb8ojBGqfMwB/u5lGfWEuartyY+kUcTrZCJawQU+QJWg5sRKlbt64+hUtOyoIbzrCXMNa7V2KK8DAADgKAPGITCogvNNkggXLM5JlnnumYpjUPft7lwALkAYcDQBuFy4oFkHVMG8MfplJhFgthsXsXtmihTcU3mLlKlw8hM3ZavnThkAbiBzmFrIBXXHYabms80HjjxLF0U78SZsC0MWr/dnUSV+U2tVWlNnco3E33wdOdj8UVyxnI7zHHHJNWHtlgD4RdDt3AOnNsGER9CHaAZ2wElLLJXTTgaGMgXdihj7aJfAse3Wx+wSllKCMu2E9GG0edOFnLkPSzvcPShvQfSBtaaWD2lltuSSprNn2QmUe/xBSm1UQ+WGqFWRLBLfYKmGmYz3369E6EQ/jPP//M0S/CwW5yzZo1ky5pj/hpMb/16vWpbVxiKQQ/8nZmy8z85cMziSmJqS2QcwVOElNvu/JF7tBQySBiPc5R/DjdsYEJRw6CaIjGDB2g01o0P8RU0sYmBJA66aDljkERA4mdNhVhofEEsQURkTByxyAESwSZ1q/KkodKlSqpdCRWyAG0uyBgcvqJpAcybD3JScondz/EFGGxKxzkRdKSO9agQiNmtUEp6eXyDksCIHsmFvr165vS7jFlCwIjU72SV9whO2i47dbomnn1S0yx7g7m0yAr+WlBuubBFGY6fp/7TxujiSjIaLpr0PRxKfJBmtCMSRmRP5C3dHnJFnuw2CAafbM+YEnBaWMdlmPg59DMp4RFW8Vms0xtC2XCUps33nhdn3RmtvEwpoJRNvzAyS5y5B8YtpO13z5I4vJLTBF+yJCvFU5NwyyQ2Zelm8WRTYkoE34CgX3Ji93dXNYh9eh0t9rGlvjQjhAm3ayQ+M2HO4kpiWnaRpEtSMsSMc1WVmZ4IV3QmNhNyZl+8+EZHTE0COioseYt3Y5fM78glJi6B1ECiU3XoZvh5FlOMnnvvR6OODbJgYQDMYbmNhPREv/Z3leuXKHLhxOfsHkG79nGGVR4kBaQG2gigUNokvHzElR6hRQvNqwIKYBWL910OMqVK+yBvEATCq1wpjRFnmiD0KhCy411kGiX6X7gJFyh3v32QWGX17TF60Qkc5knaG/xk4KxxGv/mst8eImLxJTENNABh8S0xJd8a9WqpQfAoKfNvHQW+egXppkwPQWtklP+7MiBk1+6+8NrWZGbbLoDOTXtFTuVn9gjnkxs4GdBZiT23HPPUH5QYfUCy63SbSYz85gPzySmJKaOA3ouAEpi6q1jxvQZbGmKVsbtSS25qKvSGkchkAOsycR6YD9XpqnA0lqvUZQLprfQNitWrOhqJqMQsJeNHLG8ww9msZwgm3QLNaxpTQF7Egq1HEHnm8SUxDTQxkFi6o6YYtMS1jpiwBNS6sXkU9AdRSHHXwjkQJZuSN17ucOAeiHXT6HkHetLsckFmq5OnTq6knkhYC8b+WPzjResil9s5Mom3UINC0IOU09Y/w8LJYVajqDzTWJKYhpo4yAxdUdMQS7E/BFMwTgdjRl0h1Aa4wc5gGyxQSFfy4djW7EL28/lxVRNvpa/tOarELCXjeyxbtUPZjNtNswmTwzrbszJZzmRmJKYBjpYk5gWfieRzx0Y80Z8EQPEADFQujBAYkpiSmK6GQPs3EpX58b6ZH0SA8QAMVB4GCAxJTElMSUxDRQDHBgKb2BgnbHOiAFiICoMkJiSmAZKSjiVz84tqs6N6RJ7xAAxQAwUHgZITElMSUypMQ0UAxwYCm9gYJ2xzogBYiAqDJCYkpgGSkqi0phG1aCYLjtzYoAYIAaIAWLAPwZITElMSUypMQ0UA+yg/XfQlB1lRwwQA2UNAySmJKaBkhJqTNmplrVOleUl5okBYoAY8I8BElMSUxJTakwDxQA7aP8dNGVH2REDxEBZwwCJKYlpoKSEGlN2qmWtU2V5iXligBggBvxjgMSUxJTElBrTQDHADtp/B03ZUXbEADFQ1jBAYkpic9DS1gAAIABJREFUGigpocaUnWpZ61RZXmKeGCAGiAH/GCAxJTElMaXGNCcY+O23X9WUKZPV2rVrchKftWNH/D/+OEItWDA/kPit6fHd/8BC2VF2xAAx4BcDJKYkpoEO8tSYlp3OaY899lBbbbWVGj36p0AwdeWVV+r4O3XqGEj8fjtRhis7GGdds66JgeAxQGJKYhroIE9i6r0RQ+tYtWpVddJJJwVaN7nuYAuBmL7zzttato0aNSoo2ea6rhif93ZJmVFmxEA4GCAxJTENdIAmMfXekMeNG6s1g+XLlw+0bnLdyT7zzDOqWbNmau7cvwLJdy40pu3bt9OyvfbaawPJY65lyvi8tx/KjDIjBgobAySmJKaBDtAkpt47iEIlpkEPBiSm3rEUdJ0wftYJMUAM5BoDJKYkpqWemK5fv07NmTNbzZs3N1HWoqJNasSIHxSmdr/77lsVixUlvpmNDP5+/XWq+uijD9Unn3ysfv/9N0e/Zjg8L126RH3zzTD19ttd1fDh36lly/61TQN+Fy9epPOIfPbt+6XW6u26664JN7jjmj//b8c4rOl7eZf4N23amIgf5YZ8+vfvp1atWplwl3jhF2W0XpCZ+El3//vveeqzz3qpL77oo8sPv6grxLdy5YqUOKzEdOPGDWrkyB9V9+7d9LpWp3ShwZXyPfHEE1q2l1xyScJNvv3779KUNNPln984IBMDxAAxkHsMkJiSmAY6GOeDxhTEE5tyKlWqpMvaokULtfvuu2s3uOM67LDDlEnK0NlgE8+BBx6Y5A9+sf5z0qSJjnIDYXrwwQdTwm299dbq8ccfV3YESkiX5MfpfuSRRzqm67eDLCkpTuR12rTfNVGsUqVKwg15qVChgpow4eektAcOHJDkR/KcafMT5Fy3bt2UsE899ZTq2PFl7X7VVVclpYWyiYyw+alXr0/VTjvtlBTHeeedlyC4piys/iSf1jvXneZ+gDHrgc+ULzFADLjBAIkpiWkKAXADHLd+8o2YfvBBT01mqlWrpm677TZVr149dfLJJ2u3devWJmQBTed2222n3U877TT1/PPPqWeffVadeOKJ2m3HHXd03H1+0UUXaT8777yzatCggSZbd999t9p+++21+3XXXZdIR+QIzeRjjz2mr9tvv137g39xk3u7dm1Twkocfu8mMYX2EpraypUrK6zDbNiwobr44otVuXLl1ODBg5LSxiYtfJdLypeJmN5www26fDvssENCPigziPtxxx2nv6Ujptdcc41C2Fq1aqnWrVtpkrvtttvqcJC3VQ7Qkor8zj//fO0PPyLiJvfevT9PCWuNy8370KFD1Lvvdnd9QZvuJl764aBODBADZQEDJKYkpoEOivlETEEmd9ttN9W5cycFMmY28K++GpykMT399NM1gQGJMjWpGzasV5dffrn+hulgMw48g7xBEwfiNGrUyKTvILtCoGCP0xpW3sNeY2oS07322kvVqVNHrVmzOil/0KTOnDkjyU3yK3c3u/LHjh2j5bPNNtuob7/9Jim+V199RX+D/KAdlXjlLhpTfP/www+Svnft+pYOizpevXpV0jcJj3sYm5+uuOKKRDmsWlm795tuuskxv2be+UxSQgwQA2UBAySmJKaBDor5RExBCjCFnKlhY+2pEIg//piW4v/nn8cnvv/yy6Sk79AuIiy0sXbp1KhRQ3+//vrrbb8jTJTE9PDDD7ddamBXFqubG2J666236vJfffXVKeXHOt/99ttPf09HTE899dSUsFg+Aa0uZI+1sda8yXsYxPSVVzqre++91/UFUi35453EgxggBso6BkhMSUwDHRTzjZhaiaRdB/Dmm29ognPUUUc5ykbWYGJTlBkH1rGCHGENpOkuz926vaO/Y52quFnvURJTaJOt+XH77oaYHn300br8TmQMSysgv3TEtHHjxrZ5lDoZMuRr2+8oRxjE1K286I8EhBggBoiBVAyQmJKYOg7iuWgw+UZMzXWkTuUzd247+TnjjDM0gXrhhdYJ+WFHOdZJglhht7hdWCwZwHdM9VuXE4j/KIkp8if58Hp3Q0x32WUXXX5snLKLHxugMhFTkEu7sEcccYQO++WXX9h+RxgS09RBwE6WdKOciAFiICoMkJiSmDoO4rkAZT4RU6yfdFMmbFQCOUq39k/WEZraO5ijQjhcONfdLq0xY0Yn/Pz333JbP1ES06lTp9jmya4sVrdMxBTT7SIfLJewhsd7mzYvaj/pNKZOR5KSmHIgtcMU3YgLYqCwMEBiSmJqSxBy1ZDziZiKuahMZXv66ac1OcJ6USe/2KkPktW2bZuEHxAv0Zg6Ea9BgwbqcDBh5BR3lMQUm5yc8pXJPRMxRfi9995bl//zzz+zTefRRx/V3wuZmGI5Anb9u70eeughW1lkkje/F9Zgy/pifRED7jBAYkpiGuigWIjEFAbxQTqxEcipI4E5JfiB0X3Tj2zese4aFz+yfhXmqsTNeh8/fpyOG2abrN/Svc+aNVNVr149caXbYGXGY+7KD5qYCqGHZtTMgzzDlBbkGhQxfeml9jp+bEKTNHN9F206yuHmSqeZz3XeGJ+7gZFyopyIgegwQGJKYhrYAI2GXYjEVDSWIBUTJ05Ikc8PP3yfIBw4CcrswGB/E+GczmIXG6e33HJLUjgzDpyIJIRm7do1jv7MMHiG0X8Jhzs0mFY/du9hEtMnn3xS59FuY9ny5cv02lvkPShiKnZsYQ7MTha5cMMpXjhtyu2Fk65ykS7jiG4gpewpe2IgdxggMSUxDXRQLERiig5GzD5deOGFSXYxsS5UNj7ZGcoXU1OwV4qjRc3OCjv4hTjaEV7xW1wcUzDOD784CUncM90LgZiCtMlJTE2aNElsAMMyCJB5kU9QxFTW+KJ+8AOSSab8nrvBhrKkLIkBYsANBkhMSUwDHZwLlZiCwGAqHUTp0EMPVTiusn79+okjSnFEJ04+smtkmJpFOJAf2Ots2rSpNsov60+xucounOmGY1OFpGFTD4z5X3bZZeqee+5xDBsmMYWx/Zo1ayZdclIWyLz5zWo6C6dcyUEDFStWVDhKFPLE+tMHHnhAlzvdyU/ZbH6CjJGe1M9JJ52k5QrZwsC/WQd85iBKDBADxED4GCAxJTENdDAuVGKKzgjG9U855ZQEQRSiePbZZ6s5c2Y7yg1T4zAjJZpBCQdTSU6kytr5FRVtUm+88bqCMXnZMIR40q1NDZOYmssdpHxO95YtW6bICidknXvuuUpO48K6TPwMiDmnm2++OSUMtKhIw0mGbnblQ87Llv2rfxaOOeYYfRKY5BtHq1rrge/hD0qUOWVODJRtDJCYkpgGOhjnAzHNtpMDkcF55lhb6mTiyS4NnGSENaiw2Tl9+h8KU/R2/sqyG457BQkXGTzyyCOafMKWrLjxXrYHKdY/658YKFsYIDElMQ2UAJQGYspOMbxO8ayzztLEtHv3boHiknUaXp1S1pQ1MUAMeMEAiSmJaaAEgMSUHZK1Q+rfv5+CSSyre48e72pSuu+++6o1a1anfLf65zuxRQwQA8RA6cMAiSmJaaAEgMS09HUa2Q4E2EiGdZ1YE3rjjTcqGKSH+Sa4lStXLsU2bLbpMTwxSAwQA8RA4WCAxJTElMR0MwbYcYXTceFQgjPPPFOTUNl4tNtuuyns5k9nRov1E079UM6UMzFADESJARJTElMSUxLTQDHg1MFhc9iiRf+oBQvmR5K+U77ozkGZGCAGiIHoMEBiSmIaKCngVH50jZsdK2VPDBADxAAxUGgYIDElMSUxpcY0UAwUWqfI/HIgJwaIAWIgOgyQmJKYBkpKqDGNrnGzY6XsiQFigBggBgoNAySmJKYkptSYBoqBQusUmV8O5MQAMUAMRIcB18R0+fLlKoxLNGxhpGWmEXa6YacnZQ073bDTk3K+9tprCpe8B3WXXeVyDyodxhtO/0M5U87EADFADESLARLTzYQ7bAIVdnrS0MJON+z0pJwkptF2LFIPvLMeiAFigBggBrxggMSUxDRQrSKJKTskLx0S/RIvxAAxQAyUbQyQmJKYkphmsUxFpvDlzg61bHeorH/WPzFADBAD2WHAMzENekGwaNiCTscaf9jphp2elDfsdMNOT8opU/nyHtRdCKncg0qH8Ua3EJ+yp+yJAWKAGAgPAySm3JUf6I5sEtPwGjM7TsqaGCAGiAFioNAxQGJKYkpimoW5KNGUyr3QO4RCy39JSbHq2fN99eGHHwSK40KTC/NLckIMEAOFigESUxLTQAd0akzZOQbZOX700YcKPwV33nlnoDgOsgy5jHvw4EGqX7++Sdf48eNCl82mTRvVjBnT1ciRP6offxyhfvvt19Dz4Eau//67VE2ZMlnNmTM7L/Pnpgz0472PHTdubFIbQZv56qvBoWMAP9Z//z1P/fTTKN1OcM/H+ly/fp1uJ7/+OjWU/JGYkpgGCjQSU++dZj52TPmYp3Xr1qoDDzxQE9MJE34OFMf5WH67PFWoUEHLQzT4uN94442hyQYDbcuWLdWOO+6YlI+rrroqtDzYycXJ7ZVXOut8Xn755aHk79+1K1WPicNU13GD1ZCZE0JJ06nsZdn9+uuvT8In2slee+0Van307v252m+//ZLysfPOO4eaB7cYmDz5F53PHXbYIZT8kZiSmAYKNBLTcIlpgwYNVNWqVdW773YPtF7ddmhB+uvQ4SXdWZ533nmlvqxu5YglDah7XDVr1tTyCZOY9ujxrk5zm222UWeccYZ6+OGH1SOPPKLefrurYx29887bGrONGjVy9OO2/F79hUVMF6xcqp4a+r466KV6qlKbO/R1V++XQy+vV/mE6R+aa/RdJ510UuBy+eabYYl28uSTT2rMhklMp0//Q2233XY6XZS5YcOGup08/vjjact+/PHHaxmFPQNBYjp1qgKZCbNBIK2wCVTY6Yk8w0437PSknGV1Vz40U/j779ixdA960Mwddthhuqx9+vQOvb8QnOXz/YUXWmv5hElMzznnHJ3mU0895bpO2rdvp8Nce+21rsPkSu5YZtCsWTMFcpyrOM14NhUXqcaDuqoq7eokCOnBHeLklMQ0+acd0+vou8qXLx9IXZj1Yj6PGjVSpxsmMX366ad1mmeffbanskKjChlNnBiutn3hwgW6nTzxxBOe8mvK2cszNabUmAYKNBLT5M7XS+P047esENMhQ77WHfTBBx+sYrGiQDHspx7yIUwUxHTffffV9QKNlFsZRElM3ebRr7+VG9ZoQlq5TW0FIjpp4SzVsO9r2q1un46uZeQ3/UIKV5aI6W233abbSYsWLTxhICpiGjaOSExJTD01DK8ALWvEFJsoVqz4Ty1Zslh9/PFHasSIH1RR0SYt47/+mqPef/89NXz4d6q4OJYkd3xDWCwyd5IxtITwg2vDhvXa38aNGxJucL/wwgsTHZ74lfuaNasd4xY/2LQi6WOhOzRJ/fv3U6tWrUy4y3e54xs2ucAvCOPixYsc/UoY3FGeWbNmKqy1glwwXWSmb/q1PtevX1+X85577smYFmSK8mGTAeJBfYwe/ZOeyvv55/Gu0vznn4U6DlMOCxbMVx980FP16vWpmjdvrmM+UEe//DJJlxHa3T//nKXLbi1Trt/9EtNFi/5RX3/9la5PaJNWr17lWLaVK1ck4U/Wlg4cOCDJ3YqJuXP/SnyHFgZaoEsuuSThJnjE5qRMcnn11Vf09C82wmXyi+9on0uXLkm6UA43YcWP2zRXbVirGvXroqYtiWMP4YMmpv/9t1zLEWVEesAsNvYAq5hCRruTcjjd0UbQ/iHTTz75WP3++2+ufwDRFgYNGqjeeutNbTEDPylOGAIupK779v1S42DXXXdNuMm3+fP/zphnp7JkcverMfXS77ntp9EuzPy6bV+QU6YfdGyswjKJRx99NCkNMz3zee3aNUltBHhy0x7NOPw+k5iSmLoCqV+AlTViigG2Tp06au+999adLN5vv/12NWzYULXtttsm3KyE6vTTT9ffnn/+Ocf6+Pbbb7Qf/DXLQDp27JhEnEgr3fXpp5/Yxo2BSsJNm/a7+uKLPqpKlSoJN3zDphrrBiN0tk2bNlVYTyjhcd96663VY489lpbwQTuCtVVmODxjeh5kMRPeJGybNi9m9Dt06BCdzv77768H23322ScpXbhPmjQxbTznn3++DvPmm2+omTNnqBNOOCEpjnLlyqmuXd9KiQOmrDA1aS3npZde6prAZ5KF03evxBTk+4orrkjJK4gCSI1dOu3atU3xby0r3q+++uqk8DvttJOrcG7WnQqx7dy5U1IadvmF26mnnpqSttfNT17TNPMSNDHFMgrI/I477tA/x8CmWSdYk52OYOCnTTYVmuHQ5tK1ExCZu+66K6mfk/DYNPPss8+m1M+VV16ZlDfxb70feeSRKWFNmWbz7JWY+un33PbTu+yyS1I53bYvyAs/lOnkgJ9N+MPGr3T+5Bv6dms9cPPTZsIoQgr6HjaBCjs9kV/Y6YadnpQzqjWm0pBr1aqlCaqQNmiSLrvsMnXfffclOm6s25H8QtuIsIceeqijRgOEF35wl3D4wwYJlOuQQw7Rfi644IKEm3xzGlRMYgpSCiJSuXJlhTV/WJR/8cUXKwxuMEUk6UILecopp+i0QLwefPBBhY0kTZo0UXvuuad2r1GjRsK/hMMdWhhZ+A/C17p1K9W2bRsFsobybb/99gqDhRnGfEYHLHKGttX8ZvcsxHS33XbT5Tr88MMVBu9WrZ5PlAFlTmcKRYgpNlwdd9xxCgMI5AL5XHPNNZq4N2/ePCkv999/v84nMHDrrbeql1/uoDB1d/TRR2t3kH9ot+zynAs3L8QUmynkZwryAfHq1KljEtFA2a35+u67b5NwJiSodu3aSe7dur2TFBbxCy5FtvgpETe5u6lfryTxxRdf0PWGusMaP2CpNBJT9AWoDxBR/MBhLS1+wlDeatWqJWZdzDqFdlPa5mmnnabwowxCeeKJJ+pw6MdAXM0w8gxSirj32GMPdfPNN2u8AzP33nuvws8g2oD4lTv6Palr/MAjPNq/uMkdBE3C5PruhZj67ffc9tPYiGWWz237gpzM2RwzDnn2SkzR9tBGcGE8Q92QmJKYJgFUwJXtPWyiGHZ6Ip8oiWn16tUTdXfdddfpBm0ucsegjUZuTj1iqgvkCO7ffz88EV7Kg+8gQ/j+ww/fp3wXf37WmJrEFBsAQHyt0/7QpEJTKOmA1CEvIBPWaWxMu2FwwncQXQmDO4hYxYoV9TcQBPMbnkHuEA5TTtblDuLX1D5g+l/cne5CTBHvUUcdlaQtwpKIiy66SKeJenGKQ8gT5AON2+zZfyb5XbbsX72cQcJjCQfSwyCLwUXcccfgJvFh17r5LZfPXogpMIv8Aq8ww2XmAz8k+Ab8yXII87v57GcNXLZrTL0SUzO/fnflZ5NmWBpT1BnIoNmOsGRI1gFbfxYgF5m5ueGGG5JmPNBOQN4RJ5ZcmDLEMzAtPyWYJbB+R3jrjIvVTyGsMfXb71nL6qefRhx+2pek7ZWYSjjcuSufu/JTGrUJkGyfwyaKYacn8omSmJpkA+Y/0Jnjr1PyBi0E3Kw752XdJDQP4lfuYobniCOOSPkmfnD30+GZxBTaMlkTa8ZrPmMaUEgy1sua3+QZf/Aoo9WUk8gDa2HFr3nHOib8lSMsli6Y3+QZ6xfxHZeVQIsf824S0+7du6XECeKIuDCwOk2HCZGEH5Ogm+mYzzCVhDjtpi/hb8CA/vo7tFMY1M2wuXp2S0yx/hB5xXINJw2uaMf/97//pc2rn4GTxDS3GyRlKh9LarCG24qnZ555Rtc3NP/mN/mZAhb++GNa0jf4wxIbfMOFNdNmWKxBlW/mTJDpJ9NzvhPTbPo9a9n99NOIw0/7krRJTLPQdkZFZMJON+z0BJxhpxt2elLOKImpaSrnueda6g4bRE3yJvY3YYhc3HAXTSBIn3VaBlPz6Pgx5W2GsT776fBMYupmnR7WyyIvmNYD6cP0Hy6444IbNj7AD7TApsZGzAnB3qo1nIQVPyAs1vLh/bPPeiXSt/tudTOJKTalWb+j/JmIthBTN+uzoB2SJRxduryWUk7kB4OErD3FgGzNUy7e3RJTMV2DqVunOsESFNQn8JUub34GTi/EFG3n7rvvTrpg2xF5w8+A9Zvdul8z/240prlOMyyNKZaMmGWVZ+lnsObd3DCD9dOQI2YVxK/1LmvPzdke+MGMjmD+gQceSNG6W+Oxe893YppNv2ctr59+GnG4bV/48bW2BdF4Y/2w9VumDVHUmFJj6tgpWMHt5z1sohh2eiKTKImpuYFJFq9j8N+St1f1AIDF5eImd2gxMDiYmj1MG0P7AW0dNqiIX7u7nw7PJKZujuV7/fUuOo/Ip5vLnP6VdYxuwlk3iEl5ZRMY4nCjnRFiCu0kyirxmHexiQrrAKa7PAsxzWQAG/6xXtNN+cSP08YiSdvv3S0xvemmm1znF3JKlx+3A6cZhxdiimlkkZubO8zymGlZn90Q01ynGRYxtZtyR/nRHkV25i5wWZ7gFA5hZSYA2LLKEgcpSLz4IcWaeswYuFlug7jynZhm0+9ZZeWnn0YcbtsX1u1LXbi5Y3mHNY/mO4kpiWlagJhg8fMcNlEMOz2RSZTEFJ2C5OOll9rrDsKcApUOztSiin+YoUFHcu655ybigGYVblj/J/6c7n46PJOYTp06JWMaMlV4wAEHKJQl0yXaX5iCkk4Su60zhXOayscJMRJPuvW2IiMhpiDF4ma9y1Q16sv6De9CTF977VXb72YYSQ95xIanTOW0mzY14/P77JaYygYgbObKlNdMJNrtwGmWyQsxhdYKaxjNCzv+IWvsQjfd8YzpaTMt67MbYprrNMMipvjhsJYX79BuSvsZP35cwg+0aHB3CoewYrWhcePGiXCSBvoRaKixPlzixx0/1TjkAevUxa/dPd+Jqd9+z66sfvppxOO2faGPtLYF2WV/8sknp3z7/PPP0tYNiSmJaVqA2IHci1vYRDHs9EQWhUpMly9fljhnfMaM6VrDh5366OBhT1TK53T30+GZxDTT4IF0MfggPwcddFDG/FjzKRsvsGbW+s3tO6bKZR2qqVl2Ci9EERpnJ40pDPWjTOjM7eIRYorpTrvvphtsRSIuXLAvaH4L89ktMRVj33Zrm73m1+3AacbrhZia4eRZNH1ulqFIGLm7Iabi17xnk2ZYxBQ/Gmae5RkboASf5sZFWdLhFA7hsdwDYTMtKcJabdhxBpEVM3nQtsPUkuTDes93YppNv2ctq59+GnH4aV+SNteYco2pY+MTkERF2MJON+z0RL6FSkyRf2h+0PnjDx0aQTyD0JnrwaSc1rtoj7AuzvrN6d0rMcWGJ+QJa0zN9aNO8ZvuslbWbirQ9JfpWeIBQcjkV4gp8gyj+Fb/kKvY1XTSwHohptAMgwQjvXRmr6z5yPU7NtchD7A6kC5uTLfCH8x1pfPn5pufgVNmFZzMi2VKNxuSWAjEFJsRcYCFXDigIZ1MRLMHu6N2/sQ8EjBq9ilvv91V4wAbIO3CwQ1m5IAVGN138mN1lzXhCAfyaf0u79Dewg+WAYhbGHcc74l08bObjjhn0+9Zy+GXmMpaeDe2nq1phk1MsQRNMIu728NTkG8a2N9MosMmUGGnJyANO92w05NyFjIxhbkodJTYaCC2Ad0QMJQd6zIR1mpTU+Rid/dKTLFze/fdd9fpOK3JtEsHbkKCMGhm2v3vFAfcxbKBm/PVTWKKpRLWeGWXPwYmOS3H6scLMUVYIc716tVLSc8ad1DvMNUFLIAsphsUZMDFGly7Xdxe8ueHmGJ5APIJU0Ve0hK/pZ2YYhYF8pEL9nGl7HZ3Iabwjyldqx9zStf8JhpLhLM7i11+kvEdu/DNsOmeYX5MfvycrHggvLn2Fcb608WZy2+mfNP9SGbT71nz65eYylp406a0NW6n97CJKazTCGZxt9t46pRXElMS00A7ABJTb2tMpaHKyUay0xXT+vIt3R1TbOgEYFw73ekuZhxeiSnCiqYJBrvtDG5jMMI0u5W4wryT7OzF7l07U0lYzwTzWunIFDZtQDawE5ppQ5hJTLEjFVOZUn4cTynrS2EpQNytd6/EFAM78odpTLtlC5A5NprBdI81rVy9w56sLHmAhtpqn9RMB3YrgRuU0+74R8gYPwPpNF6Izw8xHTNmtE4bssoUv5lneSYxTTY3ZRJTbEAy2xiIqtgYtu6shzwxjQ8cwJwb1qKKjEHKZOOT3Vp3bPiDJQ4zjISVdfNYa+pkjgx+Mfsi+LGa0pO4grofe+yxutxYX5uuP/Hb71nz7ZeYyhpfrNlN1z9a08M7iSmn8hMN2g4gcIuKsIWdbtjpibwLWWOKMshufgwSMJ8k5cp0BxmFPUqEw0lHZ511lt4diwHKznA/4vNDTDEFKMcJgoBhJy82ROAvGWZJJA92ml4QMuQNeQRRxIkv8Ie7edQn1pKmKy+mfhGHk61QCSvEFHmCxgGboOrWratP4ZKTsuCWborUKzFF2jDGjcEYecSGEBBfaLJBAuXIxzPPPDNtGaUMfu9yYAHygMMBYFoJlxULIOuYwoU/mLGCWSyEhW1d2KKV04AwuKXLixALO41bunBIA2mDnEJWwCsuOw23NR5ovHHimNMyDNM/CHrNmjUTl+CtUqVKCTf5boazPntJc8C0MWr/dnUSV+U2tVWlNnco3E33wdPtj+LF4Q2QjVz4obPmx3wXYgpzUdBU4jjPhx56SC8RkpkOaKfNaXwJj58EOegDa9uxSREYELyiDdlpYUXrjnYN0oUd+ugPYGVE2oD1VCNJ07zjZDQpJ2w2o18BDpwsdJhhs3lGfYoSAD9z0k6sS6Ky6ffM/PklpjDnJvLB8i7MzEhbgebXTMP6jP0DaCdu1uX37ftlUnuQAzggI2kfcne4XsDyAAAgAElEQVQ6MQ+Yk7zi7jQbZc0n3qkxpcY0LZjtQOPFjcTUn8YUf+3Sodud0JKuDtAB4cQXEA3RmKFjcFoX5oeYSvrYEGBnAgoD1C233GKrTUVYaDxBbEFEzM4LzxgUYIkg0/pVWfIAUpGOxAoxhXYXBAx2Gs00QU6sJzlJ+eTuh5giLHaFH3PMMUnpIW2s74N2yk5rJWnm6g5LAiB7Jhb69eub0u4xfQoyIdOupowgOxAiuzW6Zj79ElOQL0wxQ1by04L0zYMpzHT8PgshMMvm9Ow3DWu4/tPGaCIKMpruGjR9yw55Mw5ZEyr5BDkxv1ufhZhirTp+AuWIYIQHscBxoemmymElQmYRJE3cYb3BaTMfloDgh1Tq3wyH/gEb3DK1Z5QDy3veeON1fbqa2a/gCFVrOXP9Disg+EES8o4ygMjZpeO335O4BId+NMNDhnytQBQx82T2n+k0vZKu27tsSDTr0enZ+pMracgR0whnWpmR7+nuJKYkprYNLx1ovHwra8TUi2zS+RXSBe2F3fRYurBRfEOniAETnSbWn6XbRGDmD4QSU/cgSlgS4LVzxRpTdHzvvdfDEccmMZW0QYwxaGciWuI/2/vKlSt0+WD4etKkiQrv2cYZVHgQCBANaJGAQ2iS8fMSVHqMN3kq3ioP0yal04lpZhiTmMIddYc2BuLlBXf4WYAmFJrodFPwZtpo99CoQrOOdZDoC9L9NJphC/HZb79XiGX1kmfgwPxJcSKvTnGSmJKYBjrgkJimH3ScGmatWrU04Qp6Cssp/UJxh2kmrDOFhscpz3bE1Mkv3f3hlXILTm6y7hM/YD/+OMIR51IHVmIq7rwHV0eUbbJszeNt0x3Y4CQ3ElMS04wdnRN43LiTmCY32Ewyw1QWbGnKtAk0HZnC8Ht6GRcCMcWaTKwH9nNBs0UMpMdAocoH2kaYZUN/gKlyN+Uo7cTUTxtBGByU4EZ+9JN9W5KjuIFbu82xmWRMYkpiGmhjJTF118ixaQlrHStWrJggpV5MPmVq6GX5eyEQU1m6IT8kXu4wZl6W67c0l/2nn0bpXfRYJ2qe0pSuzKWdmHppG6bfTz/9hO1kM99Jh59cfMMSK1h/wMyfn/hITElMfQHHLdhITN0RU5ALbEzAtDTMsjgdjelW7vS3Re4gppAtNgvkq1xwbCt2RPu5vJqNyVcZMF9bMJuNLHCCE/Beu3btvMV7NuXz00YQxq35vGzyxrC5wTCJKYlpoJ0XiWluGio7PMqRGCAGiAFioCxgwDMxXb58uQryEiITZBp2cYedbtjpSZnDTjfs9KScYsdU3oO6m1NFeA4qHcYbbL9D+VK+xAAxQAzkBwZITDcT7bAJVNjpSYMLO92w05NykpjmRwcj9cE764MYIAaIAWLADQZITElMA9XykZiyI3LTEdEPcUIMEAPEADEADJCYkpiSmGaxPIVT+exIOZgSA8QAMUAM5A4DrolpWAtuRcMWVnqSTtjphp1eWSunTOVLuYO+sz65KSFojDF+YowYIAbKAgZITLkrn7vyc2DbjcSUA0ZZGDBYRuKcGCAGgsYAiSmJKYkpialrDERFwIPuCBk/B1tigBggBvIDAySmJKauSYmfRhsVkeFUfjAdTFT16Qd7DBMMBihXypUYIAaCxACJKYkpiSk1pq4xQGLKASnIAYlxE1/EADFAYkpi6pqU+OkwoiIy1JgG07lFVZ9+sMcwwWCAcqVciQFiIEgMkJiSmJKYUmPqGgMkphyQghyQvMTdp09v9e673dXGjRtc49dL/PRLrBMD0WCAxJTENNBOPSoiQ41pMB1KVPVZlgeI9evXqSlTJqtff50aaFstNBk3b95cwY5whw4vUS45+LkutPpnfoPp4/NBriSmJKaBdupRERkS02A6rajqMx86y6jyMHnyL5qA7bDDDoG21ajKh3T/XbtS9Zg4THUdN1gNmTnBVTnnzv1LbbvttqpChQpq6dIlrsJEWUamHUyfRLmWPrmSmJKYBtqhR0VkSEyD6ayiqs+yPPiUZmK6YOVS9dTQ99VBL9VTldrcoa+7er/suk+66aabNGl/7LHHXIcpy1hi2YPpFynX3MqVxJTENNAOPSoiQ2Ka245COt6o6lPSL4v3hQsXqGbNmqknnngi0LYapmw3FRepxoO6qirt6iQI6cEd4uTUCzEdOfJHTUz32GMPtW7d2lIjnzDrgmkF01dSrv7lSmJKYhpoZx4VkSEx9d8ppOtQo6rPdHnit2DqOki5rtywRhPSym1qKxDRSQtnqYZ9X9Nudft09NQnnXrqqZqcvvdeD0/hgiwf4y48TLLO8qfOSExJTAPtzKMiMiSmwXQyUdUnBo3FixepOXNmq5UrV2jMYjc2NGbdu3dTo0f/pIqKNgWK5TAHrrVr1+h1k1g7Kde//y4tNeVbtWGtatSvi5q2ZF6iTH6J6dNPP62J6dVXX52IK8y6YlrB9DWUa9mVK4kpiWmgnXlURIbENJhOLar6xCB15ZVXagLSqVNH1avXp2qnnXbS79iZjeu8887T5LU0DGhNmzZNKhvKV5o3P6HO/BJTaEohn913310VF8cC7c9KA7ZYhmD6Rso1d3IlMSUxDbQjj4rIkJjmrpMwO9yo6hN5EGJ6zTXXaJJWq1Yt1bp1K1W3bl29OxvkpEGDBoHi2ZRFkM+9e3+uGjZsqC+Uk8TUGc+jRo1MkPhJkyaWivoPEluM2xlLlE1+yIbElMQ00I48KiJDYhpMBxNVfWLAEGIKkvbhhx8k4bZr17c0Odlxxx3V6tWrkr4V+mBTmnflm3XjV2OKJR7ABK6+fb8sVXVvyofPwfRplGv+yZXElMQ00I48KiJDYhpMZxNVfWLwEGKKzS7WwQTrTcuVK6fJSWkzRE9imhnL5cuX13X/zjtvp2DDihW+Z5YnZUQZRYkBElMS00A78qiIDIlpMB1rVPWJTlKIaePGjW0xW6VKFU1Ohgz52va71462W7d3VKtWz7u+Bgzon5N0rfkMkpiC0HspI/ziFCprHnPx7ldjirQPOeQQXfevvNI5kLzlonyMI5g+iXItfXIlMSUxDbQjj4rIkJgG01lFVZ8YfISYtm/fzhazRxxxhCYnX375he13rwPYySefrOOTaeJM97vvvjsn6VrzGSQxXbVqpacyQgY9e74fSDn9EtNNmzYmtOXWJR5WWfI9mH6BcqVcc4kBElMS00AGGQFpVESGxDSYjjKq+gSehJhiV77gy7znmphi3epzz7V0ffXr19c2X2Ye/TwHSUyhMfVSRvhFfvyUI1MYv8R0xozpCXKdK215przyezD9C+VKuQIDJKYkpoEMMtLBREVkSEyD6eCiqk/gKWxiKhiO+h4kMY26bGb6fonpoEEDE8R0wYL5gfZnZn75HEwfQ7lSriSmJKaBduRRERkS02A6t6jqE4MViekOgbbVqAmBX2LauXMnTUyrVq1aquUTdf0w/WD6VMo1Va4kpiSmgXbmUREZEtPUxp6LDjCq+kTeSUxJTO0wfO+992piCruvdt/pFkxfQLlSrkFhgMSUxDTQzjwqIkNiGkynGVV9ogMkMSUxtQ6Ea9asVhUqVNDEdOzYMYH2Zda0+R5MH0O5Uq4kpiSmgXbmUREZEtNgOreo6hODVVkhpjASX7NmzcRVvXp1Tby22WabhJt8L2SbrQOmjVH7t6uTuCq3qa0qtblD4W66D54+3rGPeuON17VsTjrpJEc/JDrB9AWUK+UaFAZITElMA+3QoyIyJKbBdJpR1WdZIqYwh5XJNJV8//774YG236AGHsTbf9oYTURBRtNdg6aPsy1jSUmxOvLII7WsPvroQ1s/QeafcQfTx1CulCuJKYlpoB16VESGxDSYzi2q+uRgFUx9FrJcYRoKBP20005TIKmFXBbmnfgmBrZggMSUxDTQDj0qIkNiuqWR57LDi6o+c1kGxhUMNsKWa40aNRSWN4wc+WOgfVjY5WJ6pQOfrEf/9UhiSmIaaKceFZEhMfXfKaTrUKOqz3R54rdg6ppypVyJAWIgCgyQmJKYkphuxkA2DTAqwhZ2umGnl02dMCwHVWKAGCAGCg8DJKYkpiSmJKauMUBiWnidPAdm1hkxQAwUEgZITElMXZMSP8COishwKj+Yjjiq+vSDPYYJBgOUK+VKDBADQWKAxJTElMSUGlPXGCAx5YAU5IDEuIkvYoAYIDElMXVNSvx0GFERGWpMg+ncoqpPP9hjmGAwQLlSrsQAMRAkBkhMSUxJTKkxdY0BElMOSEEOSIyb+CIGiAESUxJT16TET4cRFZGhxjSYzi2q+vSDPYYJBgOUK+VKDBADQWKAxJTEtFQS0yAbDeNmp0wMEAPEADFADASDARJTElMS0xxM5bODCqaDolwpV2KAGCAGyhYGSExJTElMSUwDxQAHlbI1qLC+Wd/EADGQDQZITElMAyUlXJPIDiqbDophiR9igBggBsoWBkhMSUxJTKkxDRQDHFTK1qDC+mZ9EwPEQDYYIDElMQ2UlFBjyg4qmw6KYYkfYoAYIAbKFgZITElMSUypMQ0UAxxUytagwvpmfRMDxEA2GCAxJTENlJRQY8oOKpsOimGJH2KAGCAGyhYGSExJTElMqTENFAMcVMrWoML6Zn0TA8RANhggMSUxDZSUlGWN6YNPx9TxlxSpnr2LA5VxNh0Aw7ofQI4//nhVtWpV9dtvv7I++TNHDBADxEBAGCAxJTENtHGVZWJas35M7XJ4kXrtXRLT0kCAd955Z7XVVlupiRMnBNpmSoOsWAb3PzyUFWVFDCRjgMSUxDTQQZbElMS0tHS6JKbJg0dpqVeWg/VKDOQXBkhMSUxLPTFdv6FE/TW/RP29cEvjK4qVqFHji1WPXsXqh9HFKhbb8s3aSS1eWqKGjYj7HT2hWK1Za+9346Z4OkgL1xV3xDWmz3eK6Xdxx33NutQ4/llSohYuLlHImzUPxcXxb/heUpL6Hf5XrIynu3TZlu+r15SoAcOK1UdfFKvJv6dqbuctiIdB3hHHylUl6qvhxeqTvsVq2swt8Vjzk+37+vXr1Jw5s9W8eXMTZS0q2qRGjPhBvfPO2+q7775VsVhR4ps1PYTt2/dL9e673dX48ePUunVrHf2aYdeuXaPGjBmtunfvpgYM6J+UvukPzytXrtB5RFq4dtxxR60xHThwQJI7vqXLqzVevgeHK8qWsiUGCh8DJKYkpq4GdL+NPR80piCemFI/5Mw40QFR3PekIu0Gd1zHXlykNhUlN+hFS0rU9XfHyaX4w32f44s0cbPKZPzkeDqmX6fn3gNTSWLFY+N5sSOQIK0SFwioNW28t+4cz2udxjEFMn7TvTFV4cjkcjZoFksKK2n+8luxat46pnY7Itl/k5axtKTdLh9u3EA8MS1eqVIlnZ8WLVqo3XffXbvBHddhhx2mNm3amJTfhQsXqAsuuCDJH/zutttu6pNPPk7ya81Ht27vqJ122ikl7JVXXqmWLl2SErZdu7YpfiVv1vuiRf+khLemz3d73FIulAsxQAyYGCAxJTENdEDNN2IKTSAI3omXFqm6j8RUo8dj6pzr4oRu3fotnQO0hQedHidpx1UvUs+8FFNdehSre5vHVPlqcfdXuiWTS2gfn2wTS1zHXBj3d/ntW9zkux35FJJo980rMb3/yTjJvPDGmMIzyOrRFxSpC2raE9PbH4ipyicWqYdaxFTb14vVtXW3EPJe/ZPLaXYgfp9NYvrBBz01AaxWrZq67bbbVL169dTJJ5+s3UxN6JIli9U+++yj3Q888EDVtGlT1b59O3X11VcnCGSnTh1t8fzccy0Tfm644QbVocNLqkmTJmrffffV7gcccIBatWplUljk8bHHHktc5cqV035r166dcJPv1rB+5cJwW9ogZUFZEANlEwMkpiSmSYNxrjuCfCKmex1TpCqdUKRef684ZTp86A/FSRrTq+vEidktjWLKJKyQz5Dv4+R2n+OK1Px/nDsOr5ufckVMDzi1SB18RpEaPiqZUGKJAMpp1rGkCVL6x6zkstRrEpdB9VuSyawZ3u+zEFNMj0Pb2blzJ1VSkpy3r74anKQxbd68uSaGhx9+uPrnn4VJ5Xj22Wf1tz333FNPwZv5AqHdZZdd9HcQUvPb3Ll/KZBSaEBbt26V9M30h2euMU3Gh1U+fKd8iAFiIBcYIDElMU07GGcLsnwiptCUNmyemWSBvMHvficX6XWbdjI49/o4aWvVyTm+qIgp8v5hn2SSZ1cGuAkxfaptajm+/ykuhwNPc17r6RRvJnchpiCEdevWzYhBrEkVctm161sp/jdsWK/22msvTTBBcs30n3/+Oe1epUoV27WgIKvIB0htcXGqHCQuElMOuoIF3okFYiA4DJCYkpgmDeK5bmz5RkynTMtM2J7rGCed59eMaa0jNI/fGde3I4tV42fifkA+nWQWFTGFxjTdZi4zv0JM+w9NlcvsuVvWtW7YmNtOyCSmv/wyyVGGktdp037X5BEEcvHiRbb+McWO7w0aNEj6fsstt2j3++67L8ld4p41a2Yi7gUL5tv6gV8S09xiQOTPO+VKDBADJgZITElMHQdiEyh+n/ONmFqn5e3KVfuhOOmE5jHThU1TdnHALSpiinWlTnmyugsx/XlyKjF1s67VGp/bd5OYmutIncJ//fVXmjxut912KVP+Eubxxx/Xfi699NKk8p955pna3WmqHtpYEFpco0aNTAorceNOYsrB08QDn4kHYiAYDJCYkpg6DsS5aHT5REyhSXRTpuo3x4npVXfG1NsfFqe9sJnKKc6oiCk2MjnlyeouxNTvhitrfG7fhZhi+t1NmJ4939fEce+993b037ZtG+3nhBNOSPJz6KGHavfXX++S5G6mK6agvvzyC0c/JKbBDEJmPfCZMiYGiAESUxJTx4E4Fx1EPhFTMReVqVzYrQ9NKXbgZ/Kb7nsuiSlsn4r21o25qHT5Mr9FTUzFXJSZJ7vnYcOGanKJnfFO60CbNWum/VxxxRVJ9XbOOedod6w1tYsbtk1FYwobp3Z+4EZiygHTCRt0JzaIgdxhgMSUxNRxIM5FQytEYvrCK3Fies1d2RHTGzcfSWo1K+UkVzFPBcP/Vj8/jY9vRAI5/W+FfQdg2jG1hnd6LxRiOmPG9AR5nD//7xT5oHyylrRhw4ZJ32+//XYdtn79+knuIhNz/ap1t7/4wV02X/3883jbeEy/fLbHKOVCuRADxEAmDJCYkpgGOsgWIjEdMSZOAmGcHhuAMjUip++wHwoi2aKdO4J71jVx/3Y76l94tWwT040bN6g99thDE8yOHV9OqZPVq1dps1PQfL755htJ32HrFO5YBoB4rPUlNk4rV67suH4VYWDwH/EMHjwoJQ5rnHz3324oO8qOGCjbGCAxJTENdJAtRGKKTvG2++Mk8bLbYmrBotROAqdCtelSrOw2DUmn+nLXOJmEof1l/6XGIf7kXr9pPE1sXsLJTeL+2/RihfWxMpVfFjWmkIWYfdpvv/3U9Ol/JOQD+6eNGjXSpBHk0rqZCkeLCqmFUX6RK+5TpkxWFStW1GGdjPOLfywRADG98cYbk+yrynfet2CWsqAsiAFiwC8GSExJTJMGar9AcgpXqMR07vwShROfQAZhfP7W+2Ja8/nAUzF16a1bjvocNiJ12l1kATIKW6iIA4b9L74ppk9UwqlKP45NDWceaYqTqRr/L6YJMgz5P/Z8nLQirrJKTEEwYVwf5BBEE1P0jzzySOKUqG222Ub16PGuLZ67dHlNbb311jrsGWecoR599FF18803q/Lly2u3Y445JoXQSj3K/Ztvhmm/SB8nRuFo1Msuu0xfy5cvs01XwvLOQZoYIAaIAXcYIDElMQ10QC1UYooOZO26EtWsVSxhhF40lrhXPadI4Rz5hYvTN7Tpf5aoux6JaZK759FbtJ6fD0glpkiz2yfFao+jtvgDoX22QzwdSb8sbn6SDh3k9NZbb1XbbrttgiSCKOL0JhBH8Wd3HzhwgIJGFf7lwmYqHIGKDVB2YaxuQ4Z8rapXr65grN/MQ7q1qdY4+J6+zVA+lA8xULYxQGJKYupqQPbbUeQDMfWbdwlXXFyi15p+NbxYazpnzytJOdJU/Obivmp1iRo5rliN+6VY4RjRXMRZ2uLAdP24cWMV7Js6bYZyKvO8eXMVjjudMOFnBRumTv7oTuwRA8QAMRA+BkhMSUwDHZhLAzFlxxR+x0SZU+bEADFADJRNDJCYkpiSmG7GADvBstkJst5Z78QAMUAM5A8GSExJTElMSUwDxQA7/Pzp8FkXrAtigBjIdwyQmJKYBkpKOJXPTjDfO0HmjxglBogBYiB/MEBiSmJKYkqNaaAYYIefPx0+64J1QQwQA/mOARJTEtNASQk1puwE870TZP6IUWKAGCAG8gcDJKYkpiSm1JgGigF2+PnT4bMuWBfEADGQ7xggMSUxDZSUUGPKTjDfO0HmjxglBogBYiB/MEBiSmJKYkqNaaAYYIefPx0+64J1QQwQA/mOARLTMkZM8x2QzB87TWKAGCAGiAFioOxigMSUxJTaMmpMiQFigBggBogBYiAvMEBiuhmIYa+FDDs9/n2W3b9P1j3rnhggBogBYqBQMEBiSmKaF39IhdJgmE927sQAMUAMEAPEQHAYIDElMSUx5fQNMUAMEAPEADFADOQFBkhMNwMx7Kn1sNPj311wf3eULWVLDBADxAAxQAzkBgMkpiSmefGHxAadmwZNObqX45Qpk1X37t3Ub7/9yjZQCjRFQ4cO0fW5bNm/pao++/Tprd59t7vauHGDp3LNnv2nlsfYsWM8hWMf4r4PoayCkRWJKYkpO61SMCizg/TWQRYVbVJHHXWU2mabbdTMmTPKfBuYPa9EDfymOOVavcabXKPCIUjYDjvsoA4++GAVixWVqvps3ry52mqrrVSHDi95Kte//y5VO+20k6pcubJavXqVp7BR1SPTLYz2FnQ9kZiSmLLDIjEtcxjo0uU1Pdhfc801rsq+Yv1q1ee3kerxr99Vd3/RSb0+ZqCasmiOq7B+O/G//lukekwcpu7v/7p6aMCb6oNJ36oFK5cGkubr7xWrXQ4vSrl+m14cSHp+ZeIUrlatWro+X365Q0Hk16kcdu5z5/6ltt12W1WhQgW1dOkST+Vr0KCBlkuLFi08hbPLB91IGsPCAIkpiWnoHVaPXsXq+EuKVOP/xUJPO6yGVWjpYFq7atWq6qSTTir1dbJ+/Tq199576wH722+/yVjef1YvU+e83UxVanNH0rVv29qaLAZR16Pn/a4OffmepPSQfrVODdUv//yZMc9e8zRtZonq2bs4cZWvFiephUBMf/55vK7LXXfdVa1Y8V/OZeNVlkH4v+mmm3QZH3vsMU/l+/XXqTocNKdLliz2FDaIcjBOkls3GCAxJTENvbPq9E5cO3NzQxJTN400DD/jxo3VA1j58uVDx0MY5TPTeP/993RZjzvuuIxlXbNxnTrjzSaaIF7Y7QnV9/ef1IQFM1WLYT21W+U2tbUm1Yw/2+cp/8xWB3eop+Ov26ejGjFnqho+e7K6rVc77XZ4x/pq5r/zM+Y9m3xUOLJwiGm9evV0fT700EOByiQbeWYbduTIH3UZ99hjD7Vu3VpP5bzkkkt02LZt23gKl22eGZ4k1C8GSExJTEPvrEhM86/DKkvE9KyzztIDdbdu72TE/qdTftBk8IhO96p5K5KnURsP6qq/gbD67YDtwj008C0d75XvP6M2FW9ZL7mhaKM6d7Pm9qmh7+c0TWs+CoWY/vffcr2Ocuutt1YzZkwPVCZWGYX9fuqpp2rcvvdeD0/lHDhwgA536KGHqpKSwliaEbZsmV5+jUkkpmWYmK7fUKL+ml+i/l64BZRFsRI1anyxwnT7D6OLVSy25Zu18WJjxOif436/+bFYLfnX2e+8BfG0kN4zL8X0WrYadWI6fbjJtey/1DiWryhRCxeXqDXrUr8hT0gX31Eeax7x7qeckt+Nm+JxrlxVor4aXqw+6VusMO1pl042bn/9NUfhwsDx00+j1IcffqAWLIhrxbAbF1POcJs//++ktDEwz5kzW/3zz8Ikd2teli9fpv0tWvRPwt/ixYu0G8L37fulHrwwHYp387KmacaNdOF31aqViXiR7w8+6Kl69fpUzZs3N+FuhsMzyjpr1kzVu/fnClrMyZN/UZs2bXT0b4ZHetAivfPO22rIkK8VymJ+d3pGWbCRBNfff8/LGOa6D1tpkvj4kGQyAJIomlRMsedqen31xnXqkA536zT7T0veTT196d+qSrs6+hum9DfFNmXMv5McMrn7IaZoK1OmFauPvihW/YYUK2yoKilxbiu5aGNoE6jLww47LKMssIQDWJV6xwa40aN/0jvesRzADfaiwjvq6+mnn9ZlvfrqqzOW1azfDRvW601+kNP48eM8hTXj4bMzlimb3MqGxLQME1MQT2x4OOTMuFbm+U4xte9JyRsgjr24SG0qSgYdBqCn2sbUbkck+921apF6sk0sxT8abcVjk/3abbSAm9260xvuiRPZLj3s//ZPuDQed/+h9t/9lFPy+8tvxap569SyNmkZS0vavXZU2FFcrlw51bhx4wRx2nHHHdXEiRNU9erVE27YAIH1oBL/4MGD9LfddttNrVmzOuEu3+V+3nnnaX8Y3MTtyiuvTMQrZM3ufuSRRybCSFi5n3/++TqON998Q+9uP+GEE5LiRJm6dn0rJTw0tFjTak0PBAMkQeK33kHSmzZtmhhoJTw0Zlh/l4lcfPTRhzpNrLnLpD1atm6lJoEgnl/NSM7Ti9/30t/2a3unvr/w/aeOebaWId37gD/G6viwfvW/9Vt2UpeoYnXNB88puGP5APKE6f10cWXzzSsx/fjLYlX5xNQ2fs1dMccf1ly0Mdncc/nll2eUBcxJAS/777+/wtrLffbZJwl/cJ80aaBW340AABKsSURBVGLaeMLGu1mH0JQi/7vvvrsqLva2DArWChDW685+M30+J4+DlEdw8iAxJTHVxBSaQBDDEy8tUnUfialGj8fUOdfFCeG69VsACO3judfH3TEQPfpcTL3xfrF6/IWYqnJKfGCq1SC104SWFKQV12W3xcOD9Iqb3Pt+nUouc0lM3ZZTBs3bH4jpAfehFjHV9vVidW3deN4hq179U/Pqt7MCMcXAgcHymWeeUQcddJB+BznFujIQyiOOOEK73XvvvYnBEwPUgQceqN2hdbRL/88/ZykQN1x4Fj/QNoLM4br99tt1HNtvv33CTb61a9c2EUbCyl0Gagx4WLO5yy67qIsvvlg1bNhQYcc7iDTM3Yh/3EEOt9tuO50ewrdu3Uph/dull16ayMOoUSOTwiAcNF6nnHKK9oO1sA8++KB65ZXOqkmTJmrPPffU7jVq1EgJZ6bdqFEj7e/YY49N6w9hpi6aowkgSOB8Yzf8H5s1lxd3f1LV6f2y9vPggDcyxmfmw+m567jBOr7T3nwkKT7syEc+nhjSQx3ZuaF+/njy8CQ/TnH6cfdCTB95Nt4m8KN61yMx9Wr3YoWf3FOuiPcHR5xbpFas3NKHSH5y0cbw04R2AyxIvE53Iab4iYMJpcMPP1w99dRTqlWr5xO4wowBSKtTHGHi3ZoHtAmUFVcmAm0NK23ruuuucyybNQzfUzFLmYQjExJTElO11zFFqtIJRQomY6xTb0N/KE7SgIKcgZSBVJpLANBgFywqUftvJqeYynNqxF7XmOaKmHoppwyaIN9/zEpujPWaxAfi6rekEnCnMmdyF2L6448jtNww8MgghAEV4THtDTdoGs34WrZsqd0vvPDCJHfxA6KLcBdddJHtd/jzu8ZUBuq99tpLYQ0c7ElKurjD2Dmm3MUNSw8qVqyo8/Piiy8k3OW72GyEdQCrVggEAuWAVtW6RABT9CDw+P7FF31S4pX4RUt8ww03OPoRv9/NnqwJIAghptjhLppLaEoxff/o4He0n5s/yc3GktbDP9XxXdJji2Z7yZr/1BGdGqgTuzyk83HmW49qP51/6puxDFIWr3e3xBTLftAf7HFUkV76Y6aDn1j5CW36fGpbyUUbg+YbdY4fFDNtu2chpvAPG7aw8yn+MN2N9oFvtWvXTrjLd7mHiXdJU+5YroL84cLSG3F3c7/vvvt0uBNPPNFTODdx00/y+EB5ZC8PElMSUz2wNGyeOnBYGxjWf+5zXFwLMmKMPfGE5hMD1aW3OscXFTFFvtyUE+WWQRNLFqxy+P6n+GB84GlbNqZY/Xh9F2KKtaAIC+2gDEKyfhRTz7BnaN05DzuHMBRv1YgiHoSRaTxoKp3ylS0xxZS9G0P1jz/+uC6XE4mGnUaRhWnKCSQC2ljIZPjw72zLAQ0vvmPZglM5ZQNJs2bNHP1I2F5TR2gCCBIqbj03ay6f/TYuy+e++1j7uah7bjZAyYaqGz/eQtob9eui0xgyc4LOx+Xv/U+/Pz0suA1QbonphTfG2/sLr6S2E8hs8HfxtoL4rGvAs21jWLoibWTQoIGJOpK6st5NYooTv6zfv/vuWx0fsGyuxTb9CTENGu9mmuYz2j7KjNkO0z3Tc8eOL+twWK6QyS+/Z0+sKMPsZEhiSmKqiSQ2LWRqTN+Nig8y0Dx+O7JYDR8Vv+COC27dPon72ef4IlVcbA/OKImpm3JCDjJo2q1bnT23RMsMRHfDRvsyZpKl9buQMXONJMgmBiHz1BZMNYKAWtdHiiYQ2lEzbpA4xAFtIsiu+c18zpaYXn/99Y5xm+mcc845Oj9YG/jNN8P0NWzYUCUXyIP4ad++XSJOfEc5sLQBfqxh4fbWW29qP5CRVdsqeTj66KO1Hzemc3pMGKoJIEw3IfzizZrLU99orNZtih8P2X5Eb+3n9DebJPIqafm51//yFR3f7Z+11/GJ1rbBl68m4pcNWY8M8kZOvOTHDTEF9mWdedcP7PuDYSO2rD39eXJyH5NtG4NdTmAC15gxoxPycSqnSUztbHqiTWX6+RFiGjTencpwyCGH6PK60RCbcYiJNPQDpjufc9N/U465lSOJKYmpJlnmOlKnRvb2h3HSCULm5pr/jz1YoySmbsqJ8sugaR1M8e2fJVuIqd3aOSf5pXMHMQURNf3INCV2D4s7pswxEFs3OuE8bbhjbapJWuvWravdH3jggUQcEpd5z5aYQhNqxuf0LIbthVCku99zzz2JOF9/vYsuRzr/5jfZeW3Nh2wCM9fpWv3I+4BpYzRJxFQ+dsA37Puafjc3HYk906vefzaRVwnv5441pEjv6p7PqvVFGxTWmsJUFabzJT6sbYUfTPuLW67vbogprFO46QfED9Z3m/nMto2hXeAnDfX+8ccfJcVtpiPPQkyxvtlsI/IddywTQXxO67WFmAaNdzNP8oyfVmhqkT9YIxB3N/dnn31Wh8O6Wjf+6cd+7KJcwpELiSmJqTrgVHdT0i1fjk/bVTuvSIGkZrqcztmOipi6LSc6Hxk0J/+ePJjiW1DEFIOO2fGJ9sbU/gmxM7WoCINBq1KlSnrwgTYRbiCv0B5iIMu0WSJbYvraa1s0emYZzGfkEXnBhU1IIJvpLnMqH5tUEO6AAw5IG0biM81XmXmoWbOmjifdelvxP3retAQx/WTy9/rZuskJR4WCJN7V++WkupM4vN5fHvmFju/srk1Vq+Gf6GfrJqeTX39Yu2OjlNf43fp3Q0wxQyKkExueMvUHM2YnD2q5aGOy6e2551pmlIUQU7QhJznI5rqXXoprrK3+hJgGjXdruniHnVZpPzCRZufHyU02N8KGr5Mfuifjk/KITh4kpiSmCXNRmRpi983T9Edd4I7IOsWXa2KK/GCAtJt2Rx6s5qKc8mW652LQNOPL9AyNaTbEFPHLxqE77rhDDz4yfXfyySdnHIyyJaYwF5WpjPi+77776sG1R493XfmXOGFyCoMyNMLi5ucumiMQ3EzhZy1bqAkgiOdhL9+jjurcSMGElBnulk/baj/Nvuqe5G768fIsa1gPfKmu2r9dHVXTWGuKeGIlscSpUF/+/lNO0rTLnxtiOnP2Fo0p7BDbxZPOLRdt7IILLtC4uPPOLeuAndIUYop25qQxlfXYPXvar98VYho03u3KgHW0QkzFxrGdPzu30047TYd1M1NgF55u3vFNmfmXGYkpialrYooNTyCAWGPqtH7UTWPsvPlIUjuzUnbhaz8U19S26ZKqvUQ+ZBB1sgRQVoipaFSwBABnhssuY2gR7eRqusHwNgY9aFhN90zPXgdqIRIvvNDaUzqyVhZrTE0Ncqb8Wb9LPJgCznS048bYJoXjP0FMcfX+NdmEFU5lEmP4704Y6lgesUwA6wS4zN3g1vz9vGBGIj2Q09nLtxyIAL/j52/5DrNV1vDyDusIkh7u5tpl8ZPuLjZJR45LbXMSDvaNd68W/ykcPcHZn/i33nNBTOVH48wzz3SUhaQrxBQ4tyN2sViRPkUK33/44Xvb+MLCu+TZvHfu3Em3UatVDtOP0zPMtqFc6TZAOoWlu3+CRdn5kx2JKYmpa2KK9ZRigB+nu/htdGJL9IKa9jt5rfHCwD0Isd2O+h/HbplOLOvEFHLDbncMQE8++aRefweSChNNVpla37EmE+FwrV27JqN/Ce91oBYigcHVXDsr8TndUQYYFkf+nNb/OYU13bEBbOedd9bx4PAC85vdc9OvummiaLUrCr/fz5mivx3Q/q4kY/jWeGC+SmSL+2ef9Uqb7tldH9PxYoe+NS4x7H9ZjxYp30y/Dz/8cFKadpt9TP/W5zNqxNtc+zfSt/PLb4/7g91jaxyZ3nNBTEeM+EGXE5t6QCzTpWkS01dffSXFrxzdidkLWIewiyssvNulDW0n8AMbwXbfndwWLlygw2ENux0hdwpHd3+kinLLXm4kpiSmrokpGhyM6YMkVj2nSI2dlDpoYXPR+5/HjyV0aqDjfonHUb5akbLbXGQNh/iQJnb6m7ZT/1tRosRcDb6TmJboTREYvGRHv0zrW2VqfYcWUggbTMtYvzu9ex2ose61SpUqeqDEhiw7SwE4mhSDr1XLh53IKBtM3uAoSWueoAGFGaBMxLV+/fo6HpA3axzWd1OD2WNifO0u/KxYvyZxJCl20lvDme9eiemro/slCO+URXMSccNuKkgwtLewGGCmYX3Olpji4Ay0qdOuiuljRq3xyztORsPOfLTlD/qk9gewiwxbyK07pxLXXBBTTMnLCWLp7NcivyYxxaEUOAJYyoEZBllfCosR4m69h4l3M220G9F6jh2bfFSt6c/uGbMTaDew3GH3nW7ZEynKMLcyJDElMfVETGOxEiUG7zEg4bz7Zq1iCga0r6sXU/udHJ/aw0lP6Ror7Jxi4MOAdva1MX2iEk5VevP91MENZBcbl+AftkPvbR5T9ZvG1OFnF6kb68fUMRfGv5GYxu2fiqF5DEYws5SuHsxvLVq00AMYwuGUqUsuuURddtllytwdb/rHs9eBGmG++mqwwuk7SAcEARsznnjiCX03jzSF0XMzPWjExCwWiDfyhyNcQcJwJKUM3IjLDGd9xpGnSBt5WLlyRVq/CNvy2480GcRRoNgtjw1QR7/SSLvBTNS8FfbaNUlXLCYgTVyff/5Z2jTXbFynrv+oVYKc4nSpOz/voA56qZ52gympDUUb08bx0EMPJeoSaTppACWP1js2+ElbRrvDKU7QotZpnNqucegGjiOGP7TlB5+OqRbtYuq2+2PqyPPj7hfVSg2XC2KKfOPUMZQRy0Ss5TDfhZgCJ9h9j01QsFoB4/Nihglu5uloZng8h4l3M+033nhdlxEHT5jumZ4xK4EfOcinX7/gDmTIlA9+zy1xK+3yJDElMfVETKVBYCPUQafHBx0MSHLhBCkMXnbaVAmL+/IVJQrG60+9MqZPnZLwD7dIHcDgH2vYDjtrSzpY24Y1qmvXlagTLo27l/XNTyJfOeUFpM/LekwMYhgAYYRedv9jQKtWrZrjYOhnoEY+cSgASCYODEAa5nX88ccrnGbllHdshDLzJ2FBNG+55RZbbarIRu6y5AHr9sQt3b3DyD769CVZbwqj+zV6tlQLV8UPREgXVjRWyCcMpGPNaTr/+AZTUfd8+UpCQ4p0QUxhBQCmqzKFlyMokea5556b0b9dfNjQBHKJH0BpnyCedn5xAhTasviTO9rpVXfGbI/vzRUxxaEU8jOWzvqEEFMQNWhLcfqTYAd3/BRZTy6zljUKvEMrLEevel0j+sknH+syInympQ7WsvKdZDIqDJCYlmFimgvQLVpSog3tf/NjsT66c+Om4Boz4p70a9yQ95q1waWTC7lEGYeQLqznjDIfbtKGVhRT99DmYHpeTrlyExZ+YRoLpnN+//03tXFj3Oi9m7DQmmIDFDRnTgTYGg+OI522ZJ4aMWdq4ohSqx+7d2h2hQCBcNv5cXLDBqxx86erCQtmKmy2cvJnukMOsiwD6X7//XBX4cw4/D6vWl2if0px4hNMreHdb1xewsnJRtCAOoUzian4wQ8SNPhhrb30g3fgG/WInfVO1gSkPNY7zEMhLNbPWr/xPRxsUs7e5UxiSmLKDmszBkpDB/Lrr1P1QISpbnMNXWkoW67LcNddd+m1uP379wusDYAkykEJsLnpZulAtuWUDUEgJCDF2cZXCOEhZ6w1haydNnrZEdNCKFuNGjU0TmFdwUt+YWkD/QC0517C0a93IkWZ5VZmJKYkpuy0SgkxBRGVk41gSJ6dZW47Sz/yhNkhEERcbdq8GEqdwNi8pGm3ScxPOUpDmEIlpqVB9ixD9H1RIdUBiSmJaSiDZSE1ikLLa+vWrdQxxxyTOJ5xv/32U7NmzWS95sEPR/v27fT6RxwFaT1GNiicXXvttTrNWrVqEQMGBkhMSY6CanOMN7fYIjElMeXgZQxehdjBYLMTpuxwqtLNN9+s/vhjGuu0wOu0EHGY73kGMUU7gbmyfM8r85dbokN5FpY8SUxJTNlJk8QQA8QAMUAMEAPEQF5ggMR0MxCnTp2qcIX1ZxV2emGVi+kU1p8p64v1RQwQA8QAMZBPGCAxJTENjYznE/CZF3bExAAxQAwQA8RA/mGAxJTElMSU0zfEADFADBADxAAxkBcYIDHdDMSwp9bDTo9/hfn3V8g6YZ0QA8QAMUAMEAPJGMhITCmwZIFRHpQHMUAMEAPEADFADBADwWCAxJSq+7xQ3bOBB9PAKVfKlRggBogBYqCQMEBiSmJKYkoMEAPEADFADBADxEBeYIDElEDMCyAW0t8c80rtAzFADBADxAAxEAwGSExJTElMiQFigBggBogBYoAYyAsMkJgSiHkBRP55BvPnSblSrsQAMUAMEAOFhIH/A3UXKl5dQptZAAAAAElFTkSuQmCC;" vertex="1" parent="1">
          <mxGeometry x="420" y="1060" width="199.81" height="202.17" as="geometry" />
        </mxCell>
      </root>
    </mxGraphModel>
  </diagram>
</mxfile>
